<?xml version="1.0" encoding="utf-8" standalone="no"?>
<!DOCTYPE svg PUBLIC "-//W3C//DTD SVG 1.1//EN"
  "http://www.w3.org/Graphics/SVG/1.1/DTD/svg11.dtd">
<svg height="288pt" version="1.1" viewBox="0 0 432 288" width="432pt" xmlns="http://www.w3.org/2000/svg" xmlns:xlink="http://www.w3.org/1999/xlink">
 <metadata>
  <rdf:RDF xmlns:cc="http://creativecommons.org/ns#" xmlns:dc="http://purl.org/dc/elements/1.1/" xmlns:rdf="http://www.w3.org/1999/02/22-rdf-syntax-ns#">
   <cc:Work>
    <dc:type rdf:resource="http://purl.org/dc/dcmitype/StillImage"/>
    <dc:date>2022-05-13T16:48:56.095665</dc:date>
    <dc:format>image/svg+xml</dc:format>
    <dc:creator>
     <cc:Agent>
      <dc:title>Matplotlib v3.4.3, https://matplotlib.org/</dc:title>
     </cc:Agent>
    </dc:creator>
   </cc:Work>
  </rdf:RDF>
 </metadata>
 <defs>
  <style type="text/css">*{stroke-linecap:butt;stroke-linejoin:round;}</style>
 </defs>
 <g id="figure_1">
  <g id="patch_1">
   <path d="M 0 288 
L 432 288 
L 432 0 
L 0 0 
z
" style="fill:#ffffff;"/>
  </g>
  <g id="axes_1">
   <g id="patch_2">
    <path clip-path="url(#p12897fdd74)" d="M 221.4 143.28 
C 224.283288 143.28 227.048872 142.134457 229.087665 140.095665 
C 231.126457 138.056872 232.272 135.291288 232.272 132.408 
C 232.272 129.524712 231.126457 126.759128 229.087665 124.720335 
C 227.048872 122.681543 224.283288 121.536 221.4 121.536 
C 218.516712 121.536 215.751128 122.681543 213.712335 124.720335 
C 211.673543 126.759128 210.528 129.524712 210.528 132.408 
C 210.528 135.291288 211.673543 138.056872 213.712335 140.095665 
C 215.751128 142.134457 218.516712 143.28 221.4 143.28 
z
" style="fill:none;stroke:#000000;stroke-linejoin:miter;stroke-width:0.2;"/>
   </g>
   <g id="patch_3">
    <path clip-path="url(#p12897fdd74)" d="M 221.4 165.024 
C 224.283288 165.024 227.048872 163.878457 229.087665 161.839665 
C 231.126457 159.800872 232.272 157.035288 232.272 154.152 
C 232.272 151.268712 231.126457 148.503128 229.087665 146.464335 
C 227.048872 144.425543 224.283288 143.28 221.4 143.28 
C 218.516712 143.28 215.751128 144.425543 213.712335 146.464335 
C 211.673543 148.503128 210.528 151.268712 210.528 154.152 
C 210.528 157.035288 211.673543 159.800872 213.712335 161.839665 
C 215.751128 163.878457 218.516712 165.024 221.4 165.024 
z
" style="fill:none;stroke:#000000;stroke-linejoin:miter;stroke-width:0.2;"/>
   </g>
   <g id="patch_4">
    <path clip-path="url(#p12897fdd74)" d="M 202.569144 154.152 
C 205.452432 154.152 208.218016 153.006457 210.256809 150.967665 
C 212.295601 148.928872 213.441144 146.163288 213.441144 143.28 
C 213.441144 140.396712 212.295601 137.631128 210.256809 135.592335 
C 208.218016 133.553543 205.452432 132.408 202.569144 132.408 
C 199.685856 132.408 196.920271 133.553543 194.881479 135.592335 
C 192.842686 137.631128 191.697144 140.396712 191.697144 143.28 
C 191.697144 146.163288 192.842686 148.928872 194.881479 150.967665 
C 196.920271 153.006457 199.685856 154.152 202.569144 154.152 
z
" style="fill:none;stroke:#000000;stroke-linejoin:miter;stroke-width:0.2;"/>
   </g>
   <g id="patch_5">
    <path clip-path="url(#p12897fdd74)" d="M 240.230856 154.152 
C 243.114144 154.152 245.879729 153.006457 247.918521 150.967665 
C 249.957314 148.928872 251.102856 146.163288 251.102856 143.28 
C 251.102856 140.396712 249.957314 137.631128 247.918521 135.592335 
C 245.879729 133.553543 243.114144 132.408 240.230856 132.408 
C 237.347568 132.408 234.581984 133.553543 232.543191 135.592335 
C 230.504399 137.631128 229.358856 140.396712 229.358856 143.28 
C 229.358856 146.163288 230.504399 148.928872 232.543191 150.967665 
C 234.581984 153.006457 237.347568 154.152 240.230856 154.152 
z
" style="fill:none;stroke:#000000;stroke-linejoin:miter;stroke-width:0.2;"/>
   </g>
   <g id="patch_6">
    <path clip-path="url(#p12897fdd74)" d="M 202.569144 132.408 
C 205.452432 132.408 208.218016 131.262457 210.256809 129.223665 
C 212.295601 127.184872 213.441144 124.419288 213.441144 121.536 
C 213.441144 118.652712 212.295601 115.887128 210.256809 113.848335 
C 208.218016 111.809543 205.452432 110.664 202.569144 110.664 
C 199.685856 110.664 196.920271 111.809543 194.881479 113.848335 
C 192.842686 115.887128 191.697144 118.652712 191.697144 121.536 
C 191.697144 124.419288 192.842686 127.184872 194.881479 129.223665 
C 196.920271 131.262457 199.685856 132.408 202.569144 132.408 
z
" style="fill:none;stroke:#000000;stroke-linejoin:miter;stroke-width:0.2;"/>
   </g>
   <g id="patch_7">
    <path clip-path="url(#p12897fdd74)" d="M 202.569144 175.896 
C 205.452432 175.896 208.218016 174.750457 210.256809 172.711665 
C 212.295601 170.672872 213.441144 167.907288 213.441144 165.024 
C 213.441144 162.140712 212.295601 159.375128 210.256809 157.336335 
C 208.218016 155.297543 205.452432 154.152 202.569144 154.152 
C 199.685856 154.152 196.920271 155.297543 194.881479 157.336335 
C 192.842686 159.375128 191.697144 162.140712 191.697144 165.024 
C 191.697144 167.907288 192.842686 170.672872 194.881479 172.711665 
C 196.920271 174.750457 199.685856 175.896 202.569144 175.896 
z
" style="fill:none;stroke:#000000;stroke-linejoin:miter;stroke-width:0.2;"/>
   </g>
   <g id="patch_8">
    <path clip-path="url(#p12897fdd74)" d="M 240.230856 132.408 
C 243.114144 132.408 245.879729 131.262457 247.918521 129.223665 
C 249.957314 127.184872 251.102856 124.419288 251.102856 121.536 
C 251.102856 118.652712 249.957314 115.887128 247.918521 113.848335 
C 245.879729 111.809543 243.114144 110.664 240.230856 110.664 
C 237.347568 110.664 234.581984 111.809543 232.543191 113.848335 
C 230.504399 115.887128 229.358856 118.652712 229.358856 121.536 
C 229.358856 124.419288 230.504399 127.184872 232.543191 129.223665 
C 234.581984 131.262457 237.347568 132.408 240.230856 132.408 
z
" style="fill:none;stroke:#000000;stroke-linejoin:miter;stroke-width:0.2;"/>
   </g>
   <g id="patch_9">
    <path clip-path="url(#p12897fdd74)" d="M 240.230856 175.896 
C 243.114144 175.896 245.879729 174.750457 247.918521 172.711665 
C 249.957314 170.672872 251.102856 167.907288 251.102856 165.024 
C 251.102856 162.140712 249.957314 159.375128 247.918521 157.336335 
C 245.879729 155.297543 243.114144 154.152 240.230856 154.152 
C 237.347568 154.152 234.581984 155.297543 232.543191 157.336335 
C 230.504399 159.375128 229.358856 162.140712 229.358856 165.024 
C 229.358856 167.907288 230.504399 170.672872 232.543191 172.711665 
C 234.581984 174.750457 237.347568 175.896 240.230856 175.896 
z
" style="fill:none;stroke:#000000;stroke-linejoin:miter;stroke-width:0.2;"/>
   </g>
   <g id="patch_10">
    <path clip-path="url(#p12897fdd74)" d="M 221.4 121.536 
C 224.283288 121.536 227.048872 120.390457 229.087665 118.351665 
C 231.126457 116.312872 232.272 113.547288 232.272 110.664 
C 232.272 107.780712 231.126457 105.015128 229.087665 102.976335 
C 227.048872 100.937543 224.283288 99.792 221.4 99.792 
C 218.516712 99.792 215.751128 100.937543 213.712335 102.976335 
C 211.673543 105.015128 210.528 107.780712 210.528 110.664 
C 210.528 113.547288 211.673543 116.312872 213.712335 118.351665 
C 215.751128 120.390457 218.516712 121.536 221.4 121.536 
z
" style="fill:none;stroke:#000000;stroke-linejoin:miter;stroke-width:0.2;"/>
   </g>
   <g id="patch_11">
    <path clip-path="url(#p12897fdd74)" d="M 183.738287 143.28 
C 186.621575 143.28 189.38716 142.134457 191.425952 140.095665 
C 193.464745 138.056872 194.610287 135.291288 194.610287 132.408 
C 194.610287 129.524712 193.464745 126.759128 191.425952 124.720335 
C 189.38716 122.681543 186.621575 121.536 183.738287 121.536 
C 180.854999 121.536 178.089415 122.681543 176.050622 124.720335 
C 174.01183 126.759128 172.866287 129.524712 172.866287 132.408 
C 172.866287 135.291288 174.01183 138.056872 176.050622 140.095665 
C 178.089415 142.134457 180.854999 143.28 183.738287 143.28 
z
" style="fill:none;stroke:#000000;stroke-linejoin:miter;stroke-width:0.2;"/>
   </g>
   <g id="patch_12">
    <path clip-path="url(#p12897fdd74)" d="M 221.4 186.768 
C 224.283288 186.768 227.048872 185.622457 229.087665 183.583665 
C 231.126457 181.544872 232.272 178.779288 232.272 175.896 
C 232.272 173.012712 231.126457 170.247128 229.087665 168.208335 
C 227.048872 166.169543 224.283288 165.024 221.4 165.024 
C 218.516712 165.024 215.751128 166.169543 213.712335 168.208335 
C 211.673543 170.247128 210.528 173.012712 210.528 175.896 
C 210.528 178.779288 211.673543 181.544872 213.712335 183.583665 
C 215.751128 185.622457 218.516712 186.768 221.4 186.768 
z
" style="fill:none;stroke:#000000;stroke-linejoin:miter;stroke-width:0.2;"/>
   </g>
   <g id="patch_13">
    <path clip-path="url(#p12897fdd74)" d="M 183.738287 165.024 
C 186.621575 165.024 189.38716 163.878457 191.425952 161.839665 
C 193.464745 159.800872 194.610287 157.035288 194.610287 154.152 
C 194.610287 151.268712 193.464745 148.503128 191.425952 146.464335 
C 189.38716 144.425543 186.621575 143.28 183.738287 143.28 
C 180.854999 143.28 178.089415 144.425543 176.050622 146.464335 
C 174.01183 148.503128 172.866287 151.268712 172.866287 154.152 
C 172.866287 157.035288 174.01183 159.800872 176.050622 161.839665 
C 178.089415 163.878457 180.854999 165.024 183.738287 165.024 
z
" style="fill:none;stroke:#000000;stroke-linejoin:miter;stroke-width:0.2;"/>
   </g>
   <g id="patch_14">
    <path clip-path="url(#p12897fdd74)" d="M 259.061713 143.28 
C 261.945001 143.28 264.710585 142.134457 266.749378 140.095665 
C 268.78817 138.056872 269.933713 135.291288 269.933713 132.408 
C 269.933713 129.524712 268.78817 126.759128 266.749378 124.720335 
C 264.710585 122.681543 261.945001 121.536 259.061713 121.536 
C 256.178425 121.536 253.41284 122.681543 251.374048 124.720335 
C 249.335255 126.759128 248.189713 129.524712 248.189713 132.408 
C 248.189713 135.291288 249.335255 138.056872 251.374048 140.095665 
C 253.41284 142.134457 256.178425 143.28 259.061713 143.28 
z
" style="fill:none;stroke:#000000;stroke-linejoin:miter;stroke-width:0.2;"/>
   </g>
   <g id="patch_15">
    <path clip-path="url(#p12897fdd74)" d="M 259.061713 165.024 
C 261.945001 165.024 264.710585 163.878457 266.749378 161.839665 
C 268.78817 159.800872 269.933713 157.035288 269.933713 154.152 
C 269.933713 151.268712 268.78817 148.503128 266.749378 146.464335 
C 264.710585 144.425543 261.945001 143.28 259.061713 143.28 
C 256.178425 143.28 253.41284 144.425543 251.374048 146.464335 
C 249.335255 148.503128 248.189713 151.268712 248.189713 154.152 
C 248.189713 157.035288 249.335255 159.800872 251.374048 161.839665 
C 253.41284 163.878457 256.178425 165.024 259.061713 165.024 
z
" style="fill:none;stroke:#000000;stroke-linejoin:miter;stroke-width:0.2;"/>
   </g>
   <g id="patch_16">
    <path clip-path="url(#p12897fdd74)" d="M 202.569144 110.664 
C 205.452432 110.664 208.218016 109.518457 210.256809 107.479665 
C 212.295601 105.440872 213.441144 102.675288 213.441144 99.792 
C 213.441144 96.908712 212.295601 94.143128 210.256809 92.104335 
C 208.218016 90.065543 205.452432 88.92 202.569144 88.92 
C 199.685856 88.92 196.920271 90.065543 194.881479 92.104335 
C 192.842686 94.143128 191.697144 96.908712 191.697144 99.792 
C 191.697144 102.675288 192.842686 105.440872 194.881479 107.479665 
C 196.920271 109.518457 199.685856 110.664 202.569144 110.664 
z
" style="fill:none;stroke:#000000;stroke-linejoin:miter;stroke-width:0.2;"/>
   </g>
   <g id="patch_17">
    <path clip-path="url(#p12897fdd74)" d="M 240.230856 110.664 
C 243.114144 110.664 245.879729 109.518457 247.918521 107.479665 
C 249.957314 105.440872 251.102856 102.675288 251.102856 99.792 
C 251.102856 96.908712 249.957314 94.143128 247.918521 92.104335 
C 245.879729 90.065543 243.114144 88.92 240.230856 88.92 
C 237.347568 88.92 234.581984 90.065543 232.543191 92.104335 
C 230.504399 94.143128 229.358856 96.908712 229.358856 99.792 
C 229.358856 102.675288 230.504399 105.440872 232.543191 107.479665 
C 234.581984 109.518457 237.347568 110.664 240.230856 110.664 
z
" style="fill:none;stroke:#000000;stroke-linejoin:miter;stroke-width:0.2;"/>
   </g>
   <g id="patch_18">
    <path clip-path="url(#p12897fdd74)" d="M 183.738287 121.536 
C 186.621575 121.536 189.38716 120.390457 191.425952 118.351665 
C 193.464745 116.312872 194.610287 113.547288 194.610287 110.664 
C 194.610287 107.780712 193.464745 105.015128 191.425952 102.976335 
C 189.38716 100.937543 186.621575 99.792 183.738287 99.792 
C 180.854999 99.792 178.089415 100.937543 176.050622 102.976335 
C 174.01183 105.015128 172.866287 107.780712 172.866287 110.664 
C 172.866287 113.547288 174.01183 116.312872 176.050622 118.351665 
C 178.089415 120.390457 180.854999 121.536 183.738287 121.536 
z
" style="fill:none;stroke:#000000;stroke-linejoin:miter;stroke-width:0.2;"/>
   </g>
   <g id="patch_19">
    <path clip-path="url(#p12897fdd74)" d="M 202.569144 197.64 
C 205.452432 197.64 208.218016 196.494457 210.256809 194.455665 
C 212.295601 192.416872 213.441144 189.651288 213.441144 186.768 
C 213.441144 183.884712 212.295601 181.119128 210.256809 179.080335 
C 208.218016 177.041543 205.452432 175.896 202.569144 175.896 
C 199.685856 175.896 196.920271 177.041543 194.881479 179.080335 
C 192.842686 181.119128 191.697144 183.884712 191.697144 186.768 
C 191.697144 189.651288 192.842686 192.416872 194.881479 194.455665 
C 196.920271 196.494457 199.685856 197.64 202.569144 197.64 
z
" style="fill:none;stroke:#000000;stroke-linejoin:miter;stroke-width:0.2;"/>
   </g>
   <g id="patch_20">
    <path clip-path="url(#p12897fdd74)" d="M 240.230856 197.64 
C 243.114144 197.64 245.879729 196.494457 247.918521 194.455665 
C 249.957314 192.416872 251.102856 189.651288 251.102856 186.768 
C 251.102856 183.884712 249.957314 181.119128 247.918521 179.080335 
C 245.879729 177.041543 243.114144 175.896 240.230856 175.896 
C 237.347568 175.896 234.581984 177.041543 232.543191 179.080335 
C 230.504399 181.119128 229.358856 183.884712 229.358856 186.768 
C 229.358856 189.651288 230.504399 192.416872 232.543191 194.455665 
C 234.581984 196.494457 237.347568 197.64 240.230856 197.64 
z
" style="fill:none;stroke:#000000;stroke-linejoin:miter;stroke-width:0.2;"/>
   </g>
   <g id="patch_21">
    <path clip-path="url(#p12897fdd74)" d="M 183.738287 186.768 
C 186.621575 186.768 189.38716 185.622457 191.425952 183.583665 
C 193.464745 181.544872 194.610287 178.779288 194.610287 175.896 
C 194.610287 173.012712 193.464745 170.247128 191.425952 168.208335 
C 189.38716 166.169543 186.621575 165.024 183.738287 165.024 
C 180.854999 165.024 178.089415 166.169543 176.050622 168.208335 
C 174.01183 170.247128 172.866287 173.012712 172.866287 175.896 
C 172.866287 178.779288 174.01183 181.544872 176.050622 183.583665 
C 178.089415 185.622457 180.854999 186.768 183.738287 186.768 
z
" style="fill:none;stroke:#000000;stroke-linejoin:miter;stroke-width:0.2;"/>
   </g>
   <g id="patch_22">
    <path clip-path="url(#p12897fdd74)" d="M 164.907431 154.152 
C 167.790719 154.152 170.556303 153.006457 172.595096 150.967665 
C 174.633888 148.928872 175.779431 146.163288 175.779431 143.28 
C 175.779431 140.396712 174.633888 137.631128 172.595096 135.592335 
C 170.556303 133.553543 167.790719 132.408 164.907431 132.408 
C 162.024143 132.408 159.258559 133.553543 157.219766 135.592335 
C 155.180973 137.631128 154.035431 140.396712 154.035431 143.28 
C 154.035431 146.163288 155.180973 148.928872 157.219766 150.967665 
C 159.258559 153.006457 162.024143 154.152 164.907431 154.152 
z
" style="fill:none;stroke:#000000;stroke-linejoin:miter;stroke-width:0.2;"/>
   </g>
   <g id="patch_23">
    <path clip-path="url(#p12897fdd74)" d="M 259.061713 121.536 
C 261.945001 121.536 264.710585 120.390457 266.749378 118.351665 
C 268.78817 116.312872 269.933713 113.547288 269.933713 110.664 
C 269.933713 107.780712 268.78817 105.015128 266.749378 102.976335 
C 264.710585 100.937543 261.945001 99.792 259.061713 99.792 
C 256.178425 99.792 253.41284 100.937543 251.374048 102.976335 
C 249.335255 105.015128 248.189713 107.780712 248.189713 110.664 
C 248.189713 113.547288 249.335255 116.312872 251.374048 118.351665 
C 253.41284 120.390457 256.178425 121.536 259.061713 121.536 
z
" style="fill:none;stroke:#000000;stroke-linejoin:miter;stroke-width:0.2;"/>
   </g>
   <g id="patch_24">
    <path clip-path="url(#p12897fdd74)" d="M 259.061713 186.768 
C 261.945001 186.768 264.710585 185.622457 266.749378 183.583665 
C 268.78817 181.544872 269.933713 178.779288 269.933713 175.896 
C 269.933713 173.012712 268.78817 170.247128 266.749378 168.208335 
C 264.710585 166.169543 261.945001 165.024 259.061713 165.024 
C 256.178425 165.024 253.41284 166.169543 251.374048 168.208335 
C 249.335255 170.247128 248.189713 173.012712 248.189713 175.896 
C 248.189713 178.779288 249.335255 181.544872 251.374048 183.583665 
C 253.41284 185.622457 256.178425 186.768 259.061713 186.768 
z
" style="fill:none;stroke:#000000;stroke-linejoin:miter;stroke-width:0.2;"/>
   </g>
   <g id="patch_25">
    <path clip-path="url(#p12897fdd74)" d="M 277.892569 154.152 
C 280.775857 154.152 283.541441 153.006457 285.580234 150.967665 
C 287.619027 148.928872 288.764569 146.163288 288.764569 143.28 
C 288.764569 140.396712 287.619027 137.631128 285.580234 135.592335 
C 283.541441 133.553543 280.775857 132.408 277.892569 132.408 
C 275.009281 132.408 272.243697 133.553543 270.204904 135.592335 
C 268.166112 137.631128 267.020569 140.396712 267.020569 143.28 
C 267.020569 146.163288 268.166112 148.928872 270.204904 150.967665 
C 272.243697 153.006457 275.009281 154.152 277.892569 154.152 
z
" style="fill:none;stroke:#000000;stroke-linejoin:miter;stroke-width:0.2;"/>
   </g>
   <g id="patch_26">
    <path clip-path="url(#p12897fdd74)" d="M 221.4 99.792 
C 224.283288 99.792 227.048872 98.646457 229.087665 96.607665 
C 231.126457 94.568872 232.272 91.803288 232.272 88.92 
C 232.272 86.036712 231.126457 83.271128 229.087665 81.232335 
C 227.048872 79.193543 224.283288 78.048 221.4 78.048 
C 218.516712 78.048 215.751128 79.193543 213.712335 81.232335 
C 211.673543 83.271128 210.528 86.036712 210.528 88.92 
C 210.528 91.803288 211.673543 94.568872 213.712335 96.607665 
C 215.751128 98.646457 218.516712 99.792 221.4 99.792 
z
" style="fill:none;stroke:#000000;stroke-linejoin:miter;stroke-width:0.2;"/>
   </g>
   <g id="patch_27">
    <path clip-path="url(#p12897fdd74)" d="M 164.907431 132.408 
C 167.790719 132.408 170.556303 131.262457 172.595096 129.223665 
C 174.633888 127.184872 175.779431 124.419288 175.779431 121.536 
C 175.779431 118.652712 174.633888 115.887128 172.595096 113.848335 
C 170.556303 111.809543 167.790719 110.664 164.907431 110.664 
C 162.024143 110.664 159.258559 111.809543 157.219766 113.848335 
C 155.180973 115.887128 154.035431 118.652712 154.035431 121.536 
C 154.035431 124.419288 155.180973 127.184872 157.219766 129.223665 
C 159.258559 131.262457 162.024143 132.408 164.907431 132.408 
z
" style="fill:none;stroke:#000000;stroke-linejoin:miter;stroke-width:0.2;"/>
   </g>
   <g id="patch_28">
    <path clip-path="url(#p12897fdd74)" d="M 183.738287 99.792 
C 186.621575 99.792 189.38716 98.646457 191.425952 96.607665 
C 193.464745 94.568872 194.610287 91.803288 194.610287 88.92 
C 194.610287 86.036712 193.464745 83.271128 191.425952 81.232335 
C 189.38716 79.193543 186.621575 78.048 183.738287 78.048 
C 180.854999 78.048 178.089415 79.193543 176.050622 81.232335 
C 174.01183 83.271128 172.866287 86.036712 172.866287 88.92 
C 172.866287 91.803288 174.01183 94.568872 176.050622 96.607665 
C 178.089415 98.646457 180.854999 99.792 183.738287 99.792 
z
" style="fill:none;stroke:#000000;stroke-linejoin:miter;stroke-width:0.2;"/>
   </g>
   <g id="patch_29">
    <path clip-path="url(#p12897fdd74)" d="M 221.4 208.512 
C 224.283288 208.512 227.048872 207.366457 229.087665 205.327665 
C 231.126457 203.288872 232.272 200.523288 232.272 197.64 
C 232.272 194.756712 231.126457 191.991128 229.087665 189.952335 
C 227.048872 187.913543 224.283288 186.768 221.4 186.768 
C 218.516712 186.768 215.751128 187.913543 213.712335 189.952335 
C 211.673543 191.991128 210.528 194.756712 210.528 197.64 
C 210.528 200.523288 211.673543 203.288872 213.712335 205.327665 
C 215.751128 207.366457 218.516712 208.512 221.4 208.512 
z
" style="fill:none;stroke:#000000;stroke-linejoin:miter;stroke-width:0.2;"/>
   </g>
   <g id="patch_30">
    <path clip-path="url(#p12897fdd74)" d="M 164.907431 175.896 
C 167.790719 175.896 170.556303 174.750457 172.595096 172.711665 
C 174.633888 170.672872 175.779431 167.907288 175.779431 165.024 
C 175.779431 162.140712 174.633888 159.375128 172.595096 157.336335 
C 170.556303 155.297543 167.790719 154.152 164.907431 154.152 
C 162.024143 154.152 159.258559 155.297543 157.219766 157.336335 
C 155.180973 159.375128 154.035431 162.140712 154.035431 165.024 
C 154.035431 167.907288 155.180973 170.672872 157.219766 172.711665 
C 159.258559 174.750457 162.024143 175.896 164.907431 175.896 
z
" style="fill:none;stroke:#000000;stroke-linejoin:miter;stroke-width:0.2;"/>
   </g>
   <g id="patch_31">
    <path clip-path="url(#p12897fdd74)" d="M 183.738287 208.512 
C 186.621575 208.512 189.38716 207.366457 191.425952 205.327665 
C 193.464745 203.288872 194.610287 200.523288 194.610287 197.64 
C 194.610287 194.756712 193.464745 191.991128 191.425952 189.952335 
C 189.38716 187.913543 186.621575 186.768 183.738287 186.768 
C 180.854999 186.768 178.089415 187.913543 176.050622 189.952335 
C 174.01183 191.991128 172.866287 194.756712 172.866287 197.64 
C 172.866287 200.523288 174.01183 203.288872 176.050622 205.327665 
C 178.089415 207.366457 180.854999 208.512 183.738287 208.512 
z
" style="fill:none;stroke:#000000;stroke-linejoin:miter;stroke-width:0.2;"/>
   </g>
   <g id="patch_32">
    <path clip-path="url(#p12897fdd74)" d="M 277.892569 132.408 
C 280.775857 132.408 283.541441 131.262457 285.580234 129.223665 
C 287.619027 127.184872 288.764569 124.419288 288.764569 121.536 
C 288.764569 118.652712 287.619027 115.887128 285.580234 113.848335 
C 283.541441 111.809543 280.775857 110.664 277.892569 110.664 
C 275.009281 110.664 272.243697 111.809543 270.204904 113.848335 
C 268.166112 115.887128 267.020569 118.652712 267.020569 121.536 
C 267.020569 124.419288 268.166112 127.184872 270.204904 129.223665 
C 272.243697 131.262457 275.009281 132.408 277.892569 132.408 
z
" style="fill:none;stroke:#000000;stroke-linejoin:miter;stroke-width:0.2;"/>
   </g>
   <g id="patch_33">
    <path clip-path="url(#p12897fdd74)" d="M 259.061713 99.792 
C 261.945001 99.792 264.710585 98.646457 266.749378 96.607665 
C 268.78817 94.568872 269.933713 91.803288 269.933713 88.92 
C 269.933713 86.036712 268.78817 83.271128 266.749378 81.232335 
C 264.710585 79.193543 261.945001 78.048 259.061713 78.048 
C 256.178425 78.048 253.41284 79.193543 251.374048 81.232335 
C 249.335255 83.271128 248.189713 86.036712 248.189713 88.92 
C 248.189713 91.803288 249.335255 94.568872 251.374048 96.607665 
C 253.41284 98.646457 256.178425 99.792 259.061713 99.792 
z
" style="fill:none;stroke:#000000;stroke-linejoin:miter;stroke-width:0.2;"/>
   </g>
   <g id="patch_34">
    <path clip-path="url(#p12897fdd74)" d="M 277.892569 175.896 
C 280.775857 175.896 283.541441 174.750457 285.580234 172.711665 
C 287.619027 170.672872 288.764569 167.907288 288.764569 165.024 
C 288.764569 162.140712 287.619027 159.375128 285.580234 157.336335 
C 283.541441 155.297543 280.775857 154.152 277.892569 154.152 
C 275.009281 154.152 272.243697 155.297543 270.204904 157.336335 
C 268.166112 159.375128 267.020569 162.140712 267.020569 165.024 
C 267.020569 167.907288 268.166112 170.672872 270.204904 172.711665 
C 272.243697 174.750457 275.009281 175.896 277.892569 175.896 
z
" style="fill:none;stroke:#000000;stroke-linejoin:miter;stroke-width:0.2;"/>
   </g>
   <g id="patch_35">
    <path clip-path="url(#p12897fdd74)" d="M 259.061713 208.512 
C 261.945001 208.512 264.710585 207.366457 266.749378 205.327665 
C 268.78817 203.288872 269.933713 200.523288 269.933713 197.64 
C 269.933713 194.756712 268.78817 191.991128 266.749378 189.952335 
C 264.710585 187.913543 261.945001 186.768 259.061713 186.768 
C 256.178425 186.768 253.41284 187.913543 251.374048 189.952335 
C 249.335255 191.991128 248.189713 194.756712 248.189713 197.64 
C 248.189713 200.523288 249.335255 203.288872 251.374048 205.327665 
C 253.41284 207.366457 256.178425 208.512 259.061713 208.512 
z
" style="fill:none;stroke:#000000;stroke-linejoin:miter;stroke-width:0.2;"/>
   </g>
   <g id="patch_36">
    <path clip-path="url(#p12897fdd74)" d="M 202.569144 88.92 
C 205.452432 88.92 208.218016 87.774457 210.256809 85.735665 
C 212.295601 83.696872 213.441144 80.931288 213.441144 78.048 
C 213.441144 75.164712 212.295601 72.399128 210.256809 70.360335 
C 208.218016 68.321543 205.452432 67.176 202.569144 67.176 
C 199.685856 67.176 196.920271 68.321543 194.881479 70.360335 
C 192.842686 72.399128 191.697144 75.164712 191.697144 78.048 
C 191.697144 80.931288 192.842686 83.696872 194.881479 85.735665 
C 196.920271 87.774457 199.685856 88.92 202.569144 88.92 
z
" style="fill:none;stroke:#000000;stroke-linejoin:miter;stroke-width:0.2;"/>
   </g>
   <g id="patch_37">
    <path clip-path="url(#p12897fdd74)" d="M 240.230856 88.92 
C 243.114144 88.92 245.879729 87.774457 247.918521 85.735665 
C 249.957314 83.696872 251.102856 80.931288 251.102856 78.048 
C 251.102856 75.164712 249.957314 72.399128 247.918521 70.360335 
C 245.879729 68.321543 243.114144 67.176 240.230856 67.176 
C 237.347568 67.176 234.581984 68.321543 232.543191 70.360335 
C 230.504399 72.399128 229.358856 75.164712 229.358856 78.048 
C 229.358856 80.931288 230.504399 83.696872 232.543191 85.735665 
C 234.581984 87.774457 237.347568 88.92 240.230856 88.92 
z
" style="fill:none;stroke:#000000;stroke-linejoin:miter;stroke-width:0.2;"/>
   </g>
   <g id="patch_38">
    <path clip-path="url(#p12897fdd74)" d="M 164.907431 110.664 
C 167.790719 110.664 170.556303 109.518457 172.595096 107.479665 
C 174.633888 105.440872 175.779431 102.675288 175.779431 99.792 
C 175.779431 96.908712 174.633888 94.143128 172.595096 92.104335 
C 170.556303 90.065543 167.790719 88.92 164.907431 88.92 
C 162.024143 88.92 159.258559 90.065543 157.219766 92.104335 
C 155.180973 94.143128 154.035431 96.908712 154.035431 99.792 
C 154.035431 102.675288 155.180973 105.440872 157.219766 107.479665 
C 159.258559 109.518457 162.024143 110.664 164.907431 110.664 
z
" style="fill:none;stroke:#000000;stroke-linejoin:miter;stroke-width:0.2;"/>
   </g>
   <g id="patch_39">
    <path clip-path="url(#p12897fdd74)" d="M 146.076574 143.28 
C 148.959863 143.28 151.725447 142.134457 153.764239 140.095665 
C 155.803032 138.056872 156.948574 135.291288 156.948574 132.408 
C 156.948574 129.524712 155.803032 126.759128 153.764239 124.720335 
C 151.725447 122.681543 148.959863 121.536 146.076574 121.536 
C 143.193286 121.536 140.427702 122.681543 138.38891 124.720335 
C 136.350117 126.759128 135.204574 129.524712 135.204574 132.408 
C 135.204574 135.291288 136.350117 138.056872 138.38891 140.095665 
C 140.427702 142.134457 143.193286 143.28 146.076574 143.28 
z
" style="fill:none;stroke:#000000;stroke-linejoin:miter;stroke-width:0.2;"/>
   </g>
   <g id="patch_40">
    <path clip-path="url(#p12897fdd74)" d="M 202.569144 219.384 
C 205.452432 219.384 208.218016 218.238457 210.256809 216.199665 
C 212.295601 214.160872 213.441144 211.395288 213.441144 208.512 
C 213.441144 205.628712 212.295601 202.863128 210.256809 200.824335 
C 208.218016 198.785543 205.452432 197.64 202.569144 197.64 
C 199.685856 197.64 196.920271 198.785543 194.881479 200.824335 
C 192.842686 202.863128 191.697144 205.628712 191.697144 208.512 
C 191.697144 211.395288 192.842686 214.160872 194.881479 216.199665 
C 196.920271 218.238457 199.685856 219.384 202.569144 219.384 
z
" style="fill:none;stroke:#000000;stroke-linejoin:miter;stroke-width:0.2;"/>
   </g>
   <g id="patch_41">
    <path clip-path="url(#p12897fdd74)" d="M 240.230856 219.384 
C 243.114144 219.384 245.879729 218.238457 247.918521 216.199665 
C 249.957314 214.160872 251.102856 211.395288 251.102856 208.512 
C 251.102856 205.628712 249.957314 202.863128 247.918521 200.824335 
C 245.879729 198.785543 243.114144 197.64 240.230856 197.64 
C 237.347568 197.64 234.581984 198.785543 232.543191 200.824335 
C 230.504399 202.863128 229.358856 205.628712 229.358856 208.512 
C 229.358856 211.395288 230.504399 214.160872 232.543191 216.199665 
C 234.581984 218.238457 237.347568 219.384 240.230856 219.384 
z
" style="fill:none;stroke:#000000;stroke-linejoin:miter;stroke-width:0.2;"/>
   </g>
   <g id="patch_42">
    <path clip-path="url(#p12897fdd74)" d="M 164.907431 197.64 
C 167.790719 197.64 170.556303 196.494457 172.595096 194.455665 
C 174.633888 192.416872 175.779431 189.651288 175.779431 186.768 
C 175.779431 183.884712 174.633888 181.119128 172.595096 179.080335 
C 170.556303 177.041543 167.790719 175.896 164.907431 175.896 
C 162.024143 175.896 159.258559 177.041543 157.219766 179.080335 
C 155.180973 181.119128 154.035431 183.884712 154.035431 186.768 
C 154.035431 189.651288 155.180973 192.416872 157.219766 194.455665 
C 159.258559 196.494457 162.024143 197.64 164.907431 197.64 
z
" style="fill:none;stroke:#000000;stroke-linejoin:miter;stroke-width:0.2;"/>
   </g>
   <g id="patch_43">
    <path clip-path="url(#p12897fdd74)" d="M 146.076574 165.024 
C 148.959863 165.024 151.725447 163.878457 153.764239 161.839665 
C 155.803032 159.800872 156.948574 157.035288 156.948574 154.152 
C 156.948574 151.268712 155.803032 148.503128 153.764239 146.464335 
C 151.725447 144.425543 148.959863 143.28 146.076574 143.28 
C 143.193286 143.28 140.427702 144.425543 138.38891 146.464335 
C 136.350117 148.503128 135.204574 151.268712 135.204574 154.152 
C 135.204574 157.035288 136.350117 159.800872 138.38891 161.839665 
C 140.427702 163.878457 143.193286 165.024 146.076574 165.024 
z
" style="fill:none;stroke:#000000;stroke-linejoin:miter;stroke-width:0.2;"/>
   </g>
   <g id="patch_44">
    <path clip-path="url(#p12897fdd74)" d="M 277.892569 110.664 
C 280.775857 110.664 283.541441 109.518457 285.580234 107.479665 
C 287.619027 105.440872 288.764569 102.675288 288.764569 99.792 
C 288.764569 96.908712 287.619027 94.143128 285.580234 92.104335 
C 283.541441 90.065543 280.775857 88.92 277.892569 88.92 
C 275.009281 88.92 272.243697 90.065543 270.204904 92.104335 
C 268.166112 94.143128 267.020569 96.908712 267.020569 99.792 
C 267.020569 102.675288 268.166112 105.440872 270.204904 107.479665 
C 272.243697 109.518457 275.009281 110.664 277.892569 110.664 
z
" style="fill:none;stroke:#000000;stroke-linejoin:miter;stroke-width:0.2;"/>
   </g>
   <g id="patch_45">
    <path clip-path="url(#p12897fdd74)" d="M 296.723426 143.28 
C 299.606714 143.28 302.372298 142.134457 304.41109 140.095665 
C 306.449883 138.056872 307.595426 135.291288 307.595426 132.408 
C 307.595426 129.524712 306.449883 126.759128 304.41109 124.720335 
C 302.372298 122.681543 299.606714 121.536 296.723426 121.536 
C 293.840137 121.536 291.074553 122.681543 289.035761 124.720335 
C 286.996968 126.759128 285.851426 129.524712 285.851426 132.408 
C 285.851426 135.291288 286.996968 138.056872 289.035761 140.095665 
C 291.074553 142.134457 293.840137 143.28 296.723426 143.28 
z
" style="fill:none;stroke:#000000;stroke-linejoin:miter;stroke-width:0.2;"/>
   </g>
   <g id="patch_46">
    <path clip-path="url(#p12897fdd74)" d="M 277.892569 197.64 
C 280.775857 197.64 283.541441 196.494457 285.580234 194.455665 
C 287.619027 192.416872 288.764569 189.651288 288.764569 186.768 
C 288.764569 183.884712 287.619027 181.119128 285.580234 179.080335 
C 283.541441 177.041543 280.775857 175.896 277.892569 175.896 
C 275.009281 175.896 272.243697 177.041543 270.204904 179.080335 
C 268.166112 181.119128 267.020569 183.884712 267.020569 186.768 
C 267.020569 189.651288 268.166112 192.416872 270.204904 194.455665 
C 272.243697 196.494457 275.009281 197.64 277.892569 197.64 
z
" style="fill:none;stroke:#000000;stroke-linejoin:miter;stroke-width:0.2;"/>
   </g>
   <g id="patch_47">
    <path clip-path="url(#p12897fdd74)" d="M 296.723426 165.024 
C 299.606714 165.024 302.372298 163.878457 304.41109 161.839665 
C 306.449883 159.800872 307.595426 157.035288 307.595426 154.152 
C 307.595426 151.268712 306.449883 148.503128 304.41109 146.464335 
C 302.372298 144.425543 299.606714 143.28 296.723426 143.28 
C 293.840137 143.28 291.074553 144.425543 289.035761 146.464335 
C 286.996968 148.503128 285.851426 151.268712 285.851426 154.152 
C 285.851426 157.035288 286.996968 159.800872 289.035761 161.839665 
C 291.074553 163.878457 293.840137 165.024 296.723426 165.024 
z
" style="fill:none;stroke:#000000;stroke-linejoin:miter;stroke-width:0.2;"/>
   </g>
   <g id="patch_48">
    <path clip-path="url(#p12897fdd74)" d="M 221.4 78.048 
C 224.283288 78.048 227.048872 76.902457 229.087665 74.863665 
C 231.126457 72.824872 232.272 70.059288 232.272 67.176 
C 232.272 64.292712 231.126457 61.527128 229.087665 59.488335 
C 227.048872 57.449543 224.283288 56.304 221.4 56.304 
C 218.516712 56.304 215.751128 57.449543 213.712335 59.488335 
C 211.673543 61.527128 210.528 64.292712 210.528 67.176 
C 210.528 70.059288 211.673543 72.824872 213.712335 74.863665 
C 215.751128 76.902457 218.516712 78.048 221.4 78.048 
z
" style="fill:none;stroke:#000000;stroke-linejoin:miter;stroke-width:0.2;"/>
   </g>
   <g id="patch_49">
    <path clip-path="url(#p12897fdd74)" d="M 183.738287 78.048 
C 186.621575 78.048 189.38716 76.902457 191.425952 74.863665 
C 193.464745 72.824872 194.610287 70.059288 194.610287 67.176 
C 194.610287 64.292712 193.464745 61.527128 191.425952 59.488335 
C 189.38716 57.449543 186.621575 56.304 183.738287 56.304 
C 180.854999 56.304 178.089415 57.449543 176.050622 59.488335 
C 174.01183 61.527128 172.866287 64.292712 172.866287 67.176 
C 172.866287 70.059288 174.01183 72.824872 176.050622 74.863665 
C 178.089415 76.902457 180.854999 78.048 183.738287 78.048 
z
" style="fill:none;stroke:#000000;stroke-linejoin:miter;stroke-width:0.2;"/>
   </g>
   <g id="patch_50">
    <path clip-path="url(#p12897fdd74)" d="M 259.061713 78.048 
C 261.945001 78.048 264.710585 76.902457 266.749378 74.863665 
C 268.78817 72.824872 269.933713 70.059288 269.933713 67.176 
C 269.933713 64.292712 268.78817 61.527128 266.749378 59.488335 
C 264.710585 57.449543 261.945001 56.304 259.061713 56.304 
C 256.178425 56.304 253.41284 57.449543 251.374048 59.488335 
C 249.335255 61.527128 248.189713 64.292712 248.189713 67.176 
C 248.189713 70.059288 249.335255 72.824872 251.374048 74.863665 
C 253.41284 76.902457 256.178425 78.048 259.061713 78.048 
z
" style="fill:none;stroke:#000000;stroke-linejoin:miter;stroke-width:0.2;"/>
   </g>
   <g id="patch_51">
    <path clip-path="url(#p12897fdd74)" d="M 146.076574 121.536 
C 148.959863 121.536 151.725447 120.390457 153.764239 118.351665 
C 155.803032 116.312872 156.948574 113.547288 156.948574 110.664 
C 156.948574 107.780712 155.803032 105.015128 153.764239 102.976335 
C 151.725447 100.937543 148.959863 99.792 146.076574 99.792 
C 143.193286 99.792 140.427702 100.937543 138.38891 102.976335 
C 136.350117 105.015128 135.204574 107.780712 135.204574 110.664 
C 135.204574 113.547288 136.350117 116.312872 138.38891 118.351665 
C 140.427702 120.390457 143.193286 121.536 146.076574 121.536 
z
" style="fill:none;stroke:#000000;stroke-linejoin:miter;stroke-width:0.2;"/>
   </g>
   <g id="patch_52">
    <path clip-path="url(#p12897fdd74)" d="M 164.907431 88.92 
C 167.790719 88.92 170.556303 87.774457 172.595096 85.735665 
C 174.633888 83.696872 175.779431 80.931288 175.779431 78.048 
C 175.779431 75.164712 174.633888 72.399128 172.595096 70.360335 
C 170.556303 68.321543 167.790719 67.176 164.907431 67.176 
C 162.024143 67.176 159.258559 68.321543 157.219766 70.360335 
C 155.180973 72.399128 154.035431 75.164712 154.035431 78.048 
C 154.035431 80.931288 155.180973 83.696872 157.219766 85.735665 
C 159.258559 87.774457 162.024143 88.92 164.907431 88.92 
z
" style="fill:none;stroke:#000000;stroke-linejoin:miter;stroke-width:0.2;"/>
   </g>
   <g id="patch_53">
    <path clip-path="url(#p12897fdd74)" d="M 221.4 230.256 
C 224.283288 230.256 227.048872 229.110457 229.087665 227.071665 
C 231.126457 225.032872 232.272 222.267288 232.272 219.384 
C 232.272 216.500712 231.126457 213.735128 229.087665 211.696335 
C 227.048872 209.657543 224.283288 208.512 221.4 208.512 
C 218.516712 208.512 215.751128 209.657543 213.712335 211.696335 
C 211.673543 213.735128 210.528 216.500712 210.528 219.384 
C 210.528 222.267288 211.673543 225.032872 213.712335 227.071665 
C 215.751128 229.110457 218.516712 230.256 221.4 230.256 
z
" style="fill:none;stroke:#000000;stroke-linejoin:miter;stroke-width:0.2;"/>
   </g>
   <g id="patch_54">
    <path clip-path="url(#p12897fdd74)" d="M 183.738287 230.256 
C 186.621575 230.256 189.38716 229.110457 191.425952 227.071665 
C 193.464745 225.032872 194.610287 222.267288 194.610287 219.384 
C 194.610287 216.500712 193.464745 213.735128 191.425952 211.696335 
C 189.38716 209.657543 186.621575 208.512 183.738287 208.512 
C 180.854999 208.512 178.089415 209.657543 176.050622 211.696335 
C 174.01183 213.735128 172.866287 216.500712 172.866287 219.384 
C 172.866287 222.267288 174.01183 225.032872 176.050622 227.071665 
C 178.089415 229.110457 180.854999 230.256 183.738287 230.256 
z
" style="fill:none;stroke:#000000;stroke-linejoin:miter;stroke-width:0.2;"/>
   </g>
   <g id="patch_55">
    <path clip-path="url(#p12897fdd74)" d="M 259.061713 230.256 
C 261.945001 230.256 264.710585 229.110457 266.749378 227.071665 
C 268.78817 225.032872 269.933713 222.267288 269.933713 219.384 
C 269.933713 216.500712 268.78817 213.735128 266.749378 211.696335 
C 264.710585 209.657543 261.945001 208.512 259.061713 208.512 
C 256.178425 208.512 253.41284 209.657543 251.374048 211.696335 
C 249.335255 213.735128 248.189713 216.500712 248.189713 219.384 
C 248.189713 222.267288 249.335255 225.032872 251.374048 227.071665 
C 253.41284 229.110457 256.178425 230.256 259.061713 230.256 
z
" style="fill:none;stroke:#000000;stroke-linejoin:miter;stroke-width:0.2;"/>
   </g>
   <g id="patch_56">
    <path clip-path="url(#p12897fdd74)" d="M 146.076574 186.768 
C 148.959863 186.768 151.725447 185.622457 153.764239 183.583665 
C 155.803032 181.544872 156.948574 178.779288 156.948574 175.896 
C 156.948574 173.012712 155.803032 170.247128 153.764239 168.208335 
C 151.725447 166.169543 148.959863 165.024 146.076574 165.024 
C 143.193286 165.024 140.427702 166.169543 138.38891 168.208335 
C 136.350117 170.247128 135.204574 173.012712 135.204574 175.896 
C 135.204574 178.779288 136.350117 181.544872 138.38891 183.583665 
C 140.427702 185.622457 143.193286 186.768 146.076574 186.768 
z
" style="fill:none;stroke:#000000;stroke-linejoin:miter;stroke-width:0.2;"/>
   </g>
   <g id="patch_57">
    <path clip-path="url(#p12897fdd74)" d="M 164.907431 219.384 
C 167.790719 219.384 170.556303 218.238457 172.595096 216.199665 
C 174.633888 214.160872 175.779431 211.395288 175.779431 208.512 
C 175.779431 205.628712 174.633888 202.863128 172.595096 200.824335 
C 170.556303 198.785543 167.790719 197.64 164.907431 197.64 
C 162.024143 197.64 159.258559 198.785543 157.219766 200.824335 
C 155.180973 202.863128 154.035431 205.628712 154.035431 208.512 
C 154.035431 211.395288 155.180973 214.160872 157.219766 216.199665 
C 159.258559 218.238457 162.024143 219.384 164.907431 219.384 
z
" style="fill:none;stroke:#000000;stroke-linejoin:miter;stroke-width:0.2;"/>
   </g>
   <g id="patch_58">
    <path clip-path="url(#p12897fdd74)" d="M 127.245718 154.152 
C 130.129006 154.152 132.89459 153.006457 134.933383 150.967665 
C 136.972176 148.928872 138.117718 146.163288 138.117718 143.28 
C 138.117718 140.396712 136.972176 137.631128 134.933383 135.592335 
C 132.89459 133.553543 130.129006 132.408 127.245718 132.408 
C 124.36243 132.408 121.596846 133.553543 119.558053 135.592335 
C 117.519261 137.631128 116.373718 140.396712 116.373718 143.28 
C 116.373718 146.163288 117.519261 148.928872 119.558053 150.967665 
C 121.596846 153.006457 124.36243 154.152 127.245718 154.152 
z
" style="fill:none;stroke:#000000;stroke-linejoin:miter;stroke-width:0.2;"/>
   </g>
   <g id="patch_59">
    <path clip-path="url(#p12897fdd74)" d="M 296.723426 121.536 
C 299.606714 121.536 302.372298 120.390457 304.41109 118.351665 
C 306.449883 116.312872 307.595426 113.547288 307.595426 110.664 
C 307.595426 107.780712 306.449883 105.015128 304.41109 102.976335 
C 302.372298 100.937543 299.606714 99.792 296.723426 99.792 
C 293.840137 99.792 291.074553 100.937543 289.035761 102.976335 
C 286.996968 105.015128 285.851426 107.780712 285.851426 110.664 
C 285.851426 113.547288 286.996968 116.312872 289.035761 118.351665 
C 291.074553 120.390457 293.840137 121.536 296.723426 121.536 
z
" style="fill:none;stroke:#000000;stroke-linejoin:miter;stroke-width:0.2;"/>
   </g>
   <g id="patch_60">
    <path clip-path="url(#p12897fdd74)" d="M 277.892569 88.92 
C 280.775857 88.92 283.541441 87.774457 285.580234 85.735665 
C 287.619027 83.696872 288.764569 80.931288 288.764569 78.048 
C 288.764569 75.164712 287.619027 72.399128 285.580234 70.360335 
C 283.541441 68.321543 280.775857 67.176 277.892569 67.176 
C 275.009281 67.176 272.243697 68.321543 270.204904 70.360335 
C 268.166112 72.399128 267.020569 75.164712 267.020569 78.048 
C 267.020569 80.931288 268.166112 83.696872 270.204904 85.735665 
C 272.243697 87.774457 275.009281 88.92 277.892569 88.92 
z
" style="fill:none;stroke:#000000;stroke-linejoin:miter;stroke-width:0.2;"/>
   </g>
   <g id="patch_61">
    <path clip-path="url(#p12897fdd74)" d="M 296.723426 186.768 
C 299.606714 186.768 302.372298 185.622457 304.41109 183.583665 
C 306.449883 181.544872 307.595426 178.779288 307.595426 175.896 
C 307.595426 173.012712 306.449883 170.247128 304.41109 168.208335 
C 302.372298 166.169543 299.606714 165.024 296.723426 165.024 
C 293.840137 165.024 291.074553 166.169543 289.035761 168.208335 
C 286.996968 170.247128 285.851426 173.012712 285.851426 175.896 
C 285.851426 178.779288 286.996968 181.544872 289.035761 183.583665 
C 291.074553 185.622457 293.840137 186.768 296.723426 186.768 
z
" style="fill:none;stroke:#000000;stroke-linejoin:miter;stroke-width:0.2;"/>
   </g>
   <g id="patch_62">
    <path clip-path="url(#p12897fdd74)" d="M 277.892569 219.384 
C 280.775857 219.384 283.541441 218.238457 285.580234 216.199665 
C 287.619027 214.160872 288.764569 211.395288 288.764569 208.512 
C 288.764569 205.628712 287.619027 202.863128 285.580234 200.824335 
C 283.541441 198.785543 280.775857 197.64 277.892569 197.64 
C 275.009281 197.64 272.243697 198.785543 270.204904 200.824335 
C 268.166112 202.863128 267.020569 205.628712 267.020569 208.512 
C 267.020569 211.395288 268.166112 214.160872 270.204904 216.199665 
C 272.243697 218.238457 275.009281 219.384 277.892569 219.384 
z
" style="fill:none;stroke:#000000;stroke-linejoin:miter;stroke-width:0.2;"/>
   </g>
   <g id="patch_63">
    <path clip-path="url(#p12897fdd74)" d="M 315.554282 154.152 
C 318.43757 154.152 321.203154 153.006457 323.241947 150.967665 
C 325.280739 148.928872 326.426282 146.163288 326.426282 143.28 
C 326.426282 140.396712 325.280739 137.631128 323.241947 135.592335 
C 321.203154 133.553543 318.43757 132.408 315.554282 132.408 
C 312.670994 132.408 309.90541 133.553543 307.866617 135.592335 
C 305.827824 137.631128 304.682282 140.396712 304.682282 143.28 
C 304.682282 146.163288 305.827824 148.928872 307.866617 150.967665 
C 309.90541 153.006457 312.670994 154.152 315.554282 154.152 
z
" style="fill:none;stroke:#000000;stroke-linejoin:miter;stroke-width:0.2;"/>
   </g>
   <g id="patch_64">
    <path clip-path="url(#p12897fdd74)" d="M 202.569144 67.176 
C 205.452432 67.176 208.218016 66.030457 210.256809 63.991665 
C 212.295601 61.952872 213.441144 59.187288 213.441144 56.304 
C 213.441144 53.420712 212.295601 50.655128 210.256809 48.616335 
C 208.218016 46.577543 205.452432 45.432 202.569144 45.432 
C 199.685856 45.432 196.920271 46.577543 194.881479 48.616335 
C 192.842686 50.655128 191.697144 53.420712 191.697144 56.304 
C 191.697144 59.187288 192.842686 61.952872 194.881479 63.991665 
C 196.920271 66.030457 199.685856 67.176 202.569144 67.176 
z
" style="fill:none;stroke:#000000;stroke-linejoin:miter;stroke-width:0.2;"/>
   </g>
   <g id="patch_65">
    <path clip-path="url(#p12897fdd74)" d="M 240.230856 67.176 
C 243.114144 67.176 245.879729 66.030457 247.918521 63.991665 
C 249.957314 61.952872 251.102856 59.187288 251.102856 56.304 
C 251.102856 53.420712 249.957314 50.655128 247.918521 48.616335 
C 245.879729 46.577543 243.114144 45.432 240.230856 45.432 
C 237.347568 45.432 234.581984 46.577543 232.543191 48.616335 
C 230.504399 50.655128 229.358856 53.420712 229.358856 56.304 
C 229.358856 59.187288 230.504399 61.952872 232.543191 63.991665 
C 234.581984 66.030457 237.347568 67.176 240.230856 67.176 
z
" style="fill:none;stroke:#000000;stroke-linejoin:miter;stroke-width:0.2;"/>
   </g>
   <g id="patch_66">
    <path clip-path="url(#p12897fdd74)" d="M 146.076574 99.792 
C 148.959863 99.792 151.725447 98.646457 153.764239 96.607665 
C 155.803032 94.568872 156.948574 91.803288 156.948574 88.92 
C 156.948574 86.036712 155.803032 83.271128 153.764239 81.232335 
C 151.725447 79.193543 148.959863 78.048 146.076574 78.048 
C 143.193286 78.048 140.427702 79.193543 138.38891 81.232335 
C 136.350117 83.271128 135.204574 86.036712 135.204574 88.92 
C 135.204574 91.803288 136.350117 94.568872 138.38891 96.607665 
C 140.427702 98.646457 143.193286 99.792 146.076574 99.792 
z
" style="fill:none;stroke:#000000;stroke-linejoin:miter;stroke-width:0.2;"/>
   </g>
   <g id="patch_67">
    <path clip-path="url(#p12897fdd74)" d="M 127.245718 132.408 
C 130.129006 132.408 132.89459 131.262457 134.933383 129.223665 
C 136.972176 127.184872 138.117718 124.419288 138.117718 121.536 
C 138.117718 118.652712 136.972176 115.887128 134.933383 113.848335 
C 132.89459 111.809543 130.129006 110.664 127.245718 110.664 
C 124.36243 110.664 121.596846 111.809543 119.558053 113.848335 
C 117.519261 115.887128 116.373718 118.652712 116.373718 121.536 
C 116.373718 124.419288 117.519261 127.184872 119.558053 129.223665 
C 121.596846 131.262457 124.36243 132.408 127.245718 132.408 
z
" style="fill:none;stroke:#000000;stroke-linejoin:miter;stroke-width:0.2;"/>
   </g>
   <g id="patch_68">
    <path clip-path="url(#p12897fdd74)" d="M 164.907431 67.176 
C 167.790719 67.176 170.556303 66.030457 172.595096 63.991665 
C 174.633888 61.952872 175.779431 59.187288 175.779431 56.304 
C 175.779431 53.420712 174.633888 50.655128 172.595096 48.616335 
C 170.556303 46.577543 167.790719 45.432 164.907431 45.432 
C 162.024143 45.432 159.258559 46.577543 157.219766 48.616335 
C 155.180973 50.655128 154.035431 53.420712 154.035431 56.304 
C 154.035431 59.187288 155.180973 61.952872 157.219766 63.991665 
C 159.258559 66.030457 162.024143 67.176 164.907431 67.176 
z
" style="fill:none;stroke:#000000;stroke-linejoin:miter;stroke-width:0.2;"/>
   </g>
   <g id="patch_69">
    <path clip-path="url(#p12897fdd74)" d="M 202.569144 241.128 
C 205.452432 241.128 208.218016 239.982457 210.256809 237.943665 
C 212.295601 235.904872 213.441144 233.139288 213.441144 230.256 
C 213.441144 227.372712 212.295601 224.607128 210.256809 222.568335 
C 208.218016 220.529543 205.452432 219.384 202.569144 219.384 
C 199.685856 219.384 196.920271 220.529543 194.881479 222.568335 
C 192.842686 224.607128 191.697144 227.372712 191.697144 230.256 
C 191.697144 233.139288 192.842686 235.904872 194.881479 237.943665 
C 196.920271 239.982457 199.685856 241.128 202.569144 241.128 
z
" style="fill:none;stroke:#000000;stroke-linejoin:miter;stroke-width:0.2;"/>
   </g>
   <g id="patch_70">
    <path clip-path="url(#p12897fdd74)" d="M 240.230856 241.128 
C 243.114144 241.128 245.879729 239.982457 247.918521 237.943665 
C 249.957314 235.904872 251.102856 233.139288 251.102856 230.256 
C 251.102856 227.372712 249.957314 224.607128 247.918521 222.568335 
C 245.879729 220.529543 243.114144 219.384 240.230856 219.384 
C 237.347568 219.384 234.581984 220.529543 232.543191 222.568335 
C 230.504399 224.607128 229.358856 227.372712 229.358856 230.256 
C 229.358856 233.139288 230.504399 235.904872 232.543191 237.943665 
C 234.581984 239.982457 237.347568 241.128 240.230856 241.128 
z
" style="fill:none;stroke:#000000;stroke-linejoin:miter;stroke-width:0.2;"/>
   </g>
   <g id="patch_71">
    <path clip-path="url(#p12897fdd74)" d="M 146.076574 208.512 
C 148.959863 208.512 151.725447 207.366457 153.764239 205.327665 
C 155.803032 203.288872 156.948574 200.523288 156.948574 197.64 
C 156.948574 194.756712 155.803032 191.991128 153.764239 189.952335 
C 151.725447 187.913543 148.959863 186.768 146.076574 186.768 
C 143.193286 186.768 140.427702 187.913543 138.38891 189.952335 
C 136.350117 191.991128 135.204574 194.756712 135.204574 197.64 
C 135.204574 200.523288 136.350117 203.288872 138.38891 205.327665 
C 140.427702 207.366457 143.193286 208.512 146.076574 208.512 
z
" style="fill:none;stroke:#000000;stroke-linejoin:miter;stroke-width:0.2;"/>
   </g>
   <g id="patch_72">
    <path clip-path="url(#p12897fdd74)" d="M 127.245718 175.896 
C 130.129006 175.896 132.89459 174.750457 134.933383 172.711665 
C 136.972176 170.672872 138.117718 167.907288 138.117718 165.024 
C 138.117718 162.140712 136.972176 159.375128 134.933383 157.336335 
C 132.89459 155.297543 130.129006 154.152 127.245718 154.152 
C 124.36243 154.152 121.596846 155.297543 119.558053 157.336335 
C 117.519261 159.375128 116.373718 162.140712 116.373718 165.024 
C 116.373718 167.907288 117.519261 170.672872 119.558053 172.711665 
C 121.596846 174.750457 124.36243 175.896 127.245718 175.896 
z
" style="fill:none;stroke:#000000;stroke-linejoin:miter;stroke-width:0.2;"/>
   </g>
   <g id="patch_73">
    <path clip-path="url(#p12897fdd74)" d="M 164.907431 241.128 
C 167.790719 241.128 170.556303 239.982457 172.595096 237.943665 
C 174.633888 235.904872 175.779431 233.139288 175.779431 230.256 
C 175.779431 227.372712 174.633888 224.607128 172.595096 222.568335 
C 170.556303 220.529543 167.790719 219.384 164.907431 219.384 
C 162.024143 219.384 159.258559 220.529543 157.219766 222.568335 
C 155.180973 224.607128 154.035431 227.372712 154.035431 230.256 
C 154.035431 233.139288 155.180973 235.904872 157.219766 237.943665 
C 159.258559 239.982457 162.024143 241.128 164.907431 241.128 
z
" style="fill:none;stroke:#000000;stroke-linejoin:miter;stroke-width:0.2;"/>
   </g>
   <g id="patch_74">
    <path clip-path="url(#p12897fdd74)" d="M 296.723426 99.792 
C 299.606714 99.792 302.372298 98.646457 304.41109 96.607665 
C 306.449883 94.568872 307.595426 91.803288 307.595426 88.92 
C 307.595426 86.036712 306.449883 83.271128 304.41109 81.232335 
C 302.372298 79.193543 299.606714 78.048 296.723426 78.048 
C 293.840137 78.048 291.074553 79.193543 289.035761 81.232335 
C 286.996968 83.271128 285.851426 86.036712 285.851426 88.92 
C 285.851426 91.803288 286.996968 94.568872 289.035761 96.607665 
C 291.074553 98.646457 293.840137 99.792 296.723426 99.792 
z
" style="fill:none;stroke:#000000;stroke-linejoin:miter;stroke-width:0.2;"/>
   </g>
   <g id="patch_75">
    <path clip-path="url(#p12897fdd74)" d="M 315.554282 132.408 
C 318.43757 132.408 321.203154 131.262457 323.241947 129.223665 
C 325.280739 127.184872 326.426282 124.419288 326.426282 121.536 
C 326.426282 118.652712 325.280739 115.887128 323.241947 113.848335 
C 321.203154 111.809543 318.43757 110.664 315.554282 110.664 
C 312.670994 110.664 309.90541 111.809543 307.866617 113.848335 
C 305.827824 115.887128 304.682282 118.652712 304.682282 121.536 
C 304.682282 124.419288 305.827824 127.184872 307.866617 129.223665 
C 309.90541 131.262457 312.670994 132.408 315.554282 132.408 
z
" style="fill:none;stroke:#000000;stroke-linejoin:miter;stroke-width:0.2;"/>
   </g>
   <g id="patch_76">
    <path clip-path="url(#p12897fdd74)" d="M 277.892569 67.176 
C 280.775857 67.176 283.541441 66.030457 285.580234 63.991665 
C 287.619027 61.952872 288.764569 59.187288 288.764569 56.304 
C 288.764569 53.420712 287.619027 50.655128 285.580234 48.616335 
C 283.541441 46.577543 280.775857 45.432 277.892569 45.432 
C 275.009281 45.432 272.243697 46.577543 270.204904 48.616335 
C 268.166112 50.655128 267.020569 53.420712 267.020569 56.304 
C 267.020569 59.187288 268.166112 61.952872 270.204904 63.991665 
C 272.243697 66.030457 275.009281 67.176 277.892569 67.176 
z
" style="fill:none;stroke:#000000;stroke-linejoin:miter;stroke-width:0.2;"/>
   </g>
   <g id="patch_77">
    <path clip-path="url(#p12897fdd74)" d="M 296.723426 208.512 
C 299.606714 208.512 302.372298 207.366457 304.41109 205.327665 
C 306.449883 203.288872 307.595426 200.523288 307.595426 197.64 
C 307.595426 194.756712 306.449883 191.991128 304.41109 189.952335 
C 302.372298 187.913543 299.606714 186.768 296.723426 186.768 
C 293.840137 186.768 291.074553 187.913543 289.035761 189.952335 
C 286.996968 191.991128 285.851426 194.756712 285.851426 197.64 
C 285.851426 200.523288 286.996968 203.288872 289.035761 205.327665 
C 291.074553 207.366457 293.840137 208.512 296.723426 208.512 
z
" style="fill:none;stroke:#000000;stroke-linejoin:miter;stroke-width:0.2;"/>
   </g>
   <g id="patch_78">
    <path clip-path="url(#p12897fdd74)" d="M 315.554282 175.896 
C 318.43757 175.896 321.203154 174.750457 323.241947 172.711665 
C 325.280739 170.672872 326.426282 167.907288 326.426282 165.024 
C 326.426282 162.140712 325.280739 159.375128 323.241947 157.336335 
C 321.203154 155.297543 318.43757 154.152 315.554282 154.152 
C 312.670994 154.152 309.90541 155.297543 307.866617 157.336335 
C 305.827824 159.375128 304.682282 162.140712 304.682282 165.024 
C 304.682282 167.907288 305.827824 170.672872 307.866617 172.711665 
C 309.90541 174.750457 312.670994 175.896 315.554282 175.896 
z
" style="fill:none;stroke:#000000;stroke-linejoin:miter;stroke-width:0.2;"/>
   </g>
   <g id="patch_79">
    <path clip-path="url(#p12897fdd74)" d="M 277.892569 241.128 
C 280.775857 241.128 283.541441 239.982457 285.580234 237.943665 
C 287.619027 235.904872 288.764569 233.139288 288.764569 230.256 
C 288.764569 227.372712 287.619027 224.607128 285.580234 222.568335 
C 283.541441 220.529543 280.775857 219.384 277.892569 219.384 
C 275.009281 219.384 272.243697 220.529543 270.204904 222.568335 
C 268.166112 224.607128 267.020569 227.372712 267.020569 230.256 
C 267.020569 233.139288 268.166112 235.904872 270.204904 237.943665 
C 272.243697 239.982457 275.009281 241.128 277.892569 241.128 
z
" style="fill:none;stroke:#000000;stroke-linejoin:miter;stroke-width:0.2;"/>
   </g>
   <g id="patch_80">
    <path clip-path="url(#p12897fdd74)" d="M 221.4 56.304 
C 224.283288 56.304 227.048872 55.158457 229.087665 53.119665 
C 231.126457 51.080872 232.272 48.315288 232.272 45.432 
C 232.272 42.548712 231.126457 39.783128 229.087665 37.744335 
C 227.048872 35.705543 224.283288 34.56 221.4 34.56 
C 218.516712 34.56 215.751128 35.705543 213.712335 37.744335 
C 211.673543 39.783128 210.528 42.548712 210.528 45.432 
C 210.528 48.315288 211.673543 51.080872 213.712335 53.119665 
C 215.751128 55.158457 218.516712 56.304 221.4 56.304 
z
" style="fill:none;stroke:#000000;stroke-linejoin:miter;stroke-width:0.2;"/>
   </g>
   <g id="patch_81">
    <path clip-path="url(#p12897fdd74)" d="M 259.061713 56.304 
C 261.945001 56.304 264.710585 55.158457 266.749378 53.119665 
C 268.78817 51.080872 269.933713 48.315288 269.933713 45.432 
C 269.933713 42.548712 268.78817 39.783128 266.749378 37.744335 
C 264.710585 35.705543 261.945001 34.56 259.061713 34.56 
C 256.178425 34.56 253.41284 35.705543 251.374048 37.744335 
C 249.335255 39.783128 248.189713 42.548712 248.189713 45.432 
C 248.189713 48.315288 249.335255 51.080872 251.374048 53.119665 
C 253.41284 55.158457 256.178425 56.304 259.061713 56.304 
z
" style="fill:none;stroke:#000000;stroke-linejoin:miter;stroke-width:0.2;"/>
   </g>
   <g id="patch_82">
    <path clip-path="url(#p12897fdd74)" d="M 127.245718 110.664 
C 130.129006 110.664 132.89459 109.518457 134.933383 107.479665 
C 136.972176 105.440872 138.117718 102.675288 138.117718 99.792 
C 138.117718 96.908712 136.972176 94.143128 134.933383 92.104335 
C 132.89459 90.065543 130.129006 88.92 127.245718 88.92 
C 124.36243 88.92 121.596846 90.065543 119.558053 92.104335 
C 117.519261 94.143128 116.373718 96.908712 116.373718 99.792 
C 116.373718 102.675288 117.519261 105.440872 119.558053 107.479665 
C 121.596846 109.518457 124.36243 110.664 127.245718 110.664 
z
" style="fill:none;stroke:#000000;stroke-linejoin:miter;stroke-width:0.2;"/>
   </g>
   <g id="patch_83">
    <path clip-path="url(#p12897fdd74)" d="M 146.076574 78.048 
C 148.959863 78.048 151.725447 76.902457 153.764239 74.863665 
C 155.803032 72.824872 156.948574 70.059288 156.948574 67.176 
C 156.948574 64.292712 155.803032 61.527128 153.764239 59.488335 
C 151.725447 57.449543 148.959863 56.304 146.076574 56.304 
C 143.193286 56.304 140.427702 57.449543 138.38891 59.488335 
C 136.350117 61.527128 135.204574 64.292712 135.204574 67.176 
C 135.204574 70.059288 136.350117 72.824872 138.38891 74.863665 
C 140.427702 76.902457 143.193286 78.048 146.076574 78.048 
z
" style="fill:none;stroke:#000000;stroke-linejoin:miter;stroke-width:0.2;"/>
   </g>
   <g id="patch_84">
    <path clip-path="url(#p12897fdd74)" d="M 221.4 252 
C 224.283288 252 227.048872 250.854457 229.087665 248.815665 
C 231.126457 246.776872 232.272 244.011288 232.272 241.128 
C 232.272 238.244712 231.126457 235.479128 229.087665 233.440335 
C 227.048872 231.401543 224.283288 230.256 221.4 230.256 
C 218.516712 230.256 215.751128 231.401543 213.712335 233.440335 
C 211.673543 235.479128 210.528 238.244712 210.528 241.128 
C 210.528 244.011288 211.673543 246.776872 213.712335 248.815665 
C 215.751128 250.854457 218.516712 252 221.4 252 
z
" style="fill:none;stroke:#000000;stroke-linejoin:miter;stroke-width:0.2;"/>
   </g>
   <g id="patch_85">
    <path clip-path="url(#p12897fdd74)" d="M 259.061713 252 
C 261.945001 252 264.710585 250.854457 266.749378 248.815665 
C 268.78817 246.776872 269.933713 244.011288 269.933713 241.128 
C 269.933713 238.244712 268.78817 235.479128 266.749378 233.440335 
C 264.710585 231.401543 261.945001 230.256 259.061713 230.256 
C 256.178425 230.256 253.41284 231.401543 251.374048 233.440335 
C 249.335255 235.479128 248.189713 238.244712 248.189713 241.128 
C 248.189713 244.011288 249.335255 246.776872 251.374048 248.815665 
C 253.41284 250.854457 256.178425 252 259.061713 252 
z
" style="fill:none;stroke:#000000;stroke-linejoin:miter;stroke-width:0.2;"/>
   </g>
   <g id="patch_86">
    <path clip-path="url(#p12897fdd74)" d="M 127.245718 197.64 
C 130.129006 197.64 132.89459 196.494457 134.933383 194.455665 
C 136.972176 192.416872 138.117718 189.651288 138.117718 186.768 
C 138.117718 183.884712 136.972176 181.119128 134.933383 179.080335 
C 132.89459 177.041543 130.129006 175.896 127.245718 175.896 
C 124.36243 175.896 121.596846 177.041543 119.558053 179.080335 
C 117.519261 181.119128 116.373718 183.884712 116.373718 186.768 
C 116.373718 189.651288 117.519261 192.416872 119.558053 194.455665 
C 121.596846 196.494457 124.36243 197.64 127.245718 197.64 
z
" style="fill:none;stroke:#000000;stroke-linejoin:miter;stroke-width:0.2;"/>
   </g>
   <g id="patch_87">
    <path clip-path="url(#p12897fdd74)" d="M 146.076574 230.256 
C 148.959863 230.256 151.725447 229.110457 153.764239 227.071665 
C 155.803032 225.032872 156.948574 222.267288 156.948574 219.384 
C 156.948574 216.500712 155.803032 213.735128 153.764239 211.696335 
C 151.725447 209.657543 148.959863 208.512 146.076574 208.512 
C 143.193286 208.512 140.427702 209.657543 138.38891 211.696335 
C 136.350117 213.735128 135.204574 216.500712 135.204574 219.384 
C 135.204574 222.267288 136.350117 225.032872 138.38891 227.071665 
C 140.427702 229.110457 143.193286 230.256 146.076574 230.256 
z
" style="fill:none;stroke:#000000;stroke-linejoin:miter;stroke-width:0.2;"/>
   </g>
   <g id="patch_88">
    <path clip-path="url(#p12897fdd74)" d="M 315.554282 110.664 
C 318.43757 110.664 321.203154 109.518457 323.241947 107.479665 
C 325.280739 105.440872 326.426282 102.675288 326.426282 99.792 
C 326.426282 96.908712 325.280739 94.143128 323.241947 92.104335 
C 321.203154 90.065543 318.43757 88.92 315.554282 88.92 
C 312.670994 88.92 309.90541 90.065543 307.866617 92.104335 
C 305.827824 94.143128 304.682282 96.908712 304.682282 99.792 
C 304.682282 102.675288 305.827824 105.440872 307.866617 107.479665 
C 309.90541 109.518457 312.670994 110.664 315.554282 110.664 
z
" style="fill:none;stroke:#000000;stroke-linejoin:miter;stroke-width:0.2;"/>
   </g>
   <g id="patch_89">
    <path clip-path="url(#p12897fdd74)" d="M 296.723426 78.048 
C 299.606714 78.048 302.372298 76.902457 304.41109 74.863665 
C 306.449883 72.824872 307.595426 70.059288 307.595426 67.176 
C 307.595426 64.292712 306.449883 61.527128 304.41109 59.488335 
C 302.372298 57.449543 299.606714 56.304 296.723426 56.304 
C 293.840137 56.304 291.074553 57.449543 289.035761 59.488335 
C 286.996968 61.527128 285.851426 64.292712 285.851426 67.176 
C 285.851426 70.059288 286.996968 72.824872 289.035761 74.863665 
C 291.074553 76.902457 293.840137 78.048 296.723426 78.048 
z
" style="fill:none;stroke:#000000;stroke-linejoin:miter;stroke-width:0.2;"/>
   </g>
   <g id="patch_90">
    <path clip-path="url(#p12897fdd74)" d="M 315.554282 197.64 
C 318.43757 197.64 321.203154 196.494457 323.241947 194.455665 
C 325.280739 192.416872 326.426282 189.651288 326.426282 186.768 
C 326.426282 183.884712 325.280739 181.119128 323.241947 179.080335 
C 321.203154 177.041543 318.43757 175.896 315.554282 175.896 
C 312.670994 175.896 309.90541 177.041543 307.866617 179.080335 
C 305.827824 181.119128 304.682282 183.884712 304.682282 186.768 
C 304.682282 189.651288 305.827824 192.416872 307.866617 194.455665 
C 309.90541 196.494457 312.670994 197.64 315.554282 197.64 
z
" style="fill:none;stroke:#000000;stroke-linejoin:miter;stroke-width:0.2;"/>
   </g>
   <g id="patch_91">
    <path clip-path="url(#p12897fdd74)" d="M 296.723426 230.256 
C 299.606714 230.256 302.372298 229.110457 304.41109 227.071665 
C 306.449883 225.032872 307.595426 222.267288 307.595426 219.384 
C 307.595426 216.500712 306.449883 213.735128 304.41109 211.696335 
C 302.372298 209.657543 299.606714 208.512 296.723426 208.512 
C 293.840137 208.512 291.074553 209.657543 289.035761 211.696335 
C 286.996968 213.735128 285.851426 216.500712 285.851426 219.384 
C 285.851426 222.267288 286.996968 225.032872 289.035761 227.071665 
C 291.074553 229.110457 293.840137 230.256 296.723426 230.256 
z
" style="fill:none;stroke:#000000;stroke-linejoin:miter;stroke-width:0.2;"/>
   </g>
   <g id="patch_92">
    <path clip-path="url(#p12897fdd74)" d="M 127.245718 88.92 
C 130.129006 88.92 132.89459 87.774457 134.933383 85.735665 
C 136.972176 83.696872 138.117718 80.931288 138.117718 78.048 
C 138.117718 75.164712 136.972176 72.399128 134.933383 70.360335 
C 132.89459 68.321543 130.129006 67.176 127.245718 67.176 
C 124.36243 67.176 121.596846 68.321543 119.558053 70.360335 
C 117.519261 72.399128 116.373718 75.164712 116.373718 78.048 
C 116.373718 80.931288 117.519261 83.696872 119.558053 85.735665 
C 121.596846 87.774457 124.36243 88.92 127.245718 88.92 
z
" style="fill:none;stroke:#000000;stroke-linejoin:miter;stroke-width:0.2;"/>
   </g>
   <g id="patch_93">
    <path clip-path="url(#p12897fdd74)" d="M 146.076574 56.304 
C 148.959863 56.304 151.725447 55.158457 153.764239 53.119665 
C 155.803032 51.080872 156.948574 48.315288 156.948574 45.432 
C 156.948574 42.548712 155.803032 39.783128 153.764239 37.744335 
C 151.725447 35.705543 148.959863 34.56 146.076574 34.56 
C 143.193286 34.56 140.427702 35.705543 138.38891 37.744335 
C 136.350117 39.783128 135.204574 42.548712 135.204574 45.432 
C 135.204574 48.315288 136.350117 51.080872 138.38891 53.119665 
C 140.427702 55.158457 143.193286 56.304 146.076574 56.304 
z
" style="fill:none;stroke:#000000;stroke-linejoin:miter;stroke-width:0.2;"/>
   </g>
   <g id="patch_94">
    <path clip-path="url(#p12897fdd74)" d="M 127.245718 219.384 
C 130.129006 219.384 132.89459 218.238457 134.933383 216.199665 
C 136.972176 214.160872 138.117718 211.395288 138.117718 208.512 
C 138.117718 205.628712 136.972176 202.863128 134.933383 200.824335 
C 132.89459 198.785543 130.129006 197.64 127.245718 197.64 
C 124.36243 197.64 121.596846 198.785543 119.558053 200.824335 
C 117.519261 202.863128 116.373718 205.628712 116.373718 208.512 
C 116.373718 211.395288 117.519261 214.160872 119.558053 216.199665 
C 121.596846 218.238457 124.36243 219.384 127.245718 219.384 
z
" style="fill:none;stroke:#000000;stroke-linejoin:miter;stroke-width:0.2;"/>
   </g>
   <g id="patch_95">
    <path clip-path="url(#p12897fdd74)" d="M 146.076574 252 
C 148.959863 252 151.725447 250.854457 153.764239 248.815665 
C 155.803032 246.776872 156.948574 244.011288 156.948574 241.128 
C 156.948574 238.244712 155.803032 235.479128 153.764239 233.440335 
C 151.725447 231.401543 148.959863 230.256 146.076574 230.256 
C 143.193286 230.256 140.427702 231.401543 138.38891 233.440335 
C 136.350117 235.479128 135.204574 238.244712 135.204574 241.128 
C 135.204574 244.011288 136.350117 246.776872 138.38891 248.815665 
C 140.427702 250.854457 143.193286 252 146.076574 252 
z
" style="fill:none;stroke:#000000;stroke-linejoin:miter;stroke-width:0.2;"/>
   </g>
   <g id="patch_96">
    <path clip-path="url(#p12897fdd74)" d="M 315.554282 88.92 
C 318.43757 88.92 321.203154 87.774457 323.241947 85.735665 
C 325.280739 83.696872 326.426282 80.931288 326.426282 78.048 
C 326.426282 75.164712 325.280739 72.399128 323.241947 70.360335 
C 321.203154 68.321543 318.43757 67.176 315.554282 67.176 
C 312.670994 67.176 309.90541 68.321543 307.866617 70.360335 
C 305.827824 72.399128 304.682282 75.164712 304.682282 78.048 
C 304.682282 80.931288 305.827824 83.696872 307.866617 85.735665 
C 309.90541 87.774457 312.670994 88.92 315.554282 88.92 
z
" style="fill:none;stroke:#000000;stroke-linejoin:miter;stroke-width:0.2;"/>
   </g>
   <g id="patch_97">
    <path clip-path="url(#p12897fdd74)" d="M 296.723426 56.304 
C 299.606714 56.304 302.372298 55.158457 304.41109 53.119665 
C 306.449883 51.080872 307.595426 48.315288 307.595426 45.432 
C 307.595426 42.548712 306.449883 39.783128 304.41109 37.744335 
C 302.372298 35.705543 299.606714 34.56 296.723426 34.56 
C 293.840137 34.56 291.074553 35.705543 289.035761 37.744335 
C 286.996968 39.783128 285.851426 42.548712 285.851426 45.432 
C 285.851426 48.315288 286.996968 51.080872 289.035761 53.119665 
C 291.074553 55.158457 293.840137 56.304 296.723426 56.304 
z
" style="fill:none;stroke:#000000;stroke-linejoin:miter;stroke-width:0.2;"/>
   </g>
   <g id="patch_98">
    <path clip-path="url(#p12897fdd74)" d="M 315.554282 219.384 
C 318.43757 219.384 321.203154 218.238457 323.241947 216.199665 
C 325.280739 214.160872 326.426282 211.395288 326.426282 208.512 
C 326.426282 205.628712 325.280739 202.863128 323.241947 200.824335 
C 321.203154 198.785543 318.43757 197.64 315.554282 197.64 
C 312.670994 197.64 309.90541 198.785543 307.866617 200.824335 
C 305.827824 202.863128 304.682282 205.628712 304.682282 208.512 
C 304.682282 211.395288 305.827824 214.160872 307.866617 216.199665 
C 309.90541 218.238457 312.670994 219.384 315.554282 219.384 
z
" style="fill:none;stroke:#000000;stroke-linejoin:miter;stroke-width:0.2;"/>
   </g>
   <g id="patch_99">
    <path clip-path="url(#p12897fdd74)" d="M 296.723426 252 
C 299.606714 252 302.372298 250.854457 304.41109 248.815665 
C 306.449883 246.776872 307.595426 244.011288 307.595426 241.128 
C 307.595426 238.244712 306.449883 235.479128 304.41109 233.440335 
C 302.372298 231.401543 299.606714 230.256 296.723426 230.256 
C 293.840137 230.256 291.074553 231.401543 289.035761 233.440335 
C 286.996968 235.479128 285.851426 238.244712 285.851426 241.128 
C 285.851426 244.011288 286.996968 246.776872 289.035761 248.815665 
C 291.074553 250.854457 293.840137 252 296.723426 252 
z
" style="fill:none;stroke:#000000;stroke-linejoin:miter;stroke-width:0.2;"/>
   </g>
   <g id="patch_100">
    <path clip-path="url(#p12897fdd74)" d="M 127.245718 67.176 
C 130.129006 67.176 132.89459 66.030457 134.933383 63.991665 
C 136.972176 61.952872 138.117718 59.187288 138.117718 56.304 
C 138.117718 53.420712 136.972176 50.655128 134.933383 48.616335 
C 132.89459 46.577543 130.129006 45.432 127.245718 45.432 
C 124.36243 45.432 121.596846 46.577543 119.558053 48.616335 
C 117.519261 50.655128 116.373718 53.420712 116.373718 56.304 
C 116.373718 59.187288 117.519261 61.952872 119.558053 63.991665 
C 121.596846 66.030457 124.36243 67.176 127.245718 67.176 
z
" style="fill:none;stroke:#000000;stroke-linejoin:miter;stroke-width:0.2;"/>
   </g>
   <g id="patch_101">
    <path clip-path="url(#p12897fdd74)" d="M 127.245718 241.128 
C 130.129006 241.128 132.89459 239.982457 134.933383 237.943665 
C 136.972176 235.904872 138.117718 233.139288 138.117718 230.256 
C 138.117718 227.372712 136.972176 224.607128 134.933383 222.568335 
C 132.89459 220.529543 130.129006 219.384 127.245718 219.384 
C 124.36243 219.384 121.596846 220.529543 119.558053 222.568335 
C 117.519261 224.607128 116.373718 227.372712 116.373718 230.256 
C 116.373718 233.139288 117.519261 235.904872 119.558053 237.943665 
C 121.596846 239.982457 124.36243 241.128 127.245718 241.128 
z
" style="fill:none;stroke:#000000;stroke-linejoin:miter;stroke-width:0.2;"/>
   </g>
   <g id="patch_102">
    <path clip-path="url(#p12897fdd74)" d="M 315.554282 67.176 
C 318.43757 67.176 321.203154 66.030457 323.241947 63.991665 
C 325.280739 61.952872 326.426282 59.187288 326.426282 56.304 
C 326.426282 53.420712 325.280739 50.655128 323.241947 48.616335 
C 321.203154 46.577543 318.43757 45.432 315.554282 45.432 
C 312.670994 45.432 309.90541 46.577543 307.866617 48.616335 
C 305.827824 50.655128 304.682282 53.420712 304.682282 56.304 
C 304.682282 59.187288 305.827824 61.952872 307.866617 63.991665 
C 309.90541 66.030457 312.670994 67.176 315.554282 67.176 
z
" style="fill:none;stroke:#000000;stroke-linejoin:miter;stroke-width:0.2;"/>
   </g>
   <g id="patch_103">
    <path clip-path="url(#p12897fdd74)" d="M 315.554282 241.128 
C 318.43757 241.128 321.203154 239.982457 323.241947 237.943665 
C 325.280739 235.904872 326.426282 233.139288 326.426282 230.256 
C 326.426282 227.372712 325.280739 224.607128 323.241947 222.568335 
C 321.203154 220.529543 318.43757 219.384 315.554282 219.384 
C 312.670994 219.384 309.90541 220.529543 307.866617 222.568335 
C 305.827824 224.607128 304.682282 227.372712 304.682282 230.256 
C 304.682282 233.139288 305.827824 235.904872 307.866617 237.943665 
C 309.90541 239.982457 312.670994 241.128 315.554282 241.128 
z
" style="fill:none;stroke:#000000;stroke-linejoin:miter;stroke-width:0.2;"/>
   </g>
  </g>
 </g>
 <defs>
  <clipPath id="p12897fdd74">
   <rect height="217.44" width="210.052564" x="116.373718" y="34.56"/>
  </clipPath>
 </defs>
</svg>
