<?xml version="1.0" encoding="utf-8" standalone="no"?>
<!DOCTYPE svg PUBLIC "-//W3C//DTD SVG 1.1//EN"
  "http://www.w3.org/Graphics/SVG/1.1/DTD/svg11.dtd">
<svg height="288pt" version="1.1" viewBox="0 0 432 288" width="432pt" xmlns="http://www.w3.org/2000/svg" xmlns:xlink="http://www.w3.org/1999/xlink">
 <metadata>
  <rdf:RDF xmlns:cc="http://creativecommons.org/ns#" xmlns:dc="http://purl.org/dc/elements/1.1/" xmlns:rdf="http://www.w3.org/1999/02/22-rdf-syntax-ns#">
   <cc:Work>
    <dc:type rdf:resource="http://purl.org/dc/dcmitype/StillImage"/>
    <dc:date>2022-05-13T16:51:15.353597</dc:date>
    <dc:format>image/svg+xml</dc:format>
    <dc:creator>
     <cc:Agent>
      <dc:title>Matplotlib v3.4.3, https://matplotlib.org/</dc:title>
     </cc:Agent>
    </dc:creator>
   </cc:Work>
  </rdf:RDF>
 </metadata>
 <defs>
  <style type="text/css">*{stroke-linecap:butt;stroke-linejoin:round;}</style>
 </defs>
 <g id="figure_1">
  <g id="patch_1">
   <path d="M 0 288 
L 432 288 
L 432 0 
L 0 0 
z
" style="fill:#ffffff;"/>
  </g>
  <g id="axes_1">
   <g id="patch_2">
    <path clip-path="url(#p8441a7c086)" d="M 221.4 143.28 
C 226.20548 143.28 230.814787 141.370762 234.212775 137.972775 
C 237.610762 134.574787 239.52 129.96548 239.52 125.16 
C 239.52 120.35452 237.610762 115.745213 234.212775 112.347225 
C 230.814787 108.949238 226.20548 107.04 221.4 107.04 
C 216.59452 107.04 211.985213 108.949238 208.587225 112.347225 
C 205.189238 115.745213 203.28 120.35452 203.28 125.16 
C 203.28 129.96548 205.189238 134.574787 208.587225 137.972775 
C 211.985213 141.370762 216.59452 143.28 221.4 143.28 
z
" style="fill:none;stroke:#000000;stroke-linejoin:miter;stroke-width:0.2;"/>
   </g>
   <g id="patch_3">
    <path clip-path="url(#p8441a7c086)" d="M 221.4 179.52 
C 226.20548 179.52 230.814787 177.610762 234.212775 174.212775 
C 237.610762 170.814787 239.52 166.20548 239.52 161.4 
C 239.52 156.59452 237.610762 151.985213 234.212775 148.587225 
C 230.814787 145.189238 226.20548 143.28 221.4 143.28 
C 216.59452 143.28 211.985213 145.189238 208.587225 148.587225 
C 205.189238 151.985213 203.28 156.59452 203.28 161.4 
C 203.28 166.20548 205.189238 170.814787 208.587225 174.212775 
C 211.985213 177.610762 216.59452 179.52 221.4 179.52 
z
" style="fill:none;stroke:#000000;stroke-linejoin:miter;stroke-width:0.2;"/>
   </g>
   <g id="patch_4">
    <path clip-path="url(#p8441a7c086)" d="M 190.015239 161.4 
C 194.82072 161.4 199.430027 159.490762 202.828014 156.092775 
C 206.226002 152.694787 208.135239 148.08548 208.135239 143.28 
C 208.135239 138.47452 206.226002 133.865213 202.828014 130.467225 
C 199.430027 127.069238 194.82072 125.16 190.015239 125.16 
C 185.209759 125.16 180.600452 127.069238 177.202464 130.467225 
C 173.804477 133.865213 171.895239 138.47452 171.895239 143.28 
C 171.895239 148.08548 173.804477 152.694787 177.202464 156.092775 
C 180.600452 159.490762 185.209759 161.4 190.015239 161.4 
z
" style="fill:none;stroke:#000000;stroke-linejoin:miter;stroke-width:0.2;"/>
   </g>
   <g id="patch_5">
    <path clip-path="url(#p8441a7c086)" d="M 252.784761 161.4 
C 257.590241 161.4 262.199548 159.490762 265.597536 156.092775 
C 268.995523 152.694787 270.904761 148.08548 270.904761 143.28 
C 270.904761 138.47452 268.995523 133.865213 265.597536 130.467225 
C 262.199548 127.069238 257.590241 125.16 252.784761 125.16 
C 247.97928 125.16 243.369973 127.069238 239.971986 130.467225 
C 236.573998 133.865213 234.664761 138.47452 234.664761 143.28 
C 234.664761 148.08548 236.573998 152.694787 239.971986 156.092775 
C 243.369973 159.490762 247.97928 161.4 252.784761 161.4 
z
" style="fill:none;stroke:#000000;stroke-linejoin:miter;stroke-width:0.2;"/>
   </g>
   <g id="patch_6">
    <path clip-path="url(#p8441a7c086)" d="M 190.015239 125.16 
C 194.82072 125.16 199.430027 123.250762 202.828014 119.852775 
C 206.226002 116.454787 208.135239 111.84548 208.135239 107.04 
C 208.135239 102.23452 206.226002 97.625213 202.828014 94.227225 
C 199.430027 90.829238 194.82072 88.92 190.015239 88.92 
C 185.209759 88.92 180.600452 90.829238 177.202464 94.227225 
C 173.804477 97.625213 171.895239 102.23452 171.895239 107.04 
C 171.895239 111.84548 173.804477 116.454787 177.202464 119.852775 
C 180.600452 123.250762 185.209759 125.16 190.015239 125.16 
z
" style="fill:none;stroke:#000000;stroke-linejoin:miter;stroke-width:0.2;"/>
   </g>
   <g id="patch_7">
    <path clip-path="url(#p8441a7c086)" d="M 190.015239 197.64 
C 194.82072 197.64 199.430027 195.730762 202.828014 192.332775 
C 206.226002 188.934787 208.135239 184.32548 208.135239 179.52 
C 208.135239 174.71452 206.226002 170.105213 202.828014 166.707225 
C 199.430027 163.309238 194.82072 161.4 190.015239 161.4 
C 185.209759 161.4 180.600452 163.309238 177.202464 166.707225 
C 173.804477 170.105213 171.895239 174.71452 171.895239 179.52 
C 171.895239 184.32548 173.804477 188.934787 177.202464 192.332775 
C 180.600452 195.730762 185.209759 197.64 190.015239 197.64 
z
" style="fill:none;stroke:#000000;stroke-linejoin:miter;stroke-width:0.2;"/>
   </g>
   <g id="patch_8">
    <path clip-path="url(#p8441a7c086)" d="M 252.784761 125.16 
C 257.590241 125.16 262.199548 123.250762 265.597536 119.852775 
C 268.995523 116.454787 270.904761 111.84548 270.904761 107.04 
C 270.904761 102.23452 268.995523 97.625213 265.597536 94.227225 
C 262.199548 90.829238 257.590241 88.92 252.784761 88.92 
C 247.97928 88.92 243.369973 90.829238 239.971986 94.227225 
C 236.573998 97.625213 234.664761 102.23452 234.664761 107.04 
C 234.664761 111.84548 236.573998 116.454787 239.971986 119.852775 
C 243.369973 123.250762 247.97928 125.16 252.784761 125.16 
z
" style="fill:none;stroke:#000000;stroke-linejoin:miter;stroke-width:0.2;"/>
   </g>
   <g id="patch_9">
    <path clip-path="url(#p8441a7c086)" d="M 252.784761 197.64 
C 257.590241 197.64 262.199548 195.730762 265.597536 192.332775 
C 268.995523 188.934787 270.904761 184.32548 270.904761 179.52 
C 270.904761 174.71452 268.995523 170.105213 265.597536 166.707225 
C 262.199548 163.309238 257.590241 161.4 252.784761 161.4 
C 247.97928 161.4 243.369973 163.309238 239.971986 166.707225 
C 236.573998 170.105213 234.664761 174.71452 234.664761 179.52 
C 234.664761 184.32548 236.573998 188.934787 239.971986 192.332775 
C 243.369973 195.730762 247.97928 197.64 252.784761 197.64 
z
" style="fill:none;stroke:#000000;stroke-linejoin:miter;stroke-width:0.2;"/>
   </g>
   <g id="patch_10">
    <path clip-path="url(#p8441a7c086)" d="M 221.4 107.04 
C 226.20548 107.04 230.814787 105.130762 234.212775 101.732775 
C 237.610762 98.334787 239.52 93.72548 239.52 88.92 
C 239.52 84.11452 237.610762 79.505213 234.212775 76.107225 
C 230.814787 72.709238 226.20548 70.8 221.4 70.8 
C 216.59452 70.8 211.985213 72.709238 208.587225 76.107225 
C 205.189238 79.505213 203.28 84.11452 203.28 88.92 
C 203.28 93.72548 205.189238 98.334787 208.587225 101.732775 
C 211.985213 105.130762 216.59452 107.04 221.4 107.04 
z
" style="fill:none;stroke:#000000;stroke-linejoin:miter;stroke-width:0.2;"/>
   </g>
   <g id="patch_11">
    <path clip-path="url(#p8441a7c086)" d="M 158.630479 143.28 
C 163.435959 143.28 168.045266 141.370762 171.443254 137.972775 
C 174.841241 134.574787 176.750479 129.96548 176.750479 125.16 
C 176.750479 120.35452 174.841241 115.745213 171.443254 112.347225 
C 168.045266 108.949238 163.435959 107.04 158.630479 107.04 
C 153.824999 107.04 149.215691 108.949238 145.817704 112.347225 
C 142.419716 115.745213 140.510479 120.35452 140.510479 125.16 
C 140.510479 129.96548 142.419716 134.574787 145.817704 137.972775 
C 149.215691 141.370762 153.824999 143.28 158.630479 143.28 
z
" style="fill:none;stroke:#000000;stroke-linejoin:miter;stroke-width:0.2;"/>
   </g>
   <g id="patch_12">
    <path clip-path="url(#p8441a7c086)" d="M 221.4 215.76 
C 226.20548 215.76 230.814787 213.850762 234.212775 210.452775 
C 237.610762 207.054787 239.52 202.44548 239.52 197.64 
C 239.52 192.83452 237.610762 188.225213 234.212775 184.827225 
C 230.814787 181.429238 226.20548 179.52 221.4 179.52 
C 216.59452 179.52 211.985213 181.429238 208.587225 184.827225 
C 205.189238 188.225213 203.28 192.83452 203.28 197.64 
C 203.28 202.44548 205.189238 207.054787 208.587225 210.452775 
C 211.985213 213.850762 216.59452 215.76 221.4 215.76 
z
" style="fill:none;stroke:#000000;stroke-linejoin:miter;stroke-width:0.2;"/>
   </g>
   <g id="patch_13">
    <path clip-path="url(#p8441a7c086)" d="M 158.630479 179.52 
C 163.435959 179.52 168.045266 177.610762 171.443254 174.212775 
C 174.841241 170.814787 176.750479 166.20548 176.750479 161.4 
C 176.750479 156.59452 174.841241 151.985213 171.443254 148.587225 
C 168.045266 145.189238 163.435959 143.28 158.630479 143.28 
C 153.824999 143.28 149.215691 145.189238 145.817704 148.587225 
C 142.419716 151.985213 140.510479 156.59452 140.510479 161.4 
C 140.510479 166.20548 142.419716 170.814787 145.817704 174.212775 
C 149.215691 177.610762 153.824999 179.52 158.630479 179.52 
z
" style="fill:none;stroke:#000000;stroke-linejoin:miter;stroke-width:0.2;"/>
   </g>
   <g id="patch_14">
    <path clip-path="url(#p8441a7c086)" d="M 284.169521 143.28 
C 288.975001 143.28 293.584309 141.370762 296.982296 137.972775 
C 300.380284 134.574787 302.289521 129.96548 302.289521 125.16 
C 302.289521 120.35452 300.380284 115.745213 296.982296 112.347225 
C 293.584309 108.949238 288.975001 107.04 284.169521 107.04 
C 279.364041 107.04 274.754734 108.949238 271.356746 112.347225 
C 267.958759 115.745213 266.049521 120.35452 266.049521 125.16 
C 266.049521 129.96548 267.958759 134.574787 271.356746 137.972775 
C 274.754734 141.370762 279.364041 143.28 284.169521 143.28 
z
" style="fill:none;stroke:#000000;stroke-linejoin:miter;stroke-width:0.2;"/>
   </g>
   <g id="patch_15">
    <path clip-path="url(#p8441a7c086)" d="M 284.169521 179.52 
C 288.975001 179.52 293.584309 177.610762 296.982296 174.212775 
C 300.380284 170.814787 302.289521 166.20548 302.289521 161.4 
C 302.289521 156.59452 300.380284 151.985213 296.982296 148.587225 
C 293.584309 145.189238 288.975001 143.28 284.169521 143.28 
C 279.364041 143.28 274.754734 145.189238 271.356746 148.587225 
C 267.958759 151.985213 266.049521 156.59452 266.049521 161.4 
C 266.049521 166.20548 267.958759 170.814787 271.356746 174.212775 
C 274.754734 177.610762 279.364041 179.52 284.169521 179.52 
z
" style="fill:none;stroke:#000000;stroke-linejoin:miter;stroke-width:0.2;"/>
   </g>
   <g id="patch_16">
    <path clip-path="url(#p8441a7c086)" d="M 190.015239 88.92 
C 194.82072 88.92 199.430027 87.010762 202.828014 83.612775 
C 206.226002 80.214787 208.135239 75.60548 208.135239 70.8 
C 208.135239 65.99452 206.226002 61.385213 202.828014 57.987225 
C 199.430027 54.589238 194.82072 52.68 190.015239 52.68 
C 185.209759 52.68 180.600452 54.589238 177.202464 57.987225 
C 173.804477 61.385213 171.895239 65.99452 171.895239 70.8 
C 171.895239 75.60548 173.804477 80.214787 177.202464 83.612775 
C 180.600452 87.010762 185.209759 88.92 190.015239 88.92 
z
" style="fill:none;stroke:#000000;stroke-linejoin:miter;stroke-width:0.2;"/>
   </g>
   <g id="patch_17">
    <path clip-path="url(#p8441a7c086)" d="M 252.784761 88.92 
C 257.590241 88.92 262.199548 87.010762 265.597536 83.612775 
C 268.995523 80.214787 270.904761 75.60548 270.904761 70.8 
C 270.904761 65.99452 268.995523 61.385213 265.597536 57.987225 
C 262.199548 54.589238 257.590241 52.68 252.784761 52.68 
C 247.97928 52.68 243.369973 54.589238 239.971986 57.987225 
C 236.573998 61.385213 234.664761 65.99452 234.664761 70.8 
C 234.664761 75.60548 236.573998 80.214787 239.971986 83.612775 
C 243.369973 87.010762 247.97928 88.92 252.784761 88.92 
z
" style="fill:none;stroke:#000000;stroke-linejoin:miter;stroke-width:0.2;"/>
   </g>
   <g id="patch_18">
    <path clip-path="url(#p8441a7c086)" d="M 158.630479 107.04 
C 163.435959 107.04 168.045266 105.130762 171.443254 101.732775 
C 174.841241 98.334787 176.750479 93.72548 176.750479 88.92 
C 176.750479 84.11452 174.841241 79.505213 171.443254 76.107225 
C 168.045266 72.709238 163.435959 70.8 158.630479 70.8 
C 153.824999 70.8 149.215691 72.709238 145.817704 76.107225 
C 142.419716 79.505213 140.510479 84.11452 140.510479 88.92 
C 140.510479 93.72548 142.419716 98.334787 145.817704 101.732775 
C 149.215691 105.130762 153.824999 107.04 158.630479 107.04 
z
" style="fill:none;stroke:#000000;stroke-linejoin:miter;stroke-width:0.2;"/>
   </g>
   <g id="patch_19">
    <path clip-path="url(#p8441a7c086)" d="M 190.015239 233.88 
C 194.82072 233.88 199.430027 231.970762 202.828014 228.572775 
C 206.226002 225.174787 208.135239 220.56548 208.135239 215.76 
C 208.135239 210.95452 206.226002 206.345213 202.828014 202.947225 
C 199.430027 199.549238 194.82072 197.64 190.015239 197.64 
C 185.209759 197.64 180.600452 199.549238 177.202464 202.947225 
C 173.804477 206.345213 171.895239 210.95452 171.895239 215.76 
C 171.895239 220.56548 173.804477 225.174787 177.202464 228.572775 
C 180.600452 231.970762 185.209759 233.88 190.015239 233.88 
z
" style="fill:none;stroke:#000000;stroke-linejoin:miter;stroke-width:0.2;"/>
   </g>
   <g id="patch_20">
    <path clip-path="url(#p8441a7c086)" d="M 252.784761 233.88 
C 257.590241 233.88 262.199548 231.970762 265.597536 228.572775 
C 268.995523 225.174787 270.904761 220.56548 270.904761 215.76 
C 270.904761 210.95452 268.995523 206.345213 265.597536 202.947225 
C 262.199548 199.549238 257.590241 197.64 252.784761 197.64 
C 247.97928 197.64 243.369973 199.549238 239.971986 202.947225 
C 236.573998 206.345213 234.664761 210.95452 234.664761 215.76 
C 234.664761 220.56548 236.573998 225.174787 239.971986 228.572775 
C 243.369973 231.970762 247.97928 233.88 252.784761 233.88 
z
" style="fill:none;stroke:#000000;stroke-linejoin:miter;stroke-width:0.2;"/>
   </g>
   <g id="patch_21">
    <path clip-path="url(#p8441a7c086)" d="M 158.630479 215.76 
C 163.435959 215.76 168.045266 213.850762 171.443254 210.452775 
C 174.841241 207.054787 176.750479 202.44548 176.750479 197.64 
C 176.750479 192.83452 174.841241 188.225213 171.443254 184.827225 
C 168.045266 181.429238 163.435959 179.52 158.630479 179.52 
C 153.824999 179.52 149.215691 181.429238 145.817704 184.827225 
C 142.419716 188.225213 140.510479 192.83452 140.510479 197.64 
C 140.510479 202.44548 142.419716 207.054787 145.817704 210.452775 
C 149.215691 213.850762 153.824999 215.76 158.630479 215.76 
z
" style="fill:none;stroke:#000000;stroke-linejoin:miter;stroke-width:0.2;"/>
   </g>
   <g id="patch_22">
    <path clip-path="url(#p8441a7c086)" d="M 127.245718 161.4 
C 132.051198 161.4 136.660505 159.490762 140.058493 156.092775 
C 143.456481 152.694787 145.365718 148.08548 145.365718 143.28 
C 145.365718 138.47452 143.456481 133.865213 140.058493 130.467225 
C 136.660505 127.069238 132.051198 125.16 127.245718 125.16 
C 122.440238 125.16 117.830931 127.069238 114.432943 130.467225 
C 111.034956 133.865213 109.125718 138.47452 109.125718 143.28 
C 109.125718 148.08548 111.034956 152.694787 114.432943 156.092775 
C 117.830931 159.490762 122.440238 161.4 127.245718 161.4 
z
" style="fill:none;stroke:#000000;stroke-linejoin:miter;stroke-width:0.2;"/>
   </g>
   <g id="patch_23">
    <path clip-path="url(#p8441a7c086)" d="M 284.169521 107.04 
C 288.975001 107.04 293.584309 105.130762 296.982296 101.732775 
C 300.380284 98.334787 302.289521 93.72548 302.289521 88.92 
C 302.289521 84.11452 300.380284 79.505213 296.982296 76.107225 
C 293.584309 72.709238 288.975001 70.8 284.169521 70.8 
C 279.364041 70.8 274.754734 72.709238 271.356746 76.107225 
C 267.958759 79.505213 266.049521 84.11452 266.049521 88.92 
C 266.049521 93.72548 267.958759 98.334787 271.356746 101.732775 
C 274.754734 105.130762 279.364041 107.04 284.169521 107.04 
z
" style="fill:none;stroke:#000000;stroke-linejoin:miter;stroke-width:0.2;"/>
   </g>
   <g id="patch_24">
    <path clip-path="url(#p8441a7c086)" d="M 284.169521 215.76 
C 288.975001 215.76 293.584309 213.850762 296.982296 210.452775 
C 300.380284 207.054787 302.289521 202.44548 302.289521 197.64 
C 302.289521 192.83452 300.380284 188.225213 296.982296 184.827225 
C 293.584309 181.429238 288.975001 179.52 284.169521 179.52 
C 279.364041 179.52 274.754734 181.429238 271.356746 184.827225 
C 267.958759 188.225213 266.049521 192.83452 266.049521 197.64 
C 266.049521 202.44548 267.958759 207.054787 271.356746 210.452775 
C 274.754734 213.850762 279.364041 215.76 284.169521 215.76 
z
" style="fill:none;stroke:#000000;stroke-linejoin:miter;stroke-width:0.2;"/>
   </g>
   <g id="patch_25">
    <path clip-path="url(#p8441a7c086)" d="M 315.554282 161.4 
C 320.359762 161.4 324.969069 159.490762 328.367057 156.092775 
C 331.765044 152.694787 333.674282 148.08548 333.674282 143.28 
C 333.674282 138.47452 331.765044 133.865213 328.367057 130.467225 
C 324.969069 127.069238 320.359762 125.16 315.554282 125.16 
C 310.748802 125.16 306.139495 127.069238 302.741507 130.467225 
C 299.343519 133.865213 297.434282 138.47452 297.434282 143.28 
C 297.434282 148.08548 299.343519 152.694787 302.741507 156.092775 
C 306.139495 159.490762 310.748802 161.4 315.554282 161.4 
z
" style="fill:none;stroke:#000000;stroke-linejoin:miter;stroke-width:0.2;"/>
   </g>
   <g id="patch_26">
    <path clip-path="url(#p8441a7c086)" d="M 221.4 70.8 
C 226.20548 70.8 230.814787 68.890762 234.212775 65.492775 
C 237.610762 62.094787 239.52 57.48548 239.52 52.68 
C 239.52 47.87452 237.610762 43.265213 234.212775 39.867225 
C 230.814787 36.469238 226.20548 34.56 221.4 34.56 
C 216.59452 34.56 211.985213 36.469238 208.587225 39.867225 
C 205.189238 43.265213 203.28 47.87452 203.28 52.68 
C 203.28 57.48548 205.189238 62.094787 208.587225 65.492775 
C 211.985213 68.890762 216.59452 70.8 221.4 70.8 
z
" style="fill:none;stroke:#000000;stroke-linejoin:miter;stroke-width:0.2;"/>
   </g>
   <g id="patch_27">
    <path clip-path="url(#p8441a7c086)" d="M 127.245718 125.16 
C 132.051198 125.16 136.660505 123.250762 140.058493 119.852775 
C 143.456481 116.454787 145.365718 111.84548 145.365718 107.04 
C 145.365718 102.23452 143.456481 97.625213 140.058493 94.227225 
C 136.660505 90.829238 132.051198 88.92 127.245718 88.92 
C 122.440238 88.92 117.830931 90.829238 114.432943 94.227225 
C 111.034956 97.625213 109.125718 102.23452 109.125718 107.04 
C 109.125718 111.84548 111.034956 116.454787 114.432943 119.852775 
C 117.830931 123.250762 122.440238 125.16 127.245718 125.16 
z
" style="fill:none;stroke:#000000;stroke-linejoin:miter;stroke-width:0.2;"/>
   </g>
   <g id="patch_28">
    <path clip-path="url(#p8441a7c086)" d="M 158.630479 70.8 
C 163.435959 70.8 168.045266 68.890762 171.443254 65.492775 
C 174.841241 62.094787 176.750479 57.48548 176.750479 52.68 
C 176.750479 47.87452 174.841241 43.265213 171.443254 39.867225 
C 168.045266 36.469238 163.435959 34.56 158.630479 34.56 
C 153.824999 34.56 149.215691 36.469238 145.817704 39.867225 
C 142.419716 43.265213 140.510479 47.87452 140.510479 52.68 
C 140.510479 57.48548 142.419716 62.094787 145.817704 65.492775 
C 149.215691 68.890762 153.824999 70.8 158.630479 70.8 
z
" style="fill:none;stroke:#000000;stroke-linejoin:miter;stroke-width:0.2;"/>
   </g>
   <g id="patch_29">
    <path clip-path="url(#p8441a7c086)" d="M 221.4 252 
C 226.20548 252 230.814787 250.090762 234.212775 246.692775 
C 237.610762 243.294787 239.52 238.68548 239.52 233.88 
C 239.52 229.07452 237.610762 224.465213 234.212775 221.067225 
C 230.814787 217.669238 226.20548 215.76 221.4 215.76 
C 216.59452 215.76 211.985213 217.669238 208.587225 221.067225 
C 205.189238 224.465213 203.28 229.07452 203.28 233.88 
C 203.28 238.68548 205.189238 243.294787 208.587225 246.692775 
C 211.985213 250.090762 216.59452 252 221.4 252 
z
" style="fill:none;stroke:#000000;stroke-linejoin:miter;stroke-width:0.2;"/>
   </g>
   <g id="patch_30">
    <path clip-path="url(#p8441a7c086)" d="M 127.245718 197.64 
C 132.051198 197.64 136.660505 195.730762 140.058493 192.332775 
C 143.456481 188.934787 145.365718 184.32548 145.365718 179.52 
C 145.365718 174.71452 143.456481 170.105213 140.058493 166.707225 
C 136.660505 163.309238 132.051198 161.4 127.245718 161.4 
C 122.440238 161.4 117.830931 163.309238 114.432943 166.707225 
C 111.034956 170.105213 109.125718 174.71452 109.125718 179.52 
C 109.125718 184.32548 111.034956 188.934787 114.432943 192.332775 
C 117.830931 195.730762 122.440238 197.64 127.245718 197.64 
z
" style="fill:none;stroke:#000000;stroke-linejoin:miter;stroke-width:0.2;"/>
   </g>
   <g id="patch_31">
    <path clip-path="url(#p8441a7c086)" d="M 158.630479 252 
C 163.435959 252 168.045266 250.090762 171.443254 246.692775 
C 174.841241 243.294787 176.750479 238.68548 176.750479 233.88 
C 176.750479 229.07452 174.841241 224.465213 171.443254 221.067225 
C 168.045266 217.669238 163.435959 215.76 158.630479 215.76 
C 153.824999 215.76 149.215691 217.669238 145.817704 221.067225 
C 142.419716 224.465213 140.510479 229.07452 140.510479 233.88 
C 140.510479 238.68548 142.419716 243.294787 145.817704 246.692775 
C 149.215691 250.090762 153.824999 252 158.630479 252 
z
" style="fill:none;stroke:#000000;stroke-linejoin:miter;stroke-width:0.2;"/>
   </g>
   <g id="patch_32">
    <path clip-path="url(#p8441a7c086)" d="M 315.554282 125.16 
C 320.359762 125.16 324.969069 123.250762 328.367057 119.852775 
C 331.765044 116.454787 333.674282 111.84548 333.674282 107.04 
C 333.674282 102.23452 331.765044 97.625213 328.367057 94.227225 
C 324.969069 90.829238 320.359762 88.92 315.554282 88.92 
C 310.748802 88.92 306.139495 90.829238 302.741507 94.227225 
C 299.343519 97.625213 297.434282 102.23452 297.434282 107.04 
C 297.434282 111.84548 299.343519 116.454787 302.741507 119.852775 
C 306.139495 123.250762 310.748802 125.16 315.554282 125.16 
z
" style="fill:none;stroke:#000000;stroke-linejoin:miter;stroke-width:0.2;"/>
   </g>
   <g id="patch_33">
    <path clip-path="url(#p8441a7c086)" d="M 284.169521 70.8 
C 288.975001 70.8 293.584309 68.890762 296.982296 65.492775 
C 300.380284 62.094787 302.289521 57.48548 302.289521 52.68 
C 302.289521 47.87452 300.380284 43.265213 296.982296 39.867225 
C 293.584309 36.469238 288.975001 34.56 284.169521 34.56 
C 279.364041 34.56 274.754734 36.469238 271.356746 39.867225 
C 267.958759 43.265213 266.049521 47.87452 266.049521 52.68 
C 266.049521 57.48548 267.958759 62.094787 271.356746 65.492775 
C 274.754734 68.890762 279.364041 70.8 284.169521 70.8 
z
" style="fill:none;stroke:#000000;stroke-linejoin:miter;stroke-width:0.2;"/>
   </g>
   <g id="patch_34">
    <path clip-path="url(#p8441a7c086)" d="M 315.554282 197.64 
C 320.359762 197.64 324.969069 195.730762 328.367057 192.332775 
C 331.765044 188.934787 333.674282 184.32548 333.674282 179.52 
C 333.674282 174.71452 331.765044 170.105213 328.367057 166.707225 
C 324.969069 163.309238 320.359762 161.4 315.554282 161.4 
C 310.748802 161.4 306.139495 163.309238 302.741507 166.707225 
C 299.343519 170.105213 297.434282 174.71452 297.434282 179.52 
C 297.434282 184.32548 299.343519 188.934787 302.741507 192.332775 
C 306.139495 195.730762 310.748802 197.64 315.554282 197.64 
z
" style="fill:none;stroke:#000000;stroke-linejoin:miter;stroke-width:0.2;"/>
   </g>
   <g id="patch_35">
    <path clip-path="url(#p8441a7c086)" d="M 284.169521 252 
C 288.975001 252 293.584309 250.090762 296.982296 246.692775 
C 300.380284 243.294787 302.289521 238.68548 302.289521 233.88 
C 302.289521 229.07452 300.380284 224.465213 296.982296 221.067225 
C 293.584309 217.669238 288.975001 215.76 284.169521 215.76 
C 279.364041 215.76 274.754734 217.669238 271.356746 221.067225 
C 267.958759 224.465213 266.049521 229.07452 266.049521 233.88 
C 266.049521 238.68548 267.958759 243.294787 271.356746 246.692775 
C 274.754734 250.090762 279.364041 252 284.169521 252 
z
" style="fill:none;stroke:#000000;stroke-linejoin:miter;stroke-width:0.2;"/>
   </g>
   <g id="patch_36">
    <path clip-path="url(#p8441a7c086)" d="M 127.245718 88.92 
C 132.051198 88.92 136.660505 87.010762 140.058493 83.612775 
C 143.456481 80.214787 145.365718 75.60548 145.365718 70.8 
C 145.365718 65.99452 143.456481 61.385213 140.058493 57.987225 
C 136.660505 54.589238 132.051198 52.68 127.245718 52.68 
C 122.440238 52.68 117.830931 54.589238 114.432943 57.987225 
C 111.034956 61.385213 109.125718 65.99452 109.125718 70.8 
C 109.125718 75.60548 111.034956 80.214787 114.432943 83.612775 
C 117.830931 87.010762 122.440238 88.92 127.245718 88.92 
z
" style="fill:none;stroke:#000000;stroke-linejoin:miter;stroke-width:0.2;"/>
   </g>
   <g id="patch_37">
    <path clip-path="url(#p8441a7c086)" d="M 127.245718 233.88 
C 132.051198 233.88 136.660505 231.970762 140.058493 228.572775 
C 143.456481 225.174787 145.365718 220.56548 145.365718 215.76 
C 145.365718 210.95452 143.456481 206.345213 140.058493 202.947225 
C 136.660505 199.549238 132.051198 197.64 127.245718 197.64 
C 122.440238 197.64 117.830931 199.549238 114.432943 202.947225 
C 111.034956 206.345213 109.125718 210.95452 109.125718 215.76 
C 109.125718 220.56548 111.034956 225.174787 114.432943 228.572775 
C 117.830931 231.970762 122.440238 233.88 127.245718 233.88 
z
" style="fill:none;stroke:#000000;stroke-linejoin:miter;stroke-width:0.2;"/>
   </g>
   <g id="patch_38">
    <path clip-path="url(#p8441a7c086)" d="M 315.554282 88.92 
C 320.359762 88.92 324.969069 87.010762 328.367057 83.612775 
C 331.765044 80.214787 333.674282 75.60548 333.674282 70.8 
C 333.674282 65.99452 331.765044 61.385213 328.367057 57.987225 
C 324.969069 54.589238 320.359762 52.68 315.554282 52.68 
C 310.748802 52.68 306.139495 54.589238 302.741507 57.987225 
C 299.343519 61.385213 297.434282 65.99452 297.434282 70.8 
C 297.434282 75.60548 299.343519 80.214787 302.741507 83.612775 
C 306.139495 87.010762 310.748802 88.92 315.554282 88.92 
z
" style="fill:none;stroke:#000000;stroke-linejoin:miter;stroke-width:0.2;"/>
   </g>
   <g id="patch_39">
    <path clip-path="url(#p8441a7c086)" d="M 315.554282 233.88 
C 320.359762 233.88 324.969069 231.970762 328.367057 228.572775 
C 331.765044 225.174787 333.674282 220.56548 333.674282 215.76 
C 333.674282 210.95452 331.765044 206.345213 328.367057 202.947225 
C 324.969069 199.549238 320.359762 197.64 315.554282 197.64 
C 310.748802 197.64 306.139495 199.549238 302.741507 202.947225 
C 299.343519 206.345213 297.434282 210.95452 297.434282 215.76 
C 297.434282 220.56548 299.343519 225.174787 302.741507 228.572775 
C 306.139495 231.970762 310.748802 233.88 315.554282 233.88 
z
" style="fill:none;stroke:#000000;stroke-linejoin:miter;stroke-width:0.2;"/>
   </g>
  </g>
 </g>
 <defs>
  <clipPath id="p8441a7c086">
   <rect height="217.44" width="224.548564" x="109.125718" y="34.56"/>
  </clipPath>
 </defs>
</svg>
