<?xml version="1.0" encoding="utf-8" standalone="no"?>
<!DOCTYPE svg PUBLIC "-//W3C//DTD SVG 1.1//EN"
  "http://www.w3.org/Graphics/SVG/1.1/DTD/svg11.dtd">
<svg height="231.84pt" version="1.1" viewBox="0 0 231.84 231.84" width="231.84pt" xmlns="http://www.w3.org/2000/svg" xmlns:xlink="http://www.w3.org/1999/xlink">
 <metadata>
  <rdf:RDF xmlns:cc="http://creativecommons.org/ns#" xmlns:dc="http://purl.org/dc/elements/1.1/" xmlns:rdf="http://www.w3.org/1999/02/22-rdf-syntax-ns#">
   <cc:Work>
    <dc:type rdf:resource="http://purl.org/dc/dcmitype/StillImage"/>
    <dc:date>2022-05-14T13:58:46.523501</dc:date>
    <dc:format>image/svg+xml</dc:format>
    <dc:creator>
     <cc:Agent>
      <dc:title>Matplotlib v3.4.3, https://matplotlib.org/</dc:title>
     </cc:Agent>
    </dc:creator>
   </cc:Work>
  </rdf:RDF>
 </metadata>
 <defs>
  <style type="text/css">*{stroke-linecap:butt;stroke-linejoin:round;}</style>
 </defs>
 <g id="figure_1">
  <g id="patch_1">
   <path d="M 0 231.84 
L 231.84 231.84 
L 231.84 0 
L 0 0 
z
" style="fill:#ffffff;"/>
  </g>
  <g id="axes_1">
   <g id="patch_2">
    <path clip-path="url(#pc82c463efa)" d="M 115.92 115.92 
C 116.423229 115.92 116.905914 115.720065 117.261751 115.364229 
C 117.617587 115.008392 117.817522 114.525707 117.817522 114.022478 
C 117.817522 113.519249 117.617587 113.036564 117.261751 112.680727 
C 116.905914 112.324891 116.423229 112.124956 115.92 112.124956 
C 115.416771 112.124956 114.934086 112.324891 114.578249 112.680727 
C 114.222413 113.036564 114.022478 113.519249 114.022478 114.022478 
C 114.022478 114.525707 114.222413 115.008392 114.578249 115.364229 
C 114.934086 115.720065 115.416771 115.92 115.92 115.92 
z
" style="fill:none;stroke:#000000;stroke-linejoin:miter;stroke-width:0.2;"/>
   </g>
   <g id="patch_3">
    <path clip-path="url(#pc82c463efa)" d="M 115.92 119.715044 
C 116.423229 119.715044 116.905914 119.515109 117.261751 119.159273 
C 117.617587 118.803436 117.817522 118.320751 117.817522 117.817522 
C 117.817522 117.314293 117.617587 116.831608 117.261751 116.475771 
C 116.905914 116.119935 116.423229 115.92 115.92 115.92 
C 115.416771 115.92 114.934086 116.119935 114.578249 116.475771 
C 114.222413 116.831608 114.022478 117.314293 114.022478 117.817522 
C 114.022478 118.320751 114.222413 118.803436 114.578249 119.159273 
C 114.934086 119.515109 115.416771 119.715044 115.92 119.715044 
z
" style="fill:none;stroke:#000000;stroke-linejoin:miter;stroke-width:0.2;"/>
   </g>
   <g id="patch_4">
    <path clip-path="url(#pc82c463efa)" d="M 112.470874 117.959108 
C 113.011652 117.959108 113.530354 117.744255 113.912742 117.361867 
C 114.295129 116.97948 114.509983 116.460778 114.509983 115.92 
C 114.509983 115.379222 114.295129 114.86052 113.912742 114.478133 
C 113.530354 114.095745 113.011652 113.880892 112.470874 113.880892 
C 111.930096 113.880892 111.411395 114.095745 111.029007 114.478133 
C 110.646619 114.86052 110.431766 115.379222 110.431766 115.92 
C 110.431766 116.460778 110.646619 116.97948 111.029007 117.361867 
C 111.411395 117.744255 111.930096 117.959108 112.470874 117.959108 
z
" style="fill:none;stroke:#000000;stroke-linejoin:miter;stroke-width:0.2;"/>
   </g>
   <g id="patch_5">
    <path clip-path="url(#pc82c463efa)" d="M 119.369126 117.959108 
C 119.909904 117.959108 120.428605 117.744255 120.810993 117.361867 
C 121.193381 116.97948 121.408234 116.460778 121.408234 115.92 
C 121.408234 115.379222 121.193381 114.86052 120.810993 114.478133 
C 120.428605 114.095745 119.909904 113.880892 119.369126 113.880892 
C 118.828348 113.880892 118.309646 114.095745 117.927258 114.478133 
C 117.544871 114.86052 117.330017 115.379222 117.330017 115.92 
C 117.330017 116.460778 117.544871 116.97948 117.927258 117.361867 
C 118.309646 117.744255 118.828348 117.959108 119.369126 117.959108 
z
" style="fill:none;stroke:#000000;stroke-linejoin:miter;stroke-width:0.2;"/>
   </g>
   <g id="patch_6">
    <path clip-path="url(#pc82c463efa)" d="M 112.559975 113.88183 
C 113.141816 113.88183 113.699904 113.650662 114.111327 113.239239 
C 114.52275 112.827816 114.753918 112.269728 114.753918 111.687887 
C 114.753918 111.106047 114.52275 110.547959 114.111327 110.136536 
C 113.699904 109.725113 113.141816 109.493945 112.559975 109.493945 
C 111.978135 109.493945 111.420047 109.725113 111.008624 110.136536 
C 110.597201 110.547959 110.366033 111.106047 110.366033 111.687887 
C 110.366033 112.269728 110.597201 112.827816 111.008624 113.239239 
C 111.420047 113.650662 111.978135 113.88183 112.559975 113.88183 
z
" style="fill:none;stroke:#000000;stroke-linejoin:miter;stroke-width:0.2;"/>
   </g>
   <g id="patch_7">
    <path clip-path="url(#pc82c463efa)" d="M 112.559975 122.346055 
C 113.141816 122.346055 113.699904 122.114887 114.111327 121.703464 
C 114.52275 121.292041 114.753918 120.733953 114.753918 120.152113 
C 114.753918 119.570272 114.52275 119.012184 114.111327 118.600761 
C 113.699904 118.189338 113.141816 117.95817 112.559975 117.95817 
C 111.978135 117.95817 111.420047 118.189338 111.008624 118.600761 
C 110.597201 119.012184 110.366033 119.570272 110.366033 120.152113 
C 110.366033 120.733953 110.597201 121.292041 111.008624 121.703464 
C 111.420047 122.114887 111.978135 122.346055 112.559975 122.346055 
z
" style="fill:none;stroke:#000000;stroke-linejoin:miter;stroke-width:0.2;"/>
   </g>
   <g id="patch_8">
    <path clip-path="url(#pc82c463efa)" d="M 119.280025 113.88183 
C 119.861865 113.88183 120.419953 113.650662 120.831376 113.239239 
C 121.242799 112.827816 121.473967 112.269728 121.473967 111.687887 
C 121.473967 111.106047 121.242799 110.547959 120.831376 110.136536 
C 120.419953 109.725113 119.861865 109.493945 119.280025 109.493945 
C 118.698184 109.493945 118.140096 109.725113 117.728673 110.136536 
C 117.31725 110.547959 117.086082 111.106047 117.086082 111.687887 
C 117.086082 112.269728 117.31725 112.827816 117.728673 113.239239 
C 118.140096 113.650662 118.698184 113.88183 119.280025 113.88183 
z
" style="fill:none;stroke:#000000;stroke-linejoin:miter;stroke-width:0.2;"/>
   </g>
   <g id="patch_9">
    <path clip-path="url(#pc82c463efa)" d="M 119.280025 122.346055 
C 119.861865 122.346055 120.419953 122.114887 120.831376 121.703464 
C 121.242799 121.292041 121.473967 120.733953 121.473967 120.152113 
C 121.473967 119.570272 121.242799 119.012184 120.831376 118.600761 
C 120.419953 118.189338 119.861865 117.95817 119.280025 117.95817 
C 118.698184 117.95817 118.140096 118.189338 117.728673 118.600761 
C 117.31725 119.012184 117.086082 119.570272 117.086082 120.152113 
C 117.086082 120.733953 117.31725 121.292041 117.728673 121.703464 
C 118.140096 122.114887 118.698184 122.346055 119.280025 122.346055 
z
" style="fill:none;stroke:#000000;stroke-linejoin:miter;stroke-width:0.2;"/>
   </g>
   <g id="patch_10">
    <path clip-path="url(#pc82c463efa)" d="M 108.446059 116.356517 
C 109.101225 116.356517 109.729645 116.096216 110.192918 115.632944 
C 110.65619 115.169672 110.91649 114.541251 110.91649 113.886085 
C 110.91649 113.230919 110.65619 112.602499 110.192918 112.139226 
C 109.729645 111.675954 109.101225 111.415654 108.446059 111.415654 
C 107.790893 111.415654 107.162472 111.675954 106.6992 112.139226 
C 106.235928 112.602499 105.975627 113.230919 105.975627 113.886085 
C 105.975627 114.541251 106.235928 115.169672 106.6992 115.632944 
C 107.162472 116.096216 107.790893 116.356517 108.446059 116.356517 
z
" style="fill:none;stroke:#000000;stroke-linejoin:miter;stroke-width:0.2;"/>
   </g>
   <g id="patch_11">
    <path clip-path="url(#pc82c463efa)" d="M 123.393941 116.356517 
C 124.049107 116.356517 124.677528 116.096216 125.1408 115.632944 
C 125.604072 115.169672 125.864373 114.541251 125.864373 113.886085 
C 125.864373 113.230919 125.604072 112.602499 125.1408 112.139226 
C 124.677528 111.675954 124.049107 111.415654 123.393941 111.415654 
C 122.738775 111.415654 122.110355 111.675954 121.647082 112.139226 
C 121.18381 112.602499 120.92351 113.230919 120.92351 113.886085 
C 120.92351 114.541251 121.18381 115.169672 121.647082 115.632944 
C 122.110355 116.096216 122.738775 116.356517 123.393941 116.356517 
z
" style="fill:none;stroke:#000000;stroke-linejoin:miter;stroke-width:0.2;"/>
   </g>
   <g id="patch_12">
    <path clip-path="url(#pc82c463efa)" d="M 108.56971 111.417075 
C 109.340731 111.417075 110.080277 111.110746 110.625471 110.565551 
C 111.170665 110.020357 111.476995 109.280812 111.476995 108.509791 
C 111.476995 107.73877 111.170665 106.999224 110.625471 106.45403 
C 110.080277 105.908836 109.340731 105.602506 108.56971 105.602506 
C 107.798689 105.602506 107.059143 105.908836 106.513949 106.45403 
C 105.968755 106.999224 105.662425 107.73877 105.662425 108.509791 
C 105.662425 109.280812 105.968755 110.020357 106.513949 110.565551 
C 107.059143 111.110746 107.798689 111.417075 108.56971 111.417075 
z
" style="fill:none;stroke:#000000;stroke-linejoin:miter;stroke-width:0.2;"/>
   </g>
   <g id="patch_13">
    <path clip-path="url(#pc82c463efa)" d="M 123.27029 111.417075 
C 124.041311 111.417075 124.780857 111.110746 125.326051 110.565551 
C 125.871245 110.020357 126.177575 109.280812 126.177575 108.509791 
C 126.177575 107.73877 125.871245 106.999224 125.326051 106.45403 
C 124.780857 105.908836 124.041311 105.602506 123.27029 105.602506 
C 122.499269 105.602506 121.759723 105.908836 121.214529 106.45403 
C 120.669335 106.999224 120.363005 107.73877 120.363005 108.509791 
C 120.363005 109.280812 120.669335 110.020357 121.214529 110.565551 
C 121.759723 111.110746 122.499269 111.417075 123.27029 111.417075 
z
" style="fill:none;stroke:#000000;stroke-linejoin:miter;stroke-width:0.2;"/>
   </g>
   <g id="patch_14">
    <path clip-path="url(#pc82c463efa)" d="M 113.949988 109.696574 
C 114.659415 109.696574 115.339881 109.414716 115.841522 108.913075 
C 116.343163 108.411434 116.625021 107.730968 116.625021 107.021541 
C 116.625021 106.312113 116.343163 105.631647 115.841522 105.130006 
C 115.339881 104.628365 114.659415 104.346507 113.949988 104.346507 
C 113.24056 104.346507 112.560094 104.628365 112.058453 105.130006 
C 111.556812 105.631647 111.274954 106.312113 111.274954 107.021541 
C 111.274954 107.730968 111.556812 108.411434 112.058453 108.913075 
C 112.560094 109.414716 113.24056 109.696574 113.949988 109.696574 
z
" style="fill:none;stroke:#000000;stroke-linejoin:miter;stroke-width:0.2;"/>
   </g>
   <g id="patch_15">
    <path clip-path="url(#pc82c463efa)" d="M 102.799459 115.208923 
C 103.76186 115.208923 104.684974 114.826557 105.365494 114.146037 
C 106.046015 113.465516 106.428381 112.542403 106.428381 111.580002 
C 106.428381 110.617601 106.046015 109.694487 105.365494 109.013967 
C 104.684974 108.333446 103.76186 107.95108 102.799459 107.95108 
C 101.837058 107.95108 100.913945 108.333446 100.233424 109.013967 
C 99.552904 109.694487 99.170538 110.617601 99.170538 111.580002 
C 99.170538 112.542403 99.552904 113.465516 100.233424 114.146037 
C 100.913945 114.826557 101.837058 115.208923 102.799459 115.208923 
z
" style="fill:none;stroke:#000000;stroke-linejoin:miter;stroke-width:0.2;"/>
   </g>
   <g id="patch_16">
    <path clip-path="url(#pc82c463efa)" d="M 129.040541 115.208923 
C 130.002942 115.208923 130.926055 114.826557 131.606576 114.146037 
C 132.287096 113.465516 132.669462 112.542403 132.669462 111.580002 
C 132.669462 110.617601 132.287096 109.694487 131.606576 109.013967 
C 130.926055 108.333446 130.002942 107.95108 129.040541 107.95108 
C 128.07814 107.95108 127.155026 108.333446 126.474506 109.013967 
C 125.793985 109.694487 125.411619 110.617601 125.411619 111.580002 
C 125.411619 112.542403 125.793985 113.465516 126.474506 114.146037 
C 127.155026 114.826557 128.07814 115.208923 129.040541 115.208923 
z
" style="fill:none;stroke:#000000;stroke-linejoin:miter;stroke-width:0.2;"/>
   </g>
   <g id="patch_17">
    <path clip-path="url(#pc82c463efa)" d="M 109.869274 105.724873 
C 110.944597 105.724873 111.976022 105.297643 112.73639 104.537275 
C 113.496758 103.776907 113.923989 102.745481 113.923989 101.670158 
C 113.923989 100.594835 113.496758 99.56341 112.73639 98.803042 
C 111.976022 98.042674 110.944597 97.615443 109.869274 97.615443 
C 108.793951 97.615443 107.762526 98.042674 107.002157 98.803042 
C 106.241789 99.56341 105.814559 100.594835 105.814559 101.670158 
C 105.814559 102.745481 106.241789 103.776907 107.002157 104.537275 
C 107.762526 105.297643 108.793951 105.724873 109.869274 105.724873 
z
" style="fill:none;stroke:#000000;stroke-linejoin:miter;stroke-width:0.2;"/>
   </g>
   <g id="patch_18">
    <path clip-path="url(#pc82c463efa)" d="M 104.724367 121.106811 
C 105.543783 121.106811 106.329748 120.781254 106.909162 120.20184 
C 107.488577 119.622425 107.814134 118.83646 107.814134 118.017044 
C 107.814134 117.197628 107.488577 116.411663 106.909162 115.832249 
C 106.329748 115.252834 105.543783 114.927277 104.724367 114.927277 
C 103.904951 114.927277 103.118986 115.252834 102.539571 115.832249 
C 101.960157 116.411663 101.634599 117.197628 101.634599 118.017044 
C 101.634599 118.83646 101.960157 119.622425 102.539571 120.20184 
C 103.118986 120.781254 103.904951 121.106811 104.724367 121.106811 
z
" style="fill:none;stroke:#000000;stroke-linejoin:miter;stroke-width:0.2;"/>
   </g>
   <g id="patch_19">
    <path clip-path="url(#pc82c463efa)" d="M 127.115633 121.106811 
C 127.935049 121.106811 128.721014 120.781254 129.300429 120.20184 
C 129.879843 119.622425 130.205401 118.83646 130.205401 118.017044 
C 130.205401 117.197628 129.879843 116.411663 129.300429 115.832249 
C 128.721014 115.252834 127.935049 114.927277 127.115633 114.927277 
C 126.296217 114.927277 125.510252 115.252834 124.930838 115.832249 
C 124.351423 116.411663 124.025866 117.197628 124.025866 118.017044 
C 124.025866 118.83646 124.351423 119.622425 124.930838 120.20184 
C 125.510252 120.781254 126.296217 121.106811 127.115633 121.106811 
z
" style="fill:none;stroke:#000000;stroke-linejoin:miter;stroke-width:0.2;"/>
   </g>
   <g id="patch_20">
    <path clip-path="url(#pc82c463efa)" d="M 128.829294 107.953715 
C 130.112862 107.953715 131.344032 107.443748 132.251652 106.536129 
C 133.159272 105.628509 133.669239 104.397339 133.669239 103.113771 
C 133.669239 101.830203 133.159272 100.599033 132.251652 99.691413 
C 131.344032 98.783794 130.112862 98.273827 128.829294 98.273827 
C 127.545726 98.273827 126.314556 98.783794 125.406937 99.691413 
C 124.499317 100.599033 123.98935 101.830203 123.98935 103.113771 
C 123.98935 104.397339 124.499317 105.628509 125.406937 106.536129 
C 126.314556 107.443748 127.545726 107.953715 128.829294 107.953715 
z
" style="fill:none;stroke:#000000;stroke-linejoin:miter;stroke-width:0.2;"/>
   </g>
   <g id="patch_21">
    <path clip-path="url(#pc82c463efa)" d="M 117.654214 105.526022 
C 118.643745 105.526022 119.592882 105.132876 120.292586 104.433172 
C 120.992291 103.733467 121.385436 102.784331 121.385436 101.794799 
C 121.385436 100.805267 120.992291 99.856131 120.292586 99.156426 
C 119.592882 98.456722 118.643745 98.063577 117.654214 98.063577 
C 116.664682 98.063577 115.715545 98.456722 115.015841 99.156426 
C 114.316136 99.856131 113.922991 100.805267 113.922991 101.794799 
C 113.922991 102.784331 114.316136 103.733467 115.015841 104.433172 
C 115.715545 105.132876 116.664682 105.526022 117.654214 105.526022 
z
" style="fill:none;stroke:#000000;stroke-linejoin:miter;stroke-width:0.2;"/>
   </g>
   <g id="patch_22">
    <path clip-path="url(#pc82c463efa)" d="M 96.309353 123.084184 
C 97.722708 123.084184 99.078365 122.522652 100.077758 121.523259 
C 101.077151 120.523866 101.638683 119.168209 101.638683 117.754854 
C 101.638683 116.341499 101.077151 114.985841 100.077758 113.986448 
C 99.078365 112.987055 97.722708 112.425523 96.309353 112.425523 
C 94.895998 112.425523 93.54034 112.987055 92.540947 113.986448 
C 91.541554 114.985841 90.980022 116.341499 90.980022 117.754854 
C 90.980022 119.168209 91.541554 120.523866 92.540947 121.523259 
C 93.54034 122.522652 94.895998 123.084184 96.309353 123.084184 
z
" style="fill:none;stroke:#000000;stroke-linejoin:miter;stroke-width:0.2;"/>
   </g>
   <g id="patch_23">
    <path clip-path="url(#pc82c463efa)" d="M 135.530647 123.084184 
C 136.944002 123.084184 138.29966 122.522652 139.299053 121.523259 
C 140.298446 120.523866 140.859978 119.168209 140.859978 117.754854 
C 140.859978 116.341499 140.298446 114.985841 139.299053 113.986448 
C 138.29966 112.987055 136.944002 112.425523 135.530647 112.425523 
C 134.117292 112.425523 132.761635 112.987055 131.762242 113.986448 
C 130.762849 114.985841 130.201317 116.341499 130.201317 117.754854 
C 130.201317 119.168209 130.762849 120.523866 131.762242 121.523259 
C 132.761635 122.522652 134.117292 123.084184 135.530647 123.084184 
z
" style="fill:none;stroke:#000000;stroke-linejoin:miter;stroke-width:0.2;"/>
   </g>
   <g id="patch_24">
    <path clip-path="url(#pc82c463efa)" d="M 114.383764 98.56837 
C 116.270804 98.56837 118.080809 97.818641 119.415148 96.484302 
C 120.749486 95.149964 121.499215 93.339958 121.499215 91.452919 
C 121.499215 89.565879 120.749486 87.755874 119.415148 86.421535 
C 118.080809 85.087197 116.270804 84.337468 114.383764 84.337468 
C 112.496724 84.337468 110.686719 85.087197 109.35238 86.421535 
C 108.018042 87.755874 107.268313 89.565879 107.268313 91.452919 
C 107.268313 93.339958 108.018042 95.149964 109.35238 96.484302 
C 110.686719 97.818641 112.496724 98.56837 114.383764 98.56837 
z
" style="fill:none;stroke:#000000;stroke-linejoin:miter;stroke-width:0.2;"/>
   </g>
   <g id="patch_25">
    <path clip-path="url(#pc82c463efa)" d="M 93.980581 112.647463 
C 95.836824 112.647463 97.617289 111.90997 98.929851 110.597408 
C 100.242413 109.284846 100.979906 107.50438 100.979906 105.648137 
C 100.979906 103.791894 100.242413 102.011429 98.929851 100.698867 
C 97.617289 99.386305 95.836824 98.648812 93.980581 98.648812 
C 92.124338 98.648812 90.343872 99.386305 89.03131 100.698867 
C 87.718748 102.011429 86.981255 103.791894 86.981255 105.648137 
C 86.981255 107.50438 87.718748 109.284846 89.03131 110.597408 
C 90.343872 111.90997 92.124338 112.647463 93.980581 112.647463 
z
" style="fill:none;stroke:#000000;stroke-linejoin:miter;stroke-width:0.2;"/>
   </g>
   <g id="patch_26">
    <path clip-path="url(#pc82c463efa)" d="M 102.544765 129.266491 
C 103.670683 129.266491 104.750638 128.819159 105.546782 128.023015 
C 106.342926 127.226871 106.790258 126.146916 106.790258 125.020998 
C 106.790258 123.895081 106.342926 122.815126 105.546782 122.018982 
C 104.750638 121.222838 103.670683 120.775506 102.544765 120.775506 
C 101.418848 120.775506 100.338893 121.222838 99.542749 122.018982 
C 98.746605 122.815126 98.299273 123.895081 98.299273 125.020998 
C 98.299273 126.146916 98.746605 127.226871 99.542749 128.023015 
C 100.338893 128.819159 101.418848 129.266491 102.544765 129.266491 
z
" style="fill:none;stroke:#000000;stroke-linejoin:miter;stroke-width:0.2;"/>
   </g>
   <g id="patch_27">
    <path clip-path="url(#pc82c463efa)" d="M 129.295235 129.266491 
C 130.421152 129.266491 131.501107 128.819159 132.297251 128.023015 
C 133.093395 127.226871 133.540727 126.146916 133.540727 125.020998 
C 133.540727 123.895081 133.093395 122.815126 132.297251 122.018982 
C 131.501107 121.222838 130.421152 120.775506 129.295235 120.775506 
C 128.169317 120.775506 127.089362 121.222838 126.293218 122.018982 
C 125.497074 122.815126 125.049742 123.895081 125.049742 125.020998 
C 125.049742 126.146916 125.497074 127.226871 126.293218 128.023015 
C 127.089362 128.819159 128.169317 129.266491 129.295235 129.266491 
z
" style="fill:none;stroke:#000000;stroke-linejoin:miter;stroke-width:0.2;"/>
   </g>
   <g id="patch_28">
    <path clip-path="url(#pc82c463efa)" d="M 76.302049 132.884629 
C 80.196016 132.884629 83.93102 131.337539 86.684471 128.584089 
C 89.437921 125.830638 90.985011 122.095634 90.985011 118.201667 
C 90.985011 114.3077 89.437921 110.572695 86.684471 107.819245 
C 83.93102 105.065794 80.196016 103.518705 76.302049 103.518705 
C 72.408082 103.518705 68.673077 105.065794 65.919627 107.819245 
C 63.166176 110.572695 61.619087 114.3077 61.619087 118.201667 
C 61.619087 122.095634 63.166176 125.830638 65.919627 128.584089 
C 68.673077 131.337539 72.408082 132.884629 76.302049 132.884629 
z
" style="fill:none;stroke:#000000;stroke-linejoin:miter;stroke-width:0.2;"/>
   </g>
   <g id="patch_29">
    <path clip-path="url(#pc82c463efa)" d="M 141.472641 140.735037 
C 143.978551 140.735037 146.382162 139.739428 148.154108 137.967483 
C 149.926053 136.195537 150.921662 133.791926 150.921662 131.286016 
C 150.921662 128.780107 149.926053 126.376495 148.154108 124.60455 
C 146.382162 122.832604 143.978551 121.836996 141.472641 121.836996 
C 138.966732 121.836996 136.563121 122.832604 134.791175 124.60455 
C 133.019229 126.376495 132.023621 128.780107 132.023621 131.286016 
C 132.023621 133.791926 133.019229 136.195537 134.791175 137.967483 
C 136.563121 139.739428 138.966732 140.735037 141.472641 140.735037 
z
" style="fill:none;stroke:#000000;stroke-linejoin:miter;stroke-width:0.2;"/>
   </g>
   <g id="patch_30">
    <path clip-path="url(#pc82c463efa)" d="M 77.820324 103.550059 
C 83.679423 103.550059 89.299337 101.222214 93.442345 97.079206 
C 97.585354 92.936197 99.913198 87.316283 99.913198 81.457184 
C 99.913198 75.598086 97.585354 69.978172 93.442345 65.835163 
C 89.299337 61.692155 83.679423 59.36431 77.820324 59.36431 
C 71.961226 59.36431 66.341312 61.692155 62.198303 65.835163 
C 58.055295 69.978172 55.72745 75.598086 55.72745 81.457184 
C 55.72745 87.316283 58.055295 92.936197 62.198303 97.079206 
C 66.341312 101.222214 71.961226 103.550059 77.820324 103.550059 
z
" style="fill:none;stroke:#000000;stroke-linejoin:miter;stroke-width:0.2;"/>
   </g>
   <g id="patch_31">
    <path clip-path="url(#pc82c463efa)" d="M 153.386272 125.162358 
C 156.98107 125.162358 160.429118 123.734129 162.971024 121.192223 
C 165.512929 118.650318 166.941158 115.202269 166.941158 111.607472 
C 166.941158 108.012674 165.512929 104.564626 162.971024 102.02272 
C 160.429118 99.480814 156.98107 98.052586 153.386272 98.052586 
C 149.791474 98.052586 146.343426 99.480814 143.80152 102.02272 
C 141.259614 104.564626 139.831386 108.012674 139.831386 111.607472 
C 139.831386 115.202269 141.259614 118.650318 143.80152 121.192223 
C 146.343426 123.734129 149.791474 125.162358 153.386272 125.162358 
z
" style="fill:none;stroke:#000000;stroke-linejoin:miter;stroke-width:0.2;"/>
   </g>
   <g id="patch_32">
    <path clip-path="url(#pc82c463efa)" d="M 126.423526 140.903413 
C 128.020929 140.903413 129.553121 140.268758 130.682655 139.139224 
C 131.81219 138.009689 132.446844 136.477497 132.446844 134.880094 
C 132.446844 133.282692 131.81219 131.750499 130.682655 130.620965 
C 129.553121 129.491431 128.020929 128.856776 126.423526 128.856776 
C 124.826123 128.856776 123.293931 129.491431 122.164397 130.620965 
C 121.034862 131.750499 120.400208 133.282692 120.400208 134.880094 
C 120.400208 136.477497 121.034862 138.009689 122.164397 139.139224 
C 123.293931 140.268758 124.826123 140.903413 126.423526 140.903413 
z
" style="fill:none;stroke:#000000;stroke-linejoin:miter;stroke-width:0.2;"/>
   </g>
   <g id="patch_33">
    <path clip-path="url(#pc82c463efa)" d="M 121.946616 130.00277 
C 122.820293 130.00277 123.658304 129.655654 124.276087 129.037871 
C 124.89387 128.420088 125.240985 127.582077 125.240985 126.7084 
C 125.240985 125.834723 124.89387 124.996712 124.276087 124.378929 
C 123.658304 123.761146 122.820293 123.414031 121.946616 123.414031 
C 121.072939 123.414031 120.234928 123.761146 119.617145 124.378929 
C 118.999362 124.996712 118.652246 125.834723 118.652246 126.7084 
C 118.652246 127.582077 118.999362 128.420088 119.617145 129.037871 
C 120.234928 129.655654 121.072939 130.00277 121.946616 130.00277 
z
" style="fill:none;stroke:#000000;stroke-linejoin:miter;stroke-width:0.2;"/>
   </g>
   <g id="patch_34">
    <path clip-path="url(#pc82c463efa)" d="M 133.979057 176.905906 
C 138.910585 176.905906 143.640793 174.94659 147.12791 171.459473 
C 150.615026 167.972357 152.574342 163.242148 152.574342 158.310621 
C 152.574342 153.379094 150.615026 148.648885 147.12791 145.161769 
C 143.640793 141.674653 138.910585 139.715336 133.979057 139.715336 
C 129.04753 139.715336 124.317322 141.674653 120.830205 145.161769 
C 117.343089 148.648885 115.383772 153.379094 115.383772 158.310621 
C 115.383772 163.242148 117.343089 167.972357 120.830205 171.459473 
C 124.317322 174.94659 129.04753 176.905906 133.979057 176.905906 
z
" style="fill:none;stroke:#000000;stroke-linejoin:miter;stroke-width:0.2;"/>
   </g>
   <g id="patch_35">
    <path clip-path="url(#pc82c463efa)" d="M 116.599974 136.203248 
C 117.718559 136.203248 118.791481 135.758829 119.58244 134.96787 
C 120.373399 134.176911 120.817818 133.103989 120.817818 131.985404 
C 120.817818 130.866819 120.373399 129.793897 119.58244 129.002938 
C 118.791481 128.211979 117.718559 127.76756 116.599974 127.76756 
C 115.481389 127.76756 114.408468 128.211979 113.617508 129.002938 
C 112.826549 129.793897 112.382131 130.866819 112.382131 131.985404 
C 112.382131 133.103989 112.826549 134.176911 113.617508 134.96787 
C 114.408468 135.758829 115.481389 136.203248 116.599974 136.203248 
z
" style="fill:none;stroke:#000000;stroke-linejoin:miter;stroke-width:0.2;"/>
   </g>
   <g id="patch_36">
    <path clip-path="url(#pc82c463efa)" d="M 116.188243 127.779848 
C 116.900603 127.779848 117.583883 127.496825 118.087598 126.99311 
C 118.591313 126.489395 118.874336 125.806116 118.874336 125.093755 
C 118.874336 124.381395 118.591313 123.698115 118.087598 123.194401 
C 117.583883 122.690686 116.900603 122.407662 116.188243 122.407662 
C 115.475883 122.407662 114.792603 122.690686 114.288889 123.194401 
C 113.785174 123.698115 113.50215 124.381395 113.50215 125.093755 
C 113.50215 125.806116 113.785174 126.489395 114.288889 126.99311 
C 114.792603 127.496825 115.475883 127.779848 116.188243 127.779848 
z
" style="fill:none;stroke:#000000;stroke-linejoin:miter;stroke-width:0.2;"/>
   </g>
   <g id="patch_37">
    <path clip-path="url(#pc82c463efa)" d="M 110.596627 130.726015 
C 111.485702 130.726015 112.338483 130.372782 112.967154 129.74411 
C 113.595826 129.115439 113.949059 128.262658 113.949059 127.373583 
C 113.949059 126.484507 113.595826 125.631726 112.967154 125.003055 
C 112.338483 124.374384 111.485702 124.02115 110.596627 124.02115 
C 109.707551 124.02115 108.85477 124.374384 108.226099 125.003055 
C 107.597428 125.631726 107.244194 126.484507 107.244194 127.373583 
C 107.244194 128.262658 107.597428 129.115439 108.226099 129.74411 
C 108.85477 130.372782 109.707551 130.726015 110.596627 130.726015 
z
" style="fill:none;stroke:#000000;stroke-linejoin:miter;stroke-width:0.2;"/>
   </g>
   <g id="patch_38">
    <path clip-path="url(#pc82c463efa)" d="M 107.094662 142.478718 
C 108.741193 142.478718 110.320508 141.824544 111.484781 140.660271 
C 112.649055 139.495998 113.303228 137.916683 113.303228 136.270151 
C 113.303228 134.62362 112.649055 133.044305 111.484781 131.880032 
C 110.320508 130.715759 108.741193 130.061585 107.094662 130.061585 
C 105.448131 130.061585 103.868816 130.715759 102.704543 131.880032 
C 101.540269 133.044305 100.886096 134.62362 100.886096 136.270151 
C 100.886096 137.916683 101.540269 139.495998 102.704543 140.660271 
C 103.868816 141.824544 105.448131 142.478718 107.094662 142.478718 
z
" style="fill:none;stroke:#000000;stroke-linejoin:miter;stroke-width:0.2;"/>
   </g>
   <g id="patch_39">
    <path clip-path="url(#pc82c463efa)" d="M 115.92 224.64 
C 144.752881 224.64 172.408724 213.184575 192.796649 192.796649 
C 213.184575 172.408724 224.64 144.752881 224.64 115.92 
C 224.64 87.087119 213.184575 59.431276 192.796649 39.043351 
C 172.408724 18.655425 144.752881 7.2 115.92 7.2 
C 87.087119 7.2 59.431276 18.655425 39.043351 39.043351 
C 18.655425 59.431276 7.2 87.087119 7.2 115.92 
C 7.2 144.752881 18.655425 172.408724 39.043351 192.796649 
C 59.431276 213.184575 87.087119 224.64 115.92 224.64 
z
" style="fill:none;stroke:#000000;stroke-linejoin:miter;stroke-width:0.2;"/>
   </g>
  </g>
 </g>
 <defs>
  <clipPath id="pc82c463efa">
   <rect height="217.44" width="217.44" x="7.2" y="7.2"/>
  </clipPath>
 </defs>
</svg>
