<?xml version="1.0" encoding="utf-8" standalone="no"?>
<!DOCTYPE svg PUBLIC "-//W3C//DTD SVG 1.1//EN"
  "http://www.w3.org/Graphics/SVG/1.1/DTD/svg11.dtd">
<svg height="231.84pt" version="1.1" viewBox="0 0 238.948564 231.84" width="238.948564pt" xmlns="http://www.w3.org/2000/svg" xmlns:xlink="http://www.w3.org/1999/xlink">
 <metadata>
  <rdf:RDF xmlns:cc="http://creativecommons.org/ns#" xmlns:dc="http://purl.org/dc/elements/1.1/" xmlns:rdf="http://www.w3.org/1999/02/22-rdf-syntax-ns#">
   <cc:Work>
    <dc:type rdf:resource="http://purl.org/dc/dcmitype/StillImage"/>
    <dc:date>2022-05-16T13:34:04.514532</dc:date>
    <dc:format>image/svg+xml</dc:format>
    <dc:creator>
     <cc:Agent>
      <dc:title>Matplotlib v3.4.3, https://matplotlib.org/</dc:title>
     </cc:Agent>
    </dc:creator>
   </cc:Work>
  </rdf:RDF>
 </metadata>
 <defs>
  <style type="text/css">*{stroke-linecap:butt;stroke-linejoin:round;}</style>
 </defs>
 <g id="figure_1">
  <g id="patch_1">
   <path d="M 0 231.84 
L 238.948564 231.84 
L 238.948564 0 
L 0 0 
z
" style="fill:#ffffff;"/>
  </g>
  <g id="axes_1">
   <g id="patch_2">
    <path clip-path="url(#p48842af16a)" d="M 119.474282 115.92 
C 124.279762 115.92 128.889069 114.010762 132.287057 110.612775 
C 135.685044 107.214787 137.594282 102.60548 137.594282 97.8 
C 137.594282 92.99452 135.685044 88.385213 132.287057 84.987225 
C 128.889069 81.589238 124.279762 79.68 119.474282 79.68 
C 114.668802 79.68 110.059495 81.589238 106.661507 84.987225 
C 103.263519 88.385213 101.354282 92.99452 101.354282 97.8 
C 101.354282 102.60548 103.263519 107.214787 106.661507 110.612775 
C 110.059495 114.010762 114.668802 115.92 119.474282 115.92 
z
" style="fill:none;stroke:#000000;stroke-linejoin:miter;stroke-width:0.2;"/>
   </g>
   <g id="patch_3">
    <path clip-path="url(#p48842af16a)" d="M 119.474282 152.16 
C 124.279762 152.16 128.889069 150.250762 132.287057 146.852775 
C 135.685044 143.454787 137.594282 138.84548 137.594282 134.04 
C 137.594282 129.23452 135.685044 124.625213 132.287057 121.227225 
C 128.889069 117.829238 124.279762 115.92 119.474282 115.92 
C 114.668802 115.92 110.059495 117.829238 106.661507 121.227225 
C 103.263519 124.625213 101.354282 129.23452 101.354282 134.04 
C 101.354282 138.84548 103.263519 143.454787 106.661507 146.852775 
C 110.059495 150.250762 114.668802 152.16 119.474282 152.16 
z
" style="fill:none;stroke:#000000;stroke-linejoin:miter;stroke-width:0.2;"/>
   </g>
   <g id="patch_4">
    <path clip-path="url(#p48842af16a)" d="M 88.089521 134.04 
C 92.895001 134.04 97.504309 132.130762 100.902296 128.732775 
C 104.300284 125.334787 106.209521 120.72548 106.209521 115.92 
C 106.209521 111.11452 104.300284 106.505213 100.902296 103.107225 
C 97.504309 99.709238 92.895001 97.8 88.089521 97.8 
C 83.284041 97.8 78.674734 99.709238 75.276746 103.107225 
C 71.878759 106.505213 69.969521 111.11452 69.969521 115.92 
C 69.969521 120.72548 71.878759 125.334787 75.276746 128.732775 
C 78.674734 132.130762 83.284041 134.04 88.089521 134.04 
z
" style="fill:none;stroke:#000000;stroke-linejoin:miter;stroke-width:0.2;"/>
   </g>
   <g id="patch_5">
    <path clip-path="url(#p48842af16a)" d="M 150.859043 134.04 
C 155.664523 134.04 160.27383 132.130762 163.671817 128.732775 
C 167.069805 125.334787 168.979043 120.72548 168.979043 115.92 
C 168.979043 111.11452 167.069805 106.505213 163.671817 103.107225 
C 160.27383 99.709238 155.664523 97.8 150.859043 97.8 
C 146.053562 97.8 141.444255 99.709238 138.046268 103.107225 
C 134.64828 106.505213 132.739043 111.11452 132.739043 115.92 
C 132.739043 120.72548 134.64828 125.334787 138.046268 128.732775 
C 141.444255 132.130762 146.053562 134.04 150.859043 134.04 
z
" style="fill:none;stroke:#000000;stroke-linejoin:miter;stroke-width:0.2;"/>
   </g>
   <g id="patch_6">
    <path clip-path="url(#p48842af16a)" d="M 88.089521 97.8 
C 92.895001 97.8 97.504309 95.890762 100.902296 92.492775 
C 104.300284 89.094787 106.209521 84.48548 106.209521 79.68 
C 106.209521 74.87452 104.300284 70.265213 100.902296 66.867225 
C 97.504309 63.469238 92.895001 61.56 88.089521 61.56 
C 83.284041 61.56 78.674734 63.469238 75.276746 66.867225 
C 71.878759 70.265213 69.969521 74.87452 69.969521 79.68 
C 69.969521 84.48548 71.878759 89.094787 75.276746 92.492775 
C 78.674734 95.890762 83.284041 97.8 88.089521 97.8 
z
" style="fill:none;stroke:#000000;stroke-linejoin:miter;stroke-width:0.2;"/>
   </g>
   <g id="patch_7">
    <path clip-path="url(#p48842af16a)" d="M 88.089521 170.28 
C 92.895001 170.28 97.504309 168.370762 100.902296 164.972775 
C 104.300284 161.574787 106.209521 156.96548 106.209521 152.16 
C 106.209521 147.35452 104.300284 142.745213 100.902296 139.347225 
C 97.504309 135.949238 92.895001 134.04 88.089521 134.04 
C 83.284041 134.04 78.674734 135.949238 75.276746 139.347225 
C 71.878759 142.745213 69.969521 147.35452 69.969521 152.16 
C 69.969521 156.96548 71.878759 161.574787 75.276746 164.972775 
C 78.674734 168.370762 83.284041 170.28 88.089521 170.28 
z
" style="fill:none;stroke:#000000;stroke-linejoin:miter;stroke-width:0.2;"/>
   </g>
   <g id="patch_8">
    <path clip-path="url(#p48842af16a)" d="M 150.859043 97.8 
C 155.664523 97.8 160.27383 95.890762 163.671817 92.492775 
C 167.069805 89.094787 168.979043 84.48548 168.979043 79.68 
C 168.979043 74.87452 167.069805 70.265213 163.671817 66.867225 
C 160.27383 63.469238 155.664523 61.56 150.859043 61.56 
C 146.053562 61.56 141.444255 63.469238 138.046268 66.867225 
C 134.64828 70.265213 132.739043 74.87452 132.739043 79.68 
C 132.739043 84.48548 134.64828 89.094787 138.046268 92.492775 
C 141.444255 95.890762 146.053562 97.8 150.859043 97.8 
z
" style="fill:none;stroke:#000000;stroke-linejoin:miter;stroke-width:0.2;"/>
   </g>
   <g id="patch_9">
    <path clip-path="url(#p48842af16a)" d="M 150.859043 170.28 
C 155.664523 170.28 160.27383 168.370762 163.671817 164.972775 
C 167.069805 161.574787 168.979043 156.96548 168.979043 152.16 
C 168.979043 147.35452 167.069805 142.745213 163.671817 139.347225 
C 160.27383 135.949238 155.664523 134.04 150.859043 134.04 
C 146.053562 134.04 141.444255 135.949238 138.046268 139.347225 
C 134.64828 142.745213 132.739043 147.35452 132.739043 152.16 
C 132.739043 156.96548 134.64828 161.574787 138.046268 164.972775 
C 141.444255 168.370762 146.053562 170.28 150.859043 170.28 
z
" style="fill:none;stroke:#000000;stroke-linejoin:miter;stroke-width:0.2;"/>
   </g>
   <g id="patch_10">
    <path clip-path="url(#p48842af16a)" d="M 119.474282 79.68 
C 124.279762 79.68 128.889069 77.770762 132.287057 74.372775 
C 135.685044 70.974787 137.594282 66.36548 137.594282 61.56 
C 137.594282 56.75452 135.685044 52.145213 132.287057 48.747225 
C 128.889069 45.349238 124.279762 43.44 119.474282 43.44 
C 114.668802 43.44 110.059495 45.349238 106.661507 48.747225 
C 103.263519 52.145213 101.354282 56.75452 101.354282 61.56 
C 101.354282 66.36548 103.263519 70.974787 106.661507 74.372775 
C 110.059495 77.770762 114.668802 79.68 119.474282 79.68 
z
" style="fill:none;stroke:#000000;stroke-linejoin:miter;stroke-width:0.2;"/>
   </g>
   <g id="patch_11">
    <path clip-path="url(#p48842af16a)" d="M 56.704761 115.92 
C 61.510241 115.92 66.119548 114.010762 69.517536 110.612775 
C 72.915523 107.214787 74.824761 102.60548 74.824761 97.8 
C 74.824761 92.99452 72.915523 88.385213 69.517536 84.987225 
C 66.119548 81.589238 61.510241 79.68 56.704761 79.68 
C 51.89928 79.68 47.289973 81.589238 43.891986 84.987225 
C 40.493998 88.385213 38.584761 92.99452 38.584761 97.8 
C 38.584761 102.60548 40.493998 107.214787 43.891986 110.612775 
C 47.289973 114.010762 51.89928 115.92 56.704761 115.92 
z
" style="fill:none;stroke:#000000;stroke-linejoin:miter;stroke-width:0.2;"/>
   </g>
   <g id="patch_12">
    <path clip-path="url(#p48842af16a)" d="M 119.474282 188.4 
C 124.279762 188.4 128.889069 186.490762 132.287057 183.092775 
C 135.685044 179.694787 137.594282 175.08548 137.594282 170.28 
C 137.594282 165.47452 135.685044 160.865213 132.287057 157.467225 
C 128.889069 154.069238 124.279762 152.16 119.474282 152.16 
C 114.668802 152.16 110.059495 154.069238 106.661507 157.467225 
C 103.263519 160.865213 101.354282 165.47452 101.354282 170.28 
C 101.354282 175.08548 103.263519 179.694787 106.661507 183.092775 
C 110.059495 186.490762 114.668802 188.4 119.474282 188.4 
z
" style="fill:none;stroke:#000000;stroke-linejoin:miter;stroke-width:0.2;"/>
   </g>
   <g id="patch_13">
    <path clip-path="url(#p48842af16a)" d="M 56.704761 152.16 
C 61.510241 152.16 66.119548 150.250762 69.517536 146.852775 
C 72.915523 143.454787 74.824761 138.84548 74.824761 134.04 
C 74.824761 129.23452 72.915523 124.625213 69.517536 121.227225 
C 66.119548 117.829238 61.510241 115.92 56.704761 115.92 
C 51.89928 115.92 47.289973 117.829238 43.891986 121.227225 
C 40.493998 124.625213 38.584761 129.23452 38.584761 134.04 
C 38.584761 138.84548 40.493998 143.454787 43.891986 146.852775 
C 47.289973 150.250762 51.89928 152.16 56.704761 152.16 
z
" style="fill:none;stroke:#000000;stroke-linejoin:miter;stroke-width:0.2;"/>
   </g>
   <g id="patch_14">
    <path clip-path="url(#p48842af16a)" d="M 182.243803 115.92 
C 187.049283 115.92 191.65859 114.010762 195.056578 110.612775 
C 198.454566 107.214787 200.363803 102.60548 200.363803 97.8 
C 200.363803 92.99452 198.454566 88.385213 195.056578 84.987225 
C 191.65859 81.589238 187.049283 79.68 182.243803 79.68 
C 177.438323 79.68 172.829016 81.589238 169.431028 84.987225 
C 166.033041 88.385213 164.123803 92.99452 164.123803 97.8 
C 164.123803 102.60548 166.033041 107.214787 169.431028 110.612775 
C 172.829016 114.010762 177.438323 115.92 182.243803 115.92 
z
" style="fill:none;stroke:#000000;stroke-linejoin:miter;stroke-width:0.2;"/>
   </g>
   <g id="patch_15">
    <path clip-path="url(#p48842af16a)" d="M 182.243803 152.16 
C 187.049283 152.16 191.65859 150.250762 195.056578 146.852775 
C 198.454566 143.454787 200.363803 138.84548 200.363803 134.04 
C 200.363803 129.23452 198.454566 124.625213 195.056578 121.227225 
C 191.65859 117.829238 187.049283 115.92 182.243803 115.92 
C 177.438323 115.92 172.829016 117.829238 169.431028 121.227225 
C 166.033041 124.625213 164.123803 129.23452 164.123803 134.04 
C 164.123803 138.84548 166.033041 143.454787 169.431028 146.852775 
C 172.829016 150.250762 177.438323 152.16 182.243803 152.16 
z
" style="fill:none;stroke:#000000;stroke-linejoin:miter;stroke-width:0.2;"/>
   </g>
   <g id="patch_16">
    <path clip-path="url(#p48842af16a)" d="M 88.089521 61.56 
C 92.895001 61.56 97.504309 59.650762 100.902296 56.252775 
C 104.300284 52.854787 106.209521 48.24548 106.209521 43.44 
C 106.209521 38.63452 104.300284 34.025213 100.902296 30.627225 
C 97.504309 27.229238 92.895001 25.32 88.089521 25.32 
C 83.284041 25.32 78.674734 27.229238 75.276746 30.627225 
C 71.878759 34.025213 69.969521 38.63452 69.969521 43.44 
C 69.969521 48.24548 71.878759 52.854787 75.276746 56.252775 
C 78.674734 59.650762 83.284041 61.56 88.089521 61.56 
z
" style="fill:none;stroke:#000000;stroke-linejoin:miter;stroke-width:0.2;"/>
   </g>
   <g id="patch_17">
    <path clip-path="url(#p48842af16a)" d="M 150.859043 61.56 
C 155.664523 61.56 160.27383 59.650762 163.671817 56.252775 
C 167.069805 52.854787 168.979043 48.24548 168.979043 43.44 
C 168.979043 38.63452 167.069805 34.025213 163.671817 30.627225 
C 160.27383 27.229238 155.664523 25.32 150.859043 25.32 
C 146.053562 25.32 141.444255 27.229238 138.046268 30.627225 
C 134.64828 34.025213 132.739043 38.63452 132.739043 43.44 
C 132.739043 48.24548 134.64828 52.854787 138.046268 56.252775 
C 141.444255 59.650762 146.053562 61.56 150.859043 61.56 
z
" style="fill:none;stroke:#000000;stroke-linejoin:miter;stroke-width:0.2;"/>
   </g>
   <g id="patch_18">
    <path clip-path="url(#p48842af16a)" d="M 56.704761 79.68 
C 61.510241 79.68 66.119548 77.770762 69.517536 74.372775 
C 72.915523 70.974787 74.824761 66.36548 74.824761 61.56 
C 74.824761 56.75452 72.915523 52.145213 69.517536 48.747225 
C 66.119548 45.349238 61.510241 43.44 56.704761 43.44 
C 51.89928 43.44 47.289973 45.349238 43.891986 48.747225 
C 40.493998 52.145213 38.584761 56.75452 38.584761 61.56 
C 38.584761 66.36548 40.493998 70.974787 43.891986 74.372775 
C 47.289973 77.770762 51.89928 79.68 56.704761 79.68 
z
" style="fill:none;stroke:#000000;stroke-linejoin:miter;stroke-width:0.2;"/>
   </g>
   <g id="patch_19">
    <path clip-path="url(#p48842af16a)" d="M 88.089521 206.52 
C 92.895001 206.52 97.504309 204.610762 100.902296 201.212775 
C 104.300284 197.814787 106.209521 193.20548 106.209521 188.4 
C 106.209521 183.59452 104.300284 178.985213 100.902296 175.587225 
C 97.504309 172.189238 92.895001 170.28 88.089521 170.28 
C 83.284041 170.28 78.674734 172.189238 75.276746 175.587225 
C 71.878759 178.985213 69.969521 183.59452 69.969521 188.4 
C 69.969521 193.20548 71.878759 197.814787 75.276746 201.212775 
C 78.674734 204.610762 83.284041 206.52 88.089521 206.52 
z
" style="fill:none;stroke:#000000;stroke-linejoin:miter;stroke-width:0.2;"/>
   </g>
   <g id="patch_20">
    <path clip-path="url(#p48842af16a)" d="M 150.859043 206.52 
C 155.664523 206.52 160.27383 204.610762 163.671817 201.212775 
C 167.069805 197.814787 168.979043 193.20548 168.979043 188.4 
C 168.979043 183.59452 167.069805 178.985213 163.671817 175.587225 
C 160.27383 172.189238 155.664523 170.28 150.859043 170.28 
C 146.053562 170.28 141.444255 172.189238 138.046268 175.587225 
C 134.64828 178.985213 132.739043 183.59452 132.739043 188.4 
C 132.739043 193.20548 134.64828 197.814787 138.046268 201.212775 
C 141.444255 204.610762 146.053562 206.52 150.859043 206.52 
z
" style="fill:none;stroke:#000000;stroke-linejoin:miter;stroke-width:0.2;"/>
   </g>
   <g id="patch_21">
    <path clip-path="url(#p48842af16a)" d="M 56.704761 188.4 
C 61.510241 188.4 66.119548 186.490762 69.517536 183.092775 
C 72.915523 179.694787 74.824761 175.08548 74.824761 170.28 
C 74.824761 165.47452 72.915523 160.865213 69.517536 157.467225 
C 66.119548 154.069238 61.510241 152.16 56.704761 152.16 
C 51.89928 152.16 47.289973 154.069238 43.891986 157.467225 
C 40.493998 160.865213 38.584761 165.47452 38.584761 170.28 
C 38.584761 175.08548 40.493998 179.694787 43.891986 183.092775 
C 47.289973 186.490762 51.89928 188.4 56.704761 188.4 
z
" style="fill:none;stroke:#000000;stroke-linejoin:miter;stroke-width:0.2;"/>
   </g>
   <g id="patch_22">
    <path clip-path="url(#p48842af16a)" d="M 25.32 134.04 
C 30.12548 134.04 34.734787 132.130762 38.132775 128.732775 
C 41.530762 125.334787 43.44 120.72548 43.44 115.92 
C 43.44 111.11452 41.530762 106.505213 38.132775 103.107225 
C 34.734787 99.709238 30.12548 97.8 25.32 97.8 
C 20.51452 97.8 15.905213 99.709238 12.507225 103.107225 
C 9.109238 106.505213 7.2 111.11452 7.2 115.92 
C 7.2 120.72548 9.109238 125.334787 12.507225 128.732775 
C 15.905213 132.130762 20.51452 134.04 25.32 134.04 
z
" style="fill:none;stroke:#000000;stroke-linejoin:miter;stroke-width:0.2;"/>
   </g>
   <g id="patch_23">
    <path clip-path="url(#p48842af16a)" d="M 182.243803 79.68 
C 187.049283 79.68 191.65859 77.770762 195.056578 74.372775 
C 198.454566 70.974787 200.363803 66.36548 200.363803 61.56 
C 200.363803 56.75452 198.454566 52.145213 195.056578 48.747225 
C 191.65859 45.349238 187.049283 43.44 182.243803 43.44 
C 177.438323 43.44 172.829016 45.349238 169.431028 48.747225 
C 166.033041 52.145213 164.123803 56.75452 164.123803 61.56 
C 164.123803 66.36548 166.033041 70.974787 169.431028 74.372775 
C 172.829016 77.770762 177.438323 79.68 182.243803 79.68 
z
" style="fill:none;stroke:#000000;stroke-linejoin:miter;stroke-width:0.2;"/>
   </g>
   <g id="patch_24">
    <path clip-path="url(#p48842af16a)" d="M 182.243803 188.4 
C 187.049283 188.4 191.65859 186.490762 195.056578 183.092775 
C 198.454566 179.694787 200.363803 175.08548 200.363803 170.28 
C 200.363803 165.47452 198.454566 160.865213 195.056578 157.467225 
C 191.65859 154.069238 187.049283 152.16 182.243803 152.16 
C 177.438323 152.16 172.829016 154.069238 169.431028 157.467225 
C 166.033041 160.865213 164.123803 165.47452 164.123803 170.28 
C 164.123803 175.08548 166.033041 179.694787 169.431028 183.092775 
C 172.829016 186.490762 177.438323 188.4 182.243803 188.4 
z
" style="fill:none;stroke:#000000;stroke-linejoin:miter;stroke-width:0.2;"/>
   </g>
   <g id="patch_25">
    <path clip-path="url(#p48842af16a)" d="M 213.628564 134.04 
C 218.434044 134.04 223.043351 132.130762 226.441339 128.732775 
C 229.839326 125.334787 231.748564 120.72548 231.748564 115.92 
C 231.748564 111.11452 229.839326 106.505213 226.441339 103.107225 
C 223.043351 99.709238 218.434044 97.8 213.628564 97.8 
C 208.823084 97.8 204.213777 99.709238 200.815789 103.107225 
C 197.417801 106.505213 195.508564 111.11452 195.508564 115.92 
C 195.508564 120.72548 197.417801 125.334787 200.815789 128.732775 
C 204.213777 132.130762 208.823084 134.04 213.628564 134.04 
z
" style="fill:none;stroke:#000000;stroke-linejoin:miter;stroke-width:0.2;"/>
   </g>
   <g id="patch_26">
    <path clip-path="url(#p48842af16a)" d="M 119.474282 43.44 
C 124.279762 43.44 128.889069 41.530762 132.287057 38.132775 
C 135.685044 34.734787 137.594282 30.12548 137.594282 25.32 
C 137.594282 20.51452 135.685044 15.905213 132.287057 12.507225 
C 128.889069 9.109238 124.279762 7.2 119.474282 7.2 
C 114.668802 7.2 110.059495 9.109238 106.661507 12.507225 
C 103.263519 15.905213 101.354282 20.51452 101.354282 25.32 
C 101.354282 30.12548 103.263519 34.734787 106.661507 38.132775 
C 110.059495 41.530762 114.668802 43.44 119.474282 43.44 
z
" style="fill:none;stroke:#000000;stroke-linejoin:miter;stroke-width:0.2;"/>
   </g>
   <g id="patch_27">
    <path clip-path="url(#p48842af16a)" d="M 25.32 97.8 
C 30.12548 97.8 34.734787 95.890762 38.132775 92.492775 
C 41.530762 89.094787 43.44 84.48548 43.44 79.68 
C 43.44 74.87452 41.530762 70.265213 38.132775 66.867225 
C 34.734787 63.469238 30.12548 61.56 25.32 61.56 
C 20.51452 61.56 15.905213 63.469238 12.507225 66.867225 
C 9.109238 70.265213 7.2 74.87452 7.2 79.68 
C 7.2 84.48548 9.109238 89.094787 12.507225 92.492775 
C 15.905213 95.890762 20.51452 97.8 25.32 97.8 
z
" style="fill:none;stroke:#000000;stroke-linejoin:miter;stroke-width:0.2;"/>
   </g>
   <g id="patch_28">
    <path clip-path="url(#p48842af16a)" d="M 56.704761 43.44 
C 61.510241 43.44 66.119548 41.530762 69.517536 38.132775 
C 72.915523 34.734787 74.824761 30.12548 74.824761 25.32 
C 74.824761 20.51452 72.915523 15.905213 69.517536 12.507225 
C 66.119548 9.109238 61.510241 7.2 56.704761 7.2 
C 51.89928 7.2 47.289973 9.109238 43.891986 12.507225 
C 40.493998 15.905213 38.584761 20.51452 38.584761 25.32 
C 38.584761 30.12548 40.493998 34.734787 43.891986 38.132775 
C 47.289973 41.530762 51.89928 43.44 56.704761 43.44 
z
" style="fill:none;stroke:#000000;stroke-linejoin:miter;stroke-width:0.2;"/>
   </g>
   <g id="patch_29">
    <path clip-path="url(#p48842af16a)" d="M 119.474282 224.64 
C 124.279762 224.64 128.889069 222.730762 132.287057 219.332775 
C 135.685044 215.934787 137.594282 211.32548 137.594282 206.52 
C 137.594282 201.71452 135.685044 197.105213 132.287057 193.707225 
C 128.889069 190.309238 124.279762 188.4 119.474282 188.4 
C 114.668802 188.4 110.059495 190.309238 106.661507 193.707225 
C 103.263519 197.105213 101.354282 201.71452 101.354282 206.52 
C 101.354282 211.32548 103.263519 215.934787 106.661507 219.332775 
C 110.059495 222.730762 114.668802 224.64 119.474282 224.64 
z
" style="fill:none;stroke:#000000;stroke-linejoin:miter;stroke-width:0.2;"/>
   </g>
   <g id="patch_30">
    <path clip-path="url(#p48842af16a)" d="M 25.32 170.28 
C 30.12548 170.28 34.734787 168.370762 38.132775 164.972775 
C 41.530762 161.574787 43.44 156.96548 43.44 152.16 
C 43.44 147.35452 41.530762 142.745213 38.132775 139.347225 
C 34.734787 135.949238 30.12548 134.04 25.32 134.04 
C 20.51452 134.04 15.905213 135.949238 12.507225 139.347225 
C 9.109238 142.745213 7.2 147.35452 7.2 152.16 
C 7.2 156.96548 9.109238 161.574787 12.507225 164.972775 
C 15.905213 168.370762 20.51452 170.28 25.32 170.28 
z
" style="fill:none;stroke:#000000;stroke-linejoin:miter;stroke-width:0.2;"/>
   </g>
   <g id="patch_31">
    <path clip-path="url(#p48842af16a)" d="M 56.704761 224.64 
C 61.510241 224.64 66.119548 222.730762 69.517536 219.332775 
C 72.915523 215.934787 74.824761 211.32548 74.824761 206.52 
C 74.824761 201.71452 72.915523 197.105213 69.517536 193.707225 
C 66.119548 190.309238 61.510241 188.4 56.704761 188.4 
C 51.89928 188.4 47.289973 190.309238 43.891986 193.707225 
C 40.493998 197.105213 38.584761 201.71452 38.584761 206.52 
C 38.584761 211.32548 40.493998 215.934787 43.891986 219.332775 
C 47.289973 222.730762 51.89928 224.64 56.704761 224.64 
z
" style="fill:none;stroke:#000000;stroke-linejoin:miter;stroke-width:0.2;"/>
   </g>
   <g id="patch_32">
    <path clip-path="url(#p48842af16a)" d="M 213.628564 97.8 
C 218.434044 97.8 223.043351 95.890762 226.441339 92.492775 
C 229.839326 89.094787 231.748564 84.48548 231.748564 79.68 
C 231.748564 74.87452 229.839326 70.265213 226.441339 66.867225 
C 223.043351 63.469238 218.434044 61.56 213.628564 61.56 
C 208.823084 61.56 204.213777 63.469238 200.815789 66.867225 
C 197.417801 70.265213 195.508564 74.87452 195.508564 79.68 
C 195.508564 84.48548 197.417801 89.094787 200.815789 92.492775 
C 204.213777 95.890762 208.823084 97.8 213.628564 97.8 
z
" style="fill:none;stroke:#000000;stroke-linejoin:miter;stroke-width:0.2;"/>
   </g>
   <g id="patch_33">
    <path clip-path="url(#p48842af16a)" d="M 182.243803 43.44 
C 187.049283 43.44 191.65859 41.530762 195.056578 38.132775 
C 198.454566 34.734787 200.363803 30.12548 200.363803 25.32 
C 200.363803 20.51452 198.454566 15.905213 195.056578 12.507225 
C 191.65859 9.109238 187.049283 7.2 182.243803 7.2 
C 177.438323 7.2 172.829016 9.109238 169.431028 12.507225 
C 166.033041 15.905213 164.123803 20.51452 164.123803 25.32 
C 164.123803 30.12548 166.033041 34.734787 169.431028 38.132775 
C 172.829016 41.530762 177.438323 43.44 182.243803 43.44 
z
" style="fill:none;stroke:#000000;stroke-linejoin:miter;stroke-width:0.2;"/>
   </g>
   <g id="patch_34">
    <path clip-path="url(#p48842af16a)" d="M 213.628564 170.28 
C 218.434044 170.28 223.043351 168.370762 226.441339 164.972775 
C 229.839326 161.574787 231.748564 156.96548 231.748564 152.16 
C 231.748564 147.35452 229.839326 142.745213 226.441339 139.347225 
C 223.043351 135.949238 218.434044 134.04 213.628564 134.04 
C 208.823084 134.04 204.213777 135.949238 200.815789 139.347225 
C 197.417801 142.745213 195.508564 147.35452 195.508564 152.16 
C 195.508564 156.96548 197.417801 161.574787 200.815789 164.972775 
C 204.213777 168.370762 208.823084 170.28 213.628564 170.28 
z
" style="fill:none;stroke:#000000;stroke-linejoin:miter;stroke-width:0.2;"/>
   </g>
   <g id="patch_35">
    <path clip-path="url(#p48842af16a)" d="M 182.243803 224.64 
C 187.049283 224.64 191.65859 222.730762 195.056578 219.332775 
C 198.454566 215.934787 200.363803 211.32548 200.363803 206.52 
C 200.363803 201.71452 198.454566 197.105213 195.056578 193.707225 
C 191.65859 190.309238 187.049283 188.4 182.243803 188.4 
C 177.438323 188.4 172.829016 190.309238 169.431028 193.707225 
C 166.033041 197.105213 164.123803 201.71452 164.123803 206.52 
C 164.123803 211.32548 166.033041 215.934787 169.431028 219.332775 
C 172.829016 222.730762 177.438323 224.64 182.243803 224.64 
z
" style="fill:none;stroke:#000000;stroke-linejoin:miter;stroke-width:0.2;"/>
   </g>
   <g id="patch_36">
    <path clip-path="url(#p48842af16a)" d="M 25.32 61.56 
C 30.12548 61.56 34.734787 59.650762 38.132775 56.252775 
C 41.530762 52.854787 43.44 48.24548 43.44 43.44 
C 43.44 38.63452 41.530762 34.025213 38.132775 30.627225 
C 34.734787 27.229238 30.12548 25.32 25.32 25.32 
C 20.51452 25.32 15.905213 27.229238 12.507225 30.627225 
C 9.109238 34.025213 7.2 38.63452 7.2 43.44 
C 7.2 48.24548 9.109238 52.854787 12.507225 56.252775 
C 15.905213 59.650762 20.51452 61.56 25.32 61.56 
z
" style="fill:none;stroke:#000000;stroke-linejoin:miter;stroke-width:0.2;"/>
   </g>
   <g id="patch_37">
    <path clip-path="url(#p48842af16a)" d="M 25.32 206.52 
C 30.12548 206.52 34.734787 204.610762 38.132775 201.212775 
C 41.530762 197.814787 43.44 193.20548 43.44 188.4 
C 43.44 183.59452 41.530762 178.985213 38.132775 175.587225 
C 34.734787 172.189238 30.12548 170.28 25.32 170.28 
C 20.51452 170.28 15.905213 172.189238 12.507225 175.587225 
C 9.109238 178.985213 7.2 183.59452 7.2 188.4 
C 7.2 193.20548 9.109238 197.814787 12.507225 201.212775 
C 15.905213 204.610762 20.51452 206.52 25.32 206.52 
z
" style="fill:none;stroke:#000000;stroke-linejoin:miter;stroke-width:0.2;"/>
   </g>
   <g id="patch_38">
    <path clip-path="url(#p48842af16a)" d="M 213.628564 61.56 
C 218.434044 61.56 223.043351 59.650762 226.441339 56.252775 
C 229.839326 52.854787 231.748564 48.24548 231.748564 43.44 
C 231.748564 38.63452 229.839326 34.025213 226.441339 30.627225 
C 223.043351 27.229238 218.434044 25.32 213.628564 25.32 
C 208.823084 25.32 204.213777 27.229238 200.815789 30.627225 
C 197.417801 34.025213 195.508564 38.63452 195.508564 43.44 
C 195.508564 48.24548 197.417801 52.854787 200.815789 56.252775 
C 204.213777 59.650762 208.823084 61.56 213.628564 61.56 
z
" style="fill:none;stroke:#000000;stroke-linejoin:miter;stroke-width:0.2;"/>
   </g>
   <g id="patch_39">
    <path clip-path="url(#p48842af16a)" d="M 213.628564 206.52 
C 218.434044 206.52 223.043351 204.610762 226.441339 201.212775 
C 229.839326 197.814787 231.748564 193.20548 231.748564 188.4 
C 231.748564 183.59452 229.839326 178.985213 226.441339 175.587225 
C 223.043351 172.189238 218.434044 170.28 213.628564 170.28 
C 208.823084 170.28 204.213777 172.189238 200.815789 175.587225 
C 197.417801 178.985213 195.508564 183.59452 195.508564 188.4 
C 195.508564 193.20548 197.417801 197.814787 200.815789 201.212775 
C 204.213777 204.610762 208.823084 206.52 213.628564 206.52 
z
" style="fill:none;stroke:#000000;stroke-linejoin:miter;stroke-width:0.2;"/>
   </g>
  </g>
 </g>
 <defs>
  <clipPath id="p48842af16a">
   <rect height="217.44" width="224.548564" x="7.2" y="7.2"/>
  </clipPath>
 </defs>
</svg>
