<?xml version="1.0" encoding="utf-8" standalone="no"?>
<!DOCTYPE svg PUBLIC "-//W3C//DTD SVG 1.1//EN"
  "http://www.w3.org/Graphics/SVG/1.1/DTD/svg11.dtd">
<svg height="231.84pt" version="1.1" viewBox="0 0 231.84 231.84" width="231.84pt" xmlns="http://www.w3.org/2000/svg" xmlns:xlink="http://www.w3.org/1999/xlink">
 <metadata>
  <rdf:RDF xmlns:cc="http://creativecommons.org/ns#" xmlns:dc="http://purl.org/dc/elements/1.1/" xmlns:rdf="http://www.w3.org/1999/02/22-rdf-syntax-ns#">
   <cc:Work>
    <dc:type rdf:resource="http://purl.org/dc/dcmitype/StillImage"/>
    <dc:date>2022-05-14T14:00:01.868762</dc:date>
    <dc:format>image/svg+xml</dc:format>
    <dc:creator>
     <cc:Agent>
      <dc:title>Matplotlib v3.4.3, https://matplotlib.org/</dc:title>
     </cc:Agent>
    </dc:creator>
   </cc:Work>
  </rdf:RDF>
 </metadata>
 <defs>
  <style type="text/css">*{stroke-linecap:butt;stroke-linejoin:round;}</style>
 </defs>
 <g id="figure_1">
  <g id="patch_1">
   <path d="M 0 231.84 
L 231.84 231.84 
L 231.84 0 
L 0 0 
z
" style="fill:#ffffff;"/>
  </g>
  <g id="axes_1">
   <g id="patch_2">
    <path clip-path="url(#p0861dadaae)" d="M 115.92 115.92 
C 116.423229 115.92 116.905914 115.720065 117.261751 115.364229 
C 117.617587 115.008392 117.817522 114.525707 117.817522 114.022478 
C 117.817522 113.519249 117.617587 113.036564 117.261751 112.680727 
C 116.905914 112.324891 116.423229 112.124956 115.92 112.124956 
C 115.416771 112.124956 114.934086 112.324891 114.578249 112.680727 
C 114.222413 113.036564 114.022478 113.519249 114.022478 114.022478 
C 114.022478 114.525707 114.222413 115.008392 114.578249 115.364229 
C 114.934086 115.720065 115.416771 115.92 115.92 115.92 
z
" style="fill:none;stroke:#000000;stroke-linejoin:miter;stroke-width:0.2;"/>
   </g>
   <g id="patch_3">
    <path clip-path="url(#p0861dadaae)" d="M 115.92 119.715044 
C 116.423229 119.715044 116.905914 119.515109 117.261751 119.159273 
C 117.617587 118.803436 117.817522 118.320751 117.817522 117.817522 
C 117.817522 117.314293 117.617587 116.831608 117.261751 116.475771 
C 116.905914 116.119935 116.423229 115.92 115.92 115.92 
C 115.416771 115.92 114.934086 116.119935 114.578249 116.475771 
C 114.222413 116.831608 114.022478 117.314293 114.022478 117.817522 
C 114.022478 118.320751 114.222413 118.803436 114.578249 119.159273 
C 114.934086 119.515109 115.416771 119.715044 115.92 119.715044 
z
" style="fill:none;stroke:#000000;stroke-linejoin:miter;stroke-width:0.2;"/>
   </g>
   <g id="patch_4">
    <path clip-path="url(#p0861dadaae)" d="M 112.470874 117.959108 
C 113.011652 117.959108 113.530354 117.744255 113.912742 117.361867 
C 114.295129 116.97948 114.509983 116.460778 114.509983 115.92 
C 114.509983 115.379222 114.295129 114.86052 113.912742 114.478133 
C 113.530354 114.095745 113.011652 113.880892 112.470874 113.880892 
C 111.930096 113.880892 111.411395 114.095745 111.029007 114.478133 
C 110.646619 114.86052 110.431766 115.379222 110.431766 115.92 
C 110.431766 116.460778 110.646619 116.97948 111.029007 117.361867 
C 111.411395 117.744255 111.930096 117.959108 112.470874 117.959108 
z
" style="fill:none;stroke:#000000;stroke-linejoin:miter;stroke-width:0.2;"/>
   </g>
   <g id="patch_5">
    <path clip-path="url(#p0861dadaae)" d="M 119.369126 117.959108 
C 119.909904 117.959108 120.428605 117.744255 120.810993 117.361867 
C 121.193381 116.97948 121.408234 116.460778 121.408234 115.92 
C 121.408234 115.379222 121.193381 114.86052 120.810993 114.478133 
C 120.428605 114.095745 119.909904 113.880892 119.369126 113.880892 
C 118.828348 113.880892 118.309646 114.095745 117.927258 114.478133 
C 117.544871 114.86052 117.330017 115.379222 117.330017 115.92 
C 117.330017 116.460778 117.544871 116.97948 117.927258 117.361867 
C 118.309646 117.744255 118.828348 117.959108 119.369126 117.959108 
z
" style="fill:none;stroke:#000000;stroke-linejoin:miter;stroke-width:0.2;"/>
   </g>
   <g id="patch_6">
    <path clip-path="url(#p0861dadaae)" d="M 112.559975 113.88183 
C 113.141816 113.88183 113.699904 113.650662 114.111327 113.239239 
C 114.52275 112.827816 114.753918 112.269728 114.753918 111.687887 
C 114.753918 111.106047 114.52275 110.547959 114.111327 110.136536 
C 113.699904 109.725113 113.141816 109.493945 112.559975 109.493945 
C 111.978135 109.493945 111.420047 109.725113 111.008624 110.136536 
C 110.597201 110.547959 110.366033 111.106047 110.366033 111.687887 
C 110.366033 112.269728 110.597201 112.827816 111.008624 113.239239 
C 111.420047 113.650662 111.978135 113.88183 112.559975 113.88183 
z
" style="fill:none;stroke:#000000;stroke-linejoin:miter;stroke-width:0.2;"/>
   </g>
   <g id="patch_7">
    <path clip-path="url(#p0861dadaae)" d="M 112.559975 122.346055 
C 113.141816 122.346055 113.699904 122.114887 114.111327 121.703464 
C 114.52275 121.292041 114.753918 120.733953 114.753918 120.152113 
C 114.753918 119.570272 114.52275 119.012184 114.111327 118.600761 
C 113.699904 118.189338 113.141816 117.95817 112.559975 117.95817 
C 111.978135 117.95817 111.420047 118.189338 111.008624 118.600761 
C 110.597201 119.012184 110.366033 119.570272 110.366033 120.152113 
C 110.366033 120.733953 110.597201 121.292041 111.008624 121.703464 
C 111.420047 122.114887 111.978135 122.346055 112.559975 122.346055 
z
" style="fill:none;stroke:#000000;stroke-linejoin:miter;stroke-width:0.2;"/>
   </g>
   <g id="patch_8">
    <path clip-path="url(#p0861dadaae)" d="M 119.280025 113.88183 
C 119.861865 113.88183 120.419953 113.650662 120.831376 113.239239 
C 121.242799 112.827816 121.473967 112.269728 121.473967 111.687887 
C 121.473967 111.106047 121.242799 110.547959 120.831376 110.136536 
C 120.419953 109.725113 119.861865 109.493945 119.280025 109.493945 
C 118.698184 109.493945 118.140096 109.725113 117.728673 110.136536 
C 117.31725 110.547959 117.086082 111.106047 117.086082 111.687887 
C 117.086082 112.269728 117.31725 112.827816 117.728673 113.239239 
C 118.140096 113.650662 118.698184 113.88183 119.280025 113.88183 
z
" style="fill:none;stroke:#000000;stroke-linejoin:miter;stroke-width:0.2;"/>
   </g>
   <g id="patch_9">
    <path clip-path="url(#p0861dadaae)" d="M 119.280025 122.346055 
C 119.861865 122.346055 120.419953 122.114887 120.831376 121.703464 
C 121.242799 121.292041 121.473967 120.733953 121.473967 120.152113 
C 121.473967 119.570272 121.242799 119.012184 120.831376 118.600761 
C 120.419953 118.189338 119.861865 117.95817 119.280025 117.95817 
C 118.698184 117.95817 118.140096 118.189338 117.728673 118.600761 
C 117.31725 119.012184 117.086082 119.570272 117.086082 120.152113 
C 117.086082 120.733953 117.31725 121.292041 117.728673 121.703464 
C 118.140096 122.114887 118.698184 122.346055 119.280025 122.346055 
z
" style="fill:none;stroke:#000000;stroke-linejoin:miter;stroke-width:0.2;"/>
   </g>
   <g id="patch_10">
    <path clip-path="url(#p0861dadaae)" d="M 115.92031 112.124956 
C 116.256449 112.124956 116.578866 111.991407 116.816552 111.75372 
C 117.054238 111.516034 117.187788 111.193617 117.187788 110.857478 
C 117.187788 110.521339 117.054238 110.198922 116.816552 109.961236 
C 116.578866 109.72355 116.256449 109.590001 115.92031 109.590001 
C 115.584171 109.590001 115.261754 109.72355 115.024068 109.961236 
C 114.786382 110.198922 114.652832 110.521339 114.652832 110.857478 
C 114.652832 111.193617 114.786382 111.516034 115.024068 111.75372 
C 115.261754 111.991407 115.584171 112.124956 115.92031 112.124956 
z
" style="fill:none;stroke:#000000;stroke-linejoin:miter;stroke-width:0.2;"/>
   </g>
   <g id="patch_11">
    <path clip-path="url(#p0861dadaae)" d="M 108.446059 116.356517 
C 109.101225 116.356517 109.729645 116.096216 110.192918 115.632944 
C 110.65619 115.169672 110.91649 114.541251 110.91649 113.886085 
C 110.91649 113.230919 110.65619 112.602499 110.192918 112.139226 
C 109.729645 111.675954 109.101225 111.415654 108.446059 111.415654 
C 107.790893 111.415654 107.162472 111.675954 106.6992 112.139226 
C 106.235928 112.602499 105.975627 113.230919 105.975627 113.886085 
C 105.975627 114.541251 106.235928 115.169672 106.6992 115.632944 
C 107.162472 116.096216 107.790893 116.356517 108.446059 116.356517 
z
" style="fill:none;stroke:#000000;stroke-linejoin:miter;stroke-width:0.2;"/>
   </g>
   <g id="patch_12">
    <path clip-path="url(#p0861dadaae)" d="M 115.92031 122.249999 
C 116.256449 122.249999 116.578866 122.11645 116.816552 121.878764 
C 117.054238 121.641078 117.187788 121.318661 117.187788 120.982522 
C 117.187788 120.646383 117.054238 120.323966 116.816552 120.08628 
C 116.578866 119.848593 116.256449 119.715044 115.92031 119.715044 
C 115.584171 119.715044 115.261754 119.848593 115.024068 120.08628 
C 114.786382 120.323966 114.652832 120.646383 114.652832 120.982522 
C 114.652832 121.318661 114.786382 121.641078 115.024068 121.878764 
C 115.261754 122.11645 115.584171 122.249999 115.92031 122.249999 
z
" style="fill:none;stroke:#000000;stroke-linejoin:miter;stroke-width:0.2;"/>
   </g>
   <g id="patch_13">
    <path clip-path="url(#p0861dadaae)" d="M 109.335087 119.666875 
C 109.786893 119.666875 110.220255 119.487371 110.539731 119.167895 
C 110.859206 118.84842 111.03871 118.415058 111.03871 117.963252 
C 111.03871 117.511446 110.859206 117.078083 110.539731 116.758608 
C 110.220255 116.439133 109.786893 116.259628 109.335087 116.259628 
C 108.883281 116.259628 108.449918 116.439133 108.130443 116.758608 
C 107.810968 117.078083 107.631463 117.511446 107.631463 117.963252 
C 107.631463 118.415058 107.810968 118.84842 108.130443 119.167895 
C 108.449918 119.487371 108.883281 119.666875 109.335087 119.666875 
z
" style="fill:none;stroke:#000000;stroke-linejoin:miter;stroke-width:0.2;"/>
   </g>
   <g id="patch_14">
    <path clip-path="url(#p0861dadaae)" d="M 123.393941 116.356517 
C 124.049107 116.356517 124.677528 116.096216 125.1408 115.632944 
C 125.604072 115.169672 125.864373 114.541251 125.864373 113.886085 
C 125.864373 113.230919 125.604072 112.602499 125.1408 112.139226 
C 124.677528 111.675954 124.049107 111.415654 123.393941 111.415654 
C 122.738775 111.415654 122.110355 111.675954 121.647082 112.139226 
C 121.18381 112.602499 120.92351 113.230919 120.92351 113.886085 
C 120.92351 114.541251 121.18381 115.169672 121.647082 115.632944 
C 122.110355 116.096216 122.738775 116.356517 123.393941 116.356517 
z
" style="fill:none;stroke:#000000;stroke-linejoin:miter;stroke-width:0.2;"/>
   </g>
   <g id="patch_15">
    <path clip-path="url(#p0861dadaae)" d="M 122.504913 119.666875 
C 122.956719 119.666875 123.390082 119.487371 123.709557 119.167895 
C 124.029032 118.84842 124.208537 118.415058 124.208537 117.963252 
C 124.208537 117.511446 124.029032 117.078083 123.709557 116.758608 
C 123.390082 116.439133 122.956719 116.259628 122.504913 116.259628 
C 122.053107 116.259628 121.619745 116.439133 121.300269 116.758608 
C 120.980794 117.078083 120.80129 117.511446 120.80129 117.963252 
C 120.80129 118.415058 120.980794 118.84842 121.300269 119.167895 
C 121.619745 119.487371 122.053107 119.666875 122.504913 119.666875 
z
" style="fill:none;stroke:#000000;stroke-linejoin:miter;stroke-width:0.2;"/>
   </g>
   <g id="patch_16">
    <path clip-path="url(#p0861dadaae)" d="M 114.447988 109.879174 
C 115.144217 109.879174 115.812023 109.602559 116.304331 109.110251 
C 116.796639 108.617943 117.073254 107.950137 117.073254 107.253908 
C 117.073254 106.55768 116.796639 105.889873 116.304331 105.397565 
C 115.812023 104.905257 115.144217 104.628643 114.447988 104.628643 
C 113.75176 104.628643 113.083953 104.905257 112.591645 105.397565 
C 112.099337 105.889873 111.822723 106.55768 111.822723 107.253908 
C 111.822723 107.950137 112.099337 108.617943 112.591645 109.110251 
C 113.083953 109.602559 113.75176 109.879174 114.447988 109.879174 
z
" style="fill:none;stroke:#000000;stroke-linejoin:miter;stroke-width:0.2;"/>
   </g>
   <g id="patch_17">
    <path clip-path="url(#p0861dadaae)" d="M 117.375131 110.146805 
C 117.616866 110.146805 117.848732 110.050762 118.019664 109.87983 
C 118.190596 109.708898 118.286639 109.477032 118.286639 109.235297 
C 118.286639 108.993563 118.190596 108.761696 118.019664 108.590764 
C 117.848732 108.419832 117.616866 108.32379 117.375131 108.32379 
C 117.133397 108.32379 116.90153 108.419832 116.730598 108.590764 
C 116.559666 108.761696 116.463624 108.993563 116.463624 109.235297 
C 116.463624 109.477032 116.559666 109.708898 116.730598 109.87983 
C 116.90153 110.050762 117.133397 110.146805 117.375131 110.146805 
z
" style="fill:none;stroke:#000000;stroke-linejoin:miter;stroke-width:0.2;"/>
   </g>
   <g id="patch_18">
    <path clip-path="url(#p0861dadaae)" d="M 108.56971 111.417075 
C 109.340731 111.417075 110.080277 111.110746 110.625471 110.565551 
C 111.170665 110.020357 111.476995 109.280812 111.476995 108.509791 
C 111.476995 107.73877 111.170665 106.999224 110.625471 106.45403 
C 110.080277 105.908836 109.340731 105.602506 108.56971 105.602506 
C 107.798689 105.602506 107.059143 105.908836 106.513949 106.45403 
C 105.968755 106.999224 105.662425 107.73877 105.662425 108.509791 
C 105.662425 109.280812 105.968755 110.020357 106.513949 110.565551 
C 107.059143 111.110746 107.798689 111.417075 108.56971 111.417075 
z
" style="fill:none;stroke:#000000;stroke-linejoin:miter;stroke-width:0.2;"/>
   </g>
   <g id="patch_19">
    <path clip-path="url(#p0861dadaae)" d="M 114.447988 127.211357 
C 115.144217 127.211357 115.812023 126.934743 116.304331 126.442435 
C 116.796639 125.950127 117.073254 125.28232 117.073254 124.586092 
C 117.073254 123.889863 116.796639 123.222057 116.304331 122.729749 
C 115.812023 122.237441 115.144217 121.960826 114.447988 121.960826 
C 113.75176 121.960826 113.083953 122.237441 112.591645 122.729749 
C 112.099337 123.222057 111.822723 123.889863 111.822723 124.586092 
C 111.822723 125.28232 112.099337 125.950127 112.591645 126.442435 
C 113.083953 126.934743 113.75176 127.211357 114.447988 127.211357 
z
" style="fill:none;stroke:#000000;stroke-linejoin:miter;stroke-width:0.2;"/>
   </g>
   <g id="patch_20">
    <path clip-path="url(#p0861dadaae)" d="M 117.375131 123.51621 
C 117.616866 123.51621 117.848732 123.420168 118.019664 123.249236 
C 118.190596 123.078304 118.286639 122.846437 118.286639 122.604703 
C 118.286639 122.362968 118.190596 122.131102 118.019664 121.96017 
C 117.848732 121.789238 117.616866 121.693195 117.375131 121.693195 
C 117.133397 121.693195 116.90153 121.789238 116.730598 121.96017 
C 116.559666 122.131102 116.463624 122.362968 116.463624 122.604703 
C 116.463624 122.846437 116.559666 123.078304 116.730598 123.249236 
C 116.90153 123.420168 117.133397 123.51621 117.375131 123.51621 
z
" style="fill:none;stroke:#000000;stroke-linejoin:miter;stroke-width:0.2;"/>
   </g>
   <g id="patch_21">
    <path clip-path="url(#p0861dadaae)" d="M 107.997505 125.18703 
C 108.75606 125.18703 109.483649 124.885652 110.020029 124.349272 
C 110.556409 123.812893 110.857786 123.085304 110.857786 122.326748 
C 110.857786 121.568193 110.556409 120.840604 110.020029 120.304224 
C 109.483649 119.767844 108.75606 119.466467 107.997505 119.466467 
C 107.238949 119.466467 106.51136 119.767844 105.97498 120.304224 
C 105.438601 120.840604 105.137223 121.568193 105.137223 122.326748 
C 105.137223 123.085304 105.438601 123.812893 105.97498 124.349272 
C 106.51136 124.885652 107.238949 125.18703 107.997505 125.18703 
z
" style="fill:none;stroke:#000000;stroke-linejoin:miter;stroke-width:0.2;"/>
   </g>
   <g id="patch_22">
    <path clip-path="url(#p0861dadaae)" d="M 104.943679 120.381558 
C 105.658824 120.381558 106.344774 120.097428 106.850458 119.591744 
C 107.356142 119.08606 107.640272 118.400109 107.640272 117.684964 
C 107.640272 116.969819 107.356142 116.283868 106.850458 115.778185 
C 106.344774 115.272501 105.658824 114.98837 104.943679 114.98837 
C 104.228533 114.98837 103.542583 115.272501 103.036899 115.778185 
C 102.531215 116.283868 102.247085 116.969819 102.247085 117.684964 
C 102.247085 118.400109 102.531215 119.08606 103.036899 119.591744 
C 103.542583 120.097428 104.228533 120.381558 104.943679 120.381558 
z
" style="fill:none;stroke:#000000;stroke-linejoin:miter;stroke-width:0.2;"/>
   </g>
   <g id="patch_23">
    <path clip-path="url(#p0861dadaae)" d="M 123.27029 111.417075 
C 124.041311 111.417075 124.780857 111.110746 125.326051 110.565551 
C 125.871245 110.020357 126.177575 109.280812 126.177575 108.509791 
C 126.177575 107.73877 125.871245 106.999224 125.326051 106.45403 
C 124.780857 105.908836 124.041311 105.602506 123.27029 105.602506 
C 122.499269 105.602506 121.759723 105.908836 121.214529 106.45403 
C 120.669335 106.999224 120.363005 107.73877 120.363005 108.509791 
C 120.363005 109.280812 120.669335 110.020357 121.214529 110.565551 
C 121.759723 111.110746 122.499269 111.417075 123.27029 111.417075 
z
" style="fill:none;stroke:#000000;stroke-linejoin:miter;stroke-width:0.2;"/>
   </g>
   <g id="patch_24">
    <path clip-path="url(#p0861dadaae)" d="M 123.842495 125.18703 
C 124.601051 125.18703 125.32864 124.885652 125.86502 124.349272 
C 126.401399 123.812893 126.702777 123.085304 126.702777 122.326748 
C 126.702777 121.568193 126.401399 120.840604 125.86502 120.304224 
C 125.32864 119.767844 124.601051 119.466467 123.842495 119.466467 
C 123.08394 119.466467 122.356351 119.767844 121.819971 120.304224 
C 121.283591 120.840604 120.982214 121.568193 120.982214 122.326748 
C 120.982214 123.085304 121.283591 123.812893 121.819971 124.349272 
C 122.356351 124.885652 123.08394 125.18703 123.842495 125.18703 
z
" style="fill:none;stroke:#000000;stroke-linejoin:miter;stroke-width:0.2;"/>
   </g>
   <g id="patch_25">
    <path clip-path="url(#p0861dadaae)" d="M 126.896321 120.381558 
C 127.611467 120.381558 128.297417 120.097428 128.803101 119.591744 
C 129.308785 119.08606 129.592915 118.400109 129.592915 117.684964 
C 129.592915 116.969819 129.308785 116.283868 128.803101 115.778185 
C 128.297417 115.272501 127.611467 114.98837 126.896321 114.98837 
C 126.181176 114.98837 125.495226 115.272501 124.989542 115.778185 
C 124.483858 116.283868 124.199728 116.969819 124.199728 117.684964 
C 124.199728 118.400109 124.483858 119.08606 124.989542 119.591744 
C 125.495226 120.097428 126.181176 120.381558 126.896321 120.381558 
z
" style="fill:none;stroke:#000000;stroke-linejoin:miter;stroke-width:0.2;"/>
   </g>
   <g id="patch_26">
    <path clip-path="url(#p0861dadaae)" d="M 119.228051 109.49435 
C 119.530462 109.49435 119.820527 109.374201 120.034364 109.160365 
C 120.2482 108.946528 120.368349 108.656463 120.368349 108.354052 
C 120.368349 108.051641 120.2482 107.761576 120.034364 107.547739 
C 119.820527 107.333903 119.530462 107.213754 119.228051 107.213754 
C 118.925641 107.213754 118.635575 107.333903 118.421739 107.547739 
C 118.207902 107.761576 118.087753 108.051641 118.087753 108.354052 
C 118.087753 108.656463 118.207902 108.946528 118.421739 109.160365 
C 118.635575 109.374201 118.925641 109.49435 119.228051 109.49435 
z
" style="fill:none;stroke:#000000;stroke-linejoin:miter;stroke-width:0.2;"/>
   </g>
   <g id="patch_27">
    <path clip-path="url(#p0861dadaae)" d="M 102.799459 115.208923 
C 103.76186 115.208923 104.684974 114.826557 105.365494 114.146037 
C 106.046015 113.465516 106.428381 112.542403 106.428381 111.580002 
C 106.428381 110.617601 106.046015 109.694487 105.365494 109.013967 
C 104.684974 108.333446 103.76186 107.95108 102.799459 107.95108 
C 101.837058 107.95108 100.913945 108.333446 100.233424 109.013967 
C 99.552904 109.694487 99.170538 110.617601 99.170538 111.580002 
C 99.170538 112.542403 99.552904 113.465516 100.233424 114.146037 
C 100.913945 114.826557 101.837058 115.208923 102.799459 115.208923 
z
" style="fill:none;stroke:#000000;stroke-linejoin:miter;stroke-width:0.2;"/>
   </g>
   <g id="patch_28">
    <path clip-path="url(#p0861dadaae)" d="M 119.58516 125.825402 
C 120.048096 125.825402 120.492134 125.641475 120.819479 125.31413 
C 121.146824 124.986785 121.330751 124.542747 121.330751 124.079811 
C 121.330751 123.616875 121.146824 123.172837 120.819479 122.845492 
C 120.492134 122.518147 120.048096 122.33422 119.58516 122.33422 
C 119.122224 122.33422 118.678186 122.518147 118.350841 122.845492 
C 118.023496 123.172837 117.839569 123.616875 117.839569 124.079811 
C 117.839569 124.542747 118.023496 124.986785 118.350841 125.31413 
C 118.678186 125.641475 119.122224 125.825402 119.58516 125.825402 
z
" style="fill:none;stroke:#000000;stroke-linejoin:miter;stroke-width:0.2;"/>
   </g>
   <g id="patch_29">
    <path clip-path="url(#p0861dadaae)" d="M 100.765674 127.97031 
C 101.950252 127.97031 103.086473 127.499672 103.924096 126.662049 
C 104.76172 125.824425 105.232358 124.688205 105.232358 123.503626 
C 105.232358 122.319048 104.76172 121.182827 103.924096 120.345204 
C 103.086473 119.50758 101.950252 119.036942 100.765674 119.036942 
C 99.581095 119.036942 98.444875 119.50758 97.607251 120.345204 
C 96.769628 121.182827 96.29899 122.319048 96.29899 123.503626 
C 96.29899 124.688205 96.769628 125.824425 97.607251 126.662049 
C 98.444875 127.499672 99.581095 127.97031 100.765674 127.97031 
z
" style="fill:none;stroke:#000000;stroke-linejoin:miter;stroke-width:0.2;"/>
   </g>
   <g id="patch_30">
    <path clip-path="url(#p0861dadaae)" d="M 129.040541 115.208923 
C 130.002942 115.208923 130.926055 114.826557 131.606576 114.146037 
C 132.287096 113.465516 132.669462 112.542403 132.669462 111.580002 
C 132.669462 110.617601 132.287096 109.694487 131.606576 109.013967 
C 130.926055 108.333446 130.002942 107.95108 129.040541 107.95108 
C 128.07814 107.95108 127.155026 108.333446 126.474506 109.013967 
C 125.793985 109.694487 125.411619 110.617601 125.411619 111.580002 
C 125.411619 112.542403 125.793985 113.465516 126.474506 114.146037 
C 127.155026 114.826557 128.07814 115.208923 129.040541 115.208923 
z
" style="fill:none;stroke:#000000;stroke-linejoin:miter;stroke-width:0.2;"/>
   </g>
   <g id="patch_31">
    <path clip-path="url(#p0861dadaae)" d="M 131.074326 127.97031 
C 132.258905 127.97031 133.395125 127.499672 134.232749 126.662049 
C 135.070372 125.824425 135.54101 124.688205 135.54101 123.503626 
C 135.54101 122.319048 135.070372 121.182827 134.232749 120.345204 
C 133.395125 119.50758 132.258905 119.036942 131.074326 119.036942 
C 129.889748 119.036942 128.753527 119.50758 127.915904 120.345204 
C 127.07828 121.182827 126.607642 122.319048 126.607642 123.503626 
C 126.607642 124.688205 127.07828 125.824425 127.915904 126.662049 
C 128.753527 127.499672 129.889748 127.97031 131.074326 127.97031 
z
" style="fill:none;stroke:#000000;stroke-linejoin:miter;stroke-width:0.2;"/>
   </g>
   <g id="patch_32">
    <path clip-path="url(#p0861dadaae)" d="M 103.010706 107.953715 
C 104.294274 107.953715 105.525444 107.443748 106.433063 106.536129 
C 107.340683 105.628509 107.85065 104.397339 107.85065 103.113771 
C 107.85065 101.830203 107.340683 100.599033 106.433063 99.691413 
C 105.525444 98.783794 104.294274 98.273827 103.010706 98.273827 
C 101.727138 98.273827 100.495968 98.783794 99.588348 99.691413 
C 98.680728 100.599033 98.170761 101.830203 98.170761 103.113771 
C 98.170761 104.397339 98.680728 105.628509 99.588348 106.536129 
C 100.495968 107.443748 101.727138 107.953715 103.010706 107.953715 
z
" style="fill:none;stroke:#000000;stroke-linejoin:miter;stroke-width:0.2;"/>
   </g>
   <g id="patch_33">
    <path clip-path="url(#p0861dadaae)" d="M 107.174145 133.541373 
C 108.288331 133.541373 109.357033 133.098702 110.144881 132.310854 
C 110.932729 131.523006 111.3754 130.454304 111.3754 129.340119 
C 111.3754 128.225933 110.932729 127.157231 110.144881 126.369383 
C 109.357033 125.581535 108.288331 125.138864 107.174145 125.138864 
C 106.05996 125.138864 104.991258 125.581535 104.20341 126.369383 
C 103.415562 127.157231 102.972891 128.225933 102.972891 129.340119 
C 102.972891 130.454304 103.415562 131.523006 104.20341 132.310854 
C 104.991258 133.098702 106.05996 133.541373 107.174145 133.541373 
z
" style="fill:none;stroke:#000000;stroke-linejoin:miter;stroke-width:0.2;"/>
   </g>
   <g id="patch_34">
    <path clip-path="url(#p0861dadaae)" d="M 100.053196 119.074707 
C 100.656006 119.074707 101.234208 118.835208 101.660458 118.408957 
C 102.086709 117.982707 102.326208 117.404505 102.326208 116.801695 
C 102.326208 116.198886 102.086709 115.620684 101.660458 115.194433 
C 101.234208 114.768183 100.656006 114.528684 100.053196 114.528684 
C 99.450387 114.528684 98.872185 114.768183 98.445934 115.194433 
C 98.019684 115.620684 97.780185 116.198886 97.780185 116.801695 
C 97.780185 117.404505 98.019684 117.982707 98.445934 118.408957 
C 98.872185 118.835208 99.450387 119.074707 100.053196 119.074707 
z
" style="fill:none;stroke:#000000;stroke-linejoin:miter;stroke-width:0.2;"/>
   </g>
   <g id="patch_35">
    <path clip-path="url(#p0861dadaae)" d="M 128.829294 107.953715 
C 130.112862 107.953715 131.344032 107.443748 132.251652 106.536129 
C 133.159272 105.628509 133.669239 104.397339 133.669239 103.113771 
C 133.669239 101.830203 133.159272 100.599033 132.251652 99.691413 
C 131.344032 98.783794 130.112862 98.273827 128.829294 98.273827 
C 127.545726 98.273827 126.314556 98.783794 125.406937 99.691413 
C 124.499317 100.599033 123.98935 101.830203 123.98935 103.113771 
C 123.98935 104.397339 124.499317 105.628509 125.406937 106.536129 
C 126.314556 107.443748 127.545726 107.953715 128.829294 107.953715 
z
" style="fill:none;stroke:#000000;stroke-linejoin:miter;stroke-width:0.2;"/>
   </g>
   <g id="patch_36">
    <path clip-path="url(#p0861dadaae)" d="M 124.665855 133.541373 
C 125.78004 133.541373 126.848742 133.098702 127.63659 132.310854 
C 128.424438 131.523006 128.867109 130.454304 128.867109 129.340119 
C 128.867109 128.225933 128.424438 127.157231 127.63659 126.369383 
C 126.848742 125.581535 125.78004 125.138864 124.665855 125.138864 
C 123.551669 125.138864 122.482967 125.581535 121.695119 126.369383 
C 120.907271 127.157231 120.4646 128.225933 120.4646 129.340119 
C 120.4646 130.454304 120.907271 131.523006 121.695119 132.310854 
C 122.482967 133.098702 123.551669 133.541373 124.665855 133.541373 
z
" style="fill:none;stroke:#000000;stroke-linejoin:miter;stroke-width:0.2;"/>
   </g>
   <g id="patch_37">
    <path clip-path="url(#p0861dadaae)" d="M 131.786804 119.074707 
C 132.389613 119.074707 132.967815 118.835208 133.394066 118.408957 
C 133.820316 117.982707 134.059815 117.404505 134.059815 116.801695 
C 134.059815 116.198886 133.820316 115.620684 133.394066 115.194433 
C 132.967815 114.768183 132.389613 114.528684 131.786804 114.528684 
C 131.183994 114.528684 130.605792 114.768183 130.179542 115.194433 
C 129.753291 115.620684 129.513792 116.198886 129.513792 116.801695 
C 129.513792 117.404505 129.753291 117.982707 130.179542 118.408957 
C 130.605792 118.835208 131.183994 119.074707 131.786804 119.074707 
z
" style="fill:none;stroke:#000000;stroke-linejoin:miter;stroke-width:0.2;"/>
   </g>
   <g id="patch_38">
    <path clip-path="url(#p0861dadaae)" d="M 110.764642 106.032166 
C 111.537442 106.032166 112.278694 105.725129 112.825146 105.178677 
C 113.371598 104.632225 113.678635 103.890973 113.678635 103.118173 
C 113.678635 102.345373 113.371598 101.604121 112.825146 101.057669 
C 112.278694 100.511217 111.537442 100.20418 110.764642 100.20418 
C 109.991842 100.20418 109.25059 100.511217 108.704138 101.057669 
C 108.157686 101.604121 107.850649 102.345373 107.850649 103.118173 
C 107.850649 103.890973 108.157686 104.632225 108.704138 105.178677 
C 109.25059 105.725129 109.991842 106.032166 110.764642 106.032166 
z
" style="fill:none;stroke:#000000;stroke-linejoin:miter;stroke-width:0.2;"/>
   </g>
   <g id="patch_39">
    <path clip-path="url(#p0861dadaae)" d="M 92.416078 115.855728 
C 94.31045 115.855728 96.127488 115.103086 97.467012 113.763563 
C 98.806535 112.424039 99.559177 110.607001 99.559177 108.712628 
C 99.559177 106.818256 98.806535 105.001217 97.467012 103.661694 
C 96.127488 102.32217 94.31045 101.569528 92.416078 101.569528 
C 90.521705 101.569528 88.704667 102.32217 87.365143 103.661694 
C 86.02562 105.001217 85.272978 106.818256 85.272978 108.712628 
C 85.272978 110.607001 86.02562 112.424039 87.365143 113.763563 
C 88.704667 115.103086 90.521705 115.855728 92.416078 115.855728 
z
" style="fill:none;stroke:#000000;stroke-linejoin:miter;stroke-width:0.2;"/>
   </g>
   <g id="patch_40">
    <path clip-path="url(#p0861dadaae)" d="M 110.72007 126.474774 
C 111.031074 126.474774 111.329381 126.351211 111.549294 126.131299 
C 111.769206 125.911386 111.892769 125.613079 111.892769 125.302075 
C 111.892769 124.991072 111.769206 124.692764 111.549294 124.472852 
C 111.329381 124.252939 111.031074 124.129376 110.72007 124.129376 
C 110.409067 124.129376 110.110759 124.252939 109.890847 124.472852 
C 109.670934 124.692764 109.547371 124.991072 109.547371 125.302075 
C 109.547371 125.613079 109.670934 125.911386 109.890847 126.131299 
C 110.110759 126.351211 110.409067 126.474774 110.72007 126.474774 
z
" style="fill:none;stroke:#000000;stroke-linejoin:miter;stroke-width:0.2;"/>
   </g>
   <g id="patch_41">
    <path clip-path="url(#p0861dadaae)" d="M 96.036076 144.359218 
C 98.326407 144.359218 100.523241 143.449259 102.14275 141.82975 
C 103.762259 140.210241 104.672218 138.013407 104.672218 135.723076 
C 104.672218 133.432744 103.762259 131.23591 102.14275 129.616401 
C 100.523241 127.996892 98.326407 127.086934 96.036076 127.086934 
C 93.745744 127.086934 91.54891 127.996892 89.929401 129.616401 
C 88.309892 131.23591 87.399934 133.432744 87.399934 135.723076 
C 87.399934 138.013407 88.309892 140.210241 89.929401 141.82975 
C 91.54891 143.449259 93.745744 144.359218 96.036076 144.359218 
z
" style="fill:none;stroke:#000000;stroke-linejoin:miter;stroke-width:0.2;"/>
   </g>
   <g id="patch_42">
    <path clip-path="url(#p0861dadaae)" d="M 95.004923 121.702957 
C 95.824471 121.702957 96.610564 121.377347 97.190072 120.797838 
C 97.76958 120.21833 98.09519 119.432238 98.09519 118.612689 
C 98.09519 117.793141 97.76958 117.007048 97.190072 116.42754 
C 96.610564 115.848032 95.824471 115.522421 95.004923 115.522421 
C 94.185374 115.522421 93.399282 115.848032 92.819774 116.42754 
C 92.240265 117.007048 91.914655 117.793141 91.914655 118.612689 
C 91.914655 119.432238 92.240265 120.21833 92.819774 120.797838 
C 93.399282 121.377347 94.185374 121.702957 95.004923 121.702957 
z
" style="fill:none;stroke:#000000;stroke-linejoin:miter;stroke-width:0.2;"/>
   </g>
   <g id="patch_43">
    <path clip-path="url(#p0861dadaae)" d="M 120.327704 106.296757 
C 121.30257 106.296757 122.23764 105.909439 122.926975 105.220104 
C 123.61631 104.530769 124.003628 103.595699 124.003628 102.620833 
C 124.003628 101.645966 123.61631 100.710896 122.926975 100.021561 
C 122.23764 99.332226 121.30257 98.944908 120.327704 98.944908 
C 119.352837 98.944908 118.417767 99.332226 117.728432 100.021561 
C 117.039098 100.710896 116.651779 101.645966 116.651779 102.620833 
C 116.651779 103.595699 117.039098 104.530769 117.728432 105.220104 
C 118.417767 105.909439 119.352837 106.296757 120.327704 106.296757 
z
" style="fill:none;stroke:#000000;stroke-linejoin:miter;stroke-width:0.2;"/>
   </g>
   <g id="patch_44">
    <path clip-path="url(#p0861dadaae)" d="M 139.423922 115.855728 
C 141.318295 115.855728 143.135333 115.103086 144.474857 113.763563 
C 145.81438 112.424039 146.567022 110.607001 146.567022 108.712628 
C 146.567022 106.818256 145.81438 105.001217 144.474857 103.661694 
C 143.135333 102.32217 141.318295 101.569528 139.423922 101.569528 
C 137.52955 101.569528 135.712512 102.32217 134.372988 103.661694 
C 133.033465 105.001217 132.280823 106.818256 132.280823 108.712628 
C 132.280823 110.607001 133.033465 112.424039 134.372988 113.763563 
C 135.712512 115.103086 137.52955 115.855728 139.423922 115.855728 
z
" style="fill:none;stroke:#000000;stroke-linejoin:miter;stroke-width:0.2;"/>
   </g>
   <g id="patch_45">
    <path clip-path="url(#p0861dadaae)" d="M 135.803924 144.359218 
C 138.094256 144.359218 140.29109 143.449259 141.910599 141.82975 
C 143.530108 140.210241 144.440066 138.013407 144.440066 135.723076 
C 144.440066 133.432744 143.530108 131.23591 141.910599 129.616401 
C 140.29109 127.996892 138.094256 127.086934 135.803924 127.086934 
C 133.513593 127.086934 131.316759 127.996892 129.69725 129.616401 
C 128.077741 131.23591 127.167782 133.432744 127.167782 135.723076 
C 127.167782 138.013407 128.077741 140.210241 129.69725 141.82975 
C 131.316759 143.449259 133.513593 144.359218 135.803924 144.359218 
z
" style="fill:none;stroke:#000000;stroke-linejoin:miter;stroke-width:0.2;"/>
   </g>
   <g id="patch_46">
    <path clip-path="url(#p0861dadaae)" d="M 136.835077 121.702957 
C 137.654626 121.702957 138.440718 121.377347 139.020226 120.797838 
C 139.599735 120.21833 139.925345 119.432238 139.925345 118.612689 
C 139.925345 117.793141 139.599735 117.007048 139.020226 116.42754 
C 138.440718 115.848032 137.654626 115.522421 136.835077 115.522421 
C 136.015529 115.522421 135.229436 115.848032 134.649928 116.42754 
C 134.07042 117.007048 133.74481 117.793141 133.74481 118.612689 
C 133.74481 119.432238 134.07042 120.21833 134.649928 120.797838 
C 135.229436 121.377347 136.015529 121.702957 136.835077 121.702957 
z
" style="fill:none;stroke:#000000;stroke-linejoin:miter;stroke-width:0.2;"/>
   </g>
   <g id="patch_47">
    <path clip-path="url(#p0861dadaae)" d="M 115.1816 104.694339 
C 115.580349 104.694339 115.96282 104.535915 116.244778 104.253957 
C 116.526737 103.971998 116.685161 103.589527 116.685161 103.190778 
C 116.685161 102.792029 116.526737 102.409558 116.244778 102.127599 
C 115.96282 101.845641 115.580349 101.687216 115.1816 101.687216 
C 114.782851 101.687216 114.400379 101.845641 114.118421 102.127599 
C 113.836463 102.409558 113.678038 102.792029 113.678038 103.190778 
C 113.678038 103.589527 113.836463 103.971998 114.118421 104.253957 
C 114.400379 104.535915 114.782851 104.694339 115.1816 104.694339 
z
" style="fill:none;stroke:#000000;stroke-linejoin:miter;stroke-width:0.2;"/>
   </g>
   <g id="patch_48">
    <path clip-path="url(#p0861dadaae)" d="M 109.484614 100.291079 
C 111.223535 100.291079 112.891469 99.600198 114.121072 98.370595 
C 115.350676 97.140991 116.041556 95.473057 116.041556 93.734136 
C 116.041556 91.995214 115.350676 90.32728 114.121072 89.097677 
C 112.891469 87.868074 111.223535 87.177193 109.484614 87.177193 
C 107.745692 87.177193 106.077758 87.868074 104.848155 89.097677 
C 103.618552 90.32728 102.927671 91.995214 102.927671 93.734136 
C 102.927671 95.473057 103.618552 97.140991 104.848155 98.370595 
C 106.077758 99.600198 107.745692 100.291079 109.484614 100.291079 
z
" style="fill:none;stroke:#000000;stroke-linejoin:miter;stroke-width:0.2;"/>
   </g>
   <g id="patch_49">
    <path clip-path="url(#p0861dadaae)" d="M 93.955675 101.643055 
C 96.345864 101.643055 98.63848 100.693423 100.328599 99.003304 
C 102.018718 97.313185 102.96835 95.020569 102.96835 92.63038 
C 102.96835 90.24019 102.018718 87.947575 100.328599 86.257456 
C 98.63848 84.567337 96.345864 83.617705 93.955675 83.617705 
C 91.565485 83.617705 89.27287 84.567337 87.582751 86.257456 
C 85.892632 87.947575 84.943 90.24019 84.943 92.63038 
C 84.943 95.020569 85.892632 97.313185 87.582751 99.003304 
C 89.27287 100.693423 91.565485 101.643055 93.955675 101.643055 
z
" style="fill:none;stroke:#000000;stroke-linejoin:miter;stroke-width:0.2;"/>
   </g>
   <g id="patch_50">
    <path clip-path="url(#p0861dadaae)" d="M 93.405689 127.389409 
C 94.188639 127.389409 94.939627 127.07834 95.493257 126.52471 
C 96.046886 125.971081 96.357956 125.220093 96.357956 124.437142 
C 96.357956 123.654192 96.046886 122.903204 95.493257 122.349574 
C 94.939627 121.795945 94.188639 121.484875 93.405689 121.484875 
C 92.622738 121.484875 91.87175 121.795945 91.318121 122.349574 
C 90.764491 122.903204 90.453422 123.654192 90.453422 124.437142 
C 90.453422 125.220093 90.764491 125.971081 91.318121 126.52471 
C 91.87175 127.07834 92.622738 127.389409 93.405689 127.389409 
z
" style="fill:none;stroke:#000000;stroke-linejoin:miter;stroke-width:0.2;"/>
   </g>
   <g id="patch_51">
    <path clip-path="url(#p0861dadaae)" d="M 111.18935 146.9559 
C 113.066124 146.9559 114.866283 146.21025 116.193362 144.88317 
C 117.520442 143.556091 118.266092 141.755932 118.266092 139.879158 
C 118.266092 138.002384 117.520442 136.202225 116.193362 134.875145 
C 114.866283 133.548065 113.066124 132.802415 111.18935 132.802415 
C 109.312576 132.802415 107.512417 133.548065 106.185337 134.875145 
C 104.858257 136.202225 104.112607 138.002384 104.112607 139.879158 
C 104.112607 141.755932 104.858257 143.556091 106.185337 144.88317 
C 107.512417 146.21025 109.312576 146.9559 111.18935 146.9559 
z
" style="fill:none;stroke:#000000;stroke-linejoin:miter;stroke-width:0.2;"/>
   </g>
   <g id="patch_52">
    <path clip-path="url(#p0861dadaae)" d="M 86.798917 124.873457 
C 88.174218 124.873457 89.493376 124.327044 90.465861 123.354559 
C 91.438346 122.382074 91.984759 121.062916 91.984759 119.687615 
C 91.984759 118.312313 91.438346 116.993155 90.465861 116.02067 
C 89.493376 115.048185 88.174218 114.501772 86.798917 114.501772 
C 85.423616 114.501772 84.104458 115.048185 83.131973 116.02067 
C 82.159488 116.993155 81.613075 118.312313 81.613075 119.687615 
C 81.613075 121.062916 82.159488 122.382074 83.131973 123.354559 
C 84.104458 124.327044 85.423616 124.873457 86.798917 124.873457 
z
" style="fill:none;stroke:#000000;stroke-linejoin:miter;stroke-width:0.2;"/>
   </g>
   <g id="patch_53">
    <path clip-path="url(#p0861dadaae)" d="M 123.616569 99.448673 
C 125.55567 99.448673 127.415612 98.67826 128.786763 97.307108 
C 130.157915 95.935957 130.928328 94.076015 130.928328 92.136914 
C 130.928328 90.197813 130.157915 88.337872 128.786763 86.96672 
C 127.415612 85.595569 125.55567 84.825156 123.616569 84.825156 
C 121.677468 84.825156 119.817527 85.595569 118.446375 86.96672 
C 117.075224 88.337872 116.304811 90.197813 116.304811 92.136914 
C 116.304811 94.076015 117.075224 95.935957 118.446375 97.307108 
C 119.817527 98.67826 121.677468 99.448673 123.616569 99.448673 
z
" style="fill:none;stroke:#000000;stroke-linejoin:miter;stroke-width:0.2;"/>
   </g>
   <g id="patch_54">
    <path clip-path="url(#p0861dadaae)" d="M 137.016587 101.784188 
C 138.730578 101.784188 140.374599 101.103212 141.586574 99.891238 
C 142.798549 98.679263 143.479525 97.035242 143.479525 95.321251 
C 143.479525 93.60726 142.798549 91.963239 141.586574 90.751264 
C 140.374599 89.539289 138.730578 88.858313 137.016587 88.858313 
C 135.302596 88.858313 133.658575 89.539289 132.4466 90.751264 
C 131.234626 91.963239 130.55365 93.60726 130.55365 95.321251 
C 130.55365 97.035242 131.234626 98.679263 132.4466 99.891238 
C 133.658575 101.103212 135.302596 101.784188 137.016587 101.784188 
z
" style="fill:none;stroke:#000000;stroke-linejoin:miter;stroke-width:0.2;"/>
   </g>
   <g id="patch_55">
    <path clip-path="url(#p0861dadaae)" d="M 138.434311 127.389409 
C 139.217262 127.389409 139.96825 127.07834 140.521879 126.52471 
C 141.075509 125.971081 141.386578 125.220093 141.386578 124.437142 
C 141.386578 123.654192 141.075509 122.903204 140.521879 122.349574 
C 139.96825 121.795945 139.217262 121.484875 138.434311 121.484875 
C 137.651361 121.484875 136.900373 121.795945 136.346743 122.349574 
C 135.793114 122.903204 135.482044 123.654192 135.482044 124.437142 
C 135.482044 125.220093 135.793114 125.971081 136.346743 126.52471 
C 136.900373 127.07834 137.651361 127.389409 138.434311 127.389409 
z
" style="fill:none;stroke:#000000;stroke-linejoin:miter;stroke-width:0.2;"/>
   </g>
   <g id="patch_56">
    <path clip-path="url(#p0861dadaae)" d="M 122.730704 142.578246 
C 123.957481 142.578246 125.134178 142.090842 126.00164 141.22338 
C 126.869103 140.355917 127.356507 139.17922 127.356507 137.952443 
C 127.356507 136.725666 126.869103 135.548969 126.00164 134.681506 
C 125.134178 133.814044 123.957481 133.32664 122.730704 133.32664 
C 121.503926 133.32664 120.327229 133.814044 119.459767 134.681506 
C 118.592304 135.548969 118.104901 136.725666 118.104901 137.952443 
C 118.104901 139.17922 118.592304 140.355917 119.459767 141.22338 
C 120.327229 142.090842 121.503926 142.578246 122.730704 142.578246 
z
" style="fill:none;stroke:#000000;stroke-linejoin:miter;stroke-width:0.2;"/>
   </g>
   <g id="patch_57">
    <path clip-path="url(#p0861dadaae)" d="M 145.041083 124.873457 
C 146.416384 124.873457 147.735542 124.327044 148.708027 123.354559 
C 149.680512 122.382074 150.226925 121.062916 150.226925 119.687615 
C 150.226925 118.312313 149.680512 116.993155 148.708027 116.02067 
C 147.735542 115.048185 146.416384 114.501772 145.041083 114.501772 
C 143.665782 114.501772 142.346624 115.048185 141.374139 116.02067 
C 140.401654 116.993155 139.855241 118.312313 139.855241 119.687615 
C 139.855241 121.062916 140.401654 122.382074 141.374139 123.354559 
C 142.346624 124.327044 143.665782 124.873457 145.041083 124.873457 
z
" style="fill:none;stroke:#000000;stroke-linejoin:miter;stroke-width:0.2;"/>
   </g>
   <g id="patch_58">
    <path clip-path="url(#p0861dadaae)" d="M 114.217131 101.844058 
C 114.625614 101.844058 115.017421 101.681766 115.306263 101.392925 
C 115.595104 101.104084 115.757396 100.712277 115.757396 100.303794 
C 115.757396 99.895311 115.595104 99.503503 115.306263 99.214662 
C 115.017421 98.925821 114.625614 98.763529 114.217131 98.763529 
C 113.808648 98.763529 113.416841 98.925821 113.128 99.214662 
C 112.839158 99.503503 112.676866 99.895311 112.676866 100.303794 
C 112.676866 100.712277 112.839158 101.104084 113.128 101.392925 
C 113.416841 101.681766 113.808648 101.844058 114.217131 101.844058 
z
" style="fill:none;stroke:#000000;stroke-linejoin:miter;stroke-width:0.2;"/>
   </g>
   <g id="patch_59">
    <path clip-path="url(#p0861dadaae)" d="M 58.164396 129.357104 
C 65.553071 129.357104 72.64012 126.421553 77.864702 121.19697 
C 83.089284 115.972388 86.024836 108.885339 86.024836 101.496664 
C 86.024836 94.107989 83.089284 87.020941 77.864702 81.796358 
C 72.64012 76.571776 65.553071 73.636224 58.164396 73.636224 
C 50.775721 73.636224 43.688672 76.571776 38.46409 81.796358 
C 33.239508 87.020941 30.303956 94.107989 30.303956 101.496664 
C 30.303956 108.885339 33.239508 115.972388 38.46409 121.19697 
C 43.688672 126.421553 50.775721 129.357104 58.164396 129.357104 
z
" style="fill:none;stroke:#000000;stroke-linejoin:miter;stroke-width:0.2;"/>
   </g>
   <g id="patch_60">
    <path clip-path="url(#p0861dadaae)" d="M 114.370305 133.314786 
C 115.180132 133.314786 115.9569 132.993039 116.529534 132.420405 
C 117.102168 131.84777 117.423916 131.071003 117.423916 130.261176 
C 117.423916 129.451349 117.102168 128.674581 116.529534 128.101947 
C 115.9569 127.529313 115.180132 127.207565 114.370305 127.207565 
C 113.560478 127.207565 112.783711 127.529313 112.211077 128.101947 
C 111.638442 128.674581 111.316695 129.451349 111.316695 130.261176 
C 111.316695 131.071003 111.638442 131.84777 112.211077 132.420405 
C 112.783711 132.993039 113.560478 133.314786 114.370305 133.314786 
z
" style="fill:none;stroke:#000000;stroke-linejoin:miter;stroke-width:0.2;"/>
   </g>
   <g id="patch_61">
    <path clip-path="url(#p0861dadaae)" d="M 98.078242 197.526959 
C 105.136217 197.526959 111.906067 194.722796 116.896809 189.732053 
C 121.887552 184.741311 124.691715 177.971461 124.691715 170.913486 
C 124.691715 163.85551 121.887552 157.08566 116.896809 152.094918 
C 111.906067 147.104175 105.136217 144.300012 98.078242 144.300012 
C 91.020266 144.300012 84.250416 147.104175 79.259674 152.094918 
C 74.268932 157.08566 71.464768 163.85551 71.464768 170.913486 
C 71.464768 177.971461 74.268932 184.741311 79.259674 189.732053 
C 84.250416 194.722796 91.020266 197.526959 98.078242 197.526959 
z
" style="fill:none;stroke:#000000;stroke-linejoin:miter;stroke-width:0.2;"/>
   </g>
   <g id="patch_62">
    <path clip-path="url(#p0861dadaae)" d="M 116.917742 100.133926 
C 117.3973 100.133926 117.857281 99.943396 118.196379 99.604297 
C 118.535478 99.265198 118.726008 98.805217 118.726008 98.325659 
C 118.726008 97.846101 118.535478 97.38612 118.196379 97.047022 
C 117.857281 96.707923 117.3973 96.517393 116.917742 96.517393 
C 116.438184 96.517393 115.978203 96.707923 115.639104 97.047022 
C 115.300005 97.38612 115.109475 97.846101 115.109475 98.325659 
C 115.109475 98.805217 115.300005 99.265198 115.639104 99.604297 
C 115.978203 99.943396 116.438184 100.133926 116.917742 100.133926 
z
" style="fill:none;stroke:#000000;stroke-linejoin:miter;stroke-width:0.2;"/>
   </g>
   <g id="patch_63">
    <path clip-path="url(#p0861dadaae)" d="M 171.165563 122.042069 
C 178.511709 122.042069 185.557965 119.123414 190.752475 113.928904 
C 195.946985 108.734395 198.86564 101.688139 198.86564 94.341992 
C 198.86564 86.995846 195.946985 79.94959 190.752475 74.755081 
C 185.557965 69.560571 178.511709 66.641916 171.165563 66.641916 
C 163.819417 66.641916 156.773161 69.560571 151.578651 74.755081 
C 146.384142 79.94959 143.465487 86.995846 143.465487 94.341992 
C 143.465487 101.688139 146.384142 108.734395 151.578651 113.928904 
C 156.773161 119.123414 163.819417 122.042069 171.165563 122.042069 
z
" style="fill:none;stroke:#000000;stroke-linejoin:miter;stroke-width:0.2;"/>
   </g>
   <g id="patch_64">
    <path clip-path="url(#p0861dadaae)" d="M 119.101726 134.390119 
C 119.658025 134.390119 120.191614 134.169099 120.584977 133.775736 
C 120.97834 133.382373 121.19936 132.848784 121.19936 132.292485 
C 121.19936 131.736186 120.97834 131.202596 120.584977 130.809233 
C 120.191614 130.415871 119.658025 130.194851 119.101726 130.194851 
C 118.545427 130.194851 118.011837 130.415871 117.618475 130.809233 
C 117.225112 131.202596 117.004092 131.736186 117.004092 132.292485 
C 117.004092 132.848784 117.225112 133.382373 117.618475 133.775736 
C 118.011837 134.169099 118.545427 134.390119 119.101726 134.390119 
z
" style="fill:none;stroke:#000000;stroke-linejoin:miter;stroke-width:0.2;"/>
   </g>
   <g id="patch_65">
    <path clip-path="url(#p0861dadaae)" d="M 126.915229 159.25152 
C 129.215693 159.25152 131.422246 158.337536 133.048919 156.710862 
C 134.675593 155.084188 135.589577 152.877636 135.589577 150.577172 
C 135.589577 148.276708 134.675593 146.070155 133.048919 144.443481 
C 131.422246 142.816807 129.215693 141.902823 126.915229 141.902823 
C 124.614765 141.902823 122.408212 142.816807 120.781538 144.443481 
C 119.154865 146.070155 118.24088 148.276708 118.24088 150.577172 
C 118.24088 152.877636 119.154865 155.084188 120.781538 156.710862 
C 122.408212 158.337536 124.614765 159.25152 126.915229 159.25152 
z
" style="fill:none;stroke:#000000;stroke-linejoin:miter;stroke-width:0.2;"/>
   </g>
   <g id="patch_66">
    <path clip-path="url(#p0861dadaae)" d="M 92.562235 83.639142 
C 102.184951 83.639142 111.414841 79.815997 118.219128 73.011709 
C 125.023416 66.207422 128.846561 56.977532 128.846561 47.354816 
C 128.846561 37.7321 125.023416 28.50221 118.219128 21.697923 
C 111.414841 14.893635 102.184951 11.07049 92.562235 11.07049 
C 82.939519 11.07049 73.709629 14.893635 66.905342 21.697923 
C 60.101054 28.50221 56.277908 37.7321 56.277908 47.354816 
C 56.277908 56.977532 60.101054 66.207422 66.905342 73.011709 
C 73.709629 79.815997 82.939519 83.639142 92.562235 83.639142 
z
" style="fill:none;stroke:#000000;stroke-linejoin:miter;stroke-width:0.2;"/>
   </g>
   <g id="patch_67">
    <path clip-path="url(#p0861dadaae)" d="M 74.597045 151.998713 
C 78.056604 151.998713 81.374935 150.624216 83.821212 148.177938 
C 86.26749 145.73166 87.641987 142.41333 87.641987 138.953771 
C 87.641987 135.494212 86.26749 132.175882 83.821212 129.729604 
C 81.374935 127.283326 78.056604 125.908829 74.597045 125.908829 
C 71.137486 125.908829 67.819156 127.283326 65.372878 129.729604 
C 62.926601 132.175882 61.552103 135.494212 61.552103 138.953771 
C 61.552103 142.41333 62.926601 145.73166 65.372878 148.177938 
C 67.819156 150.624216 71.137486 151.998713 74.597045 151.998713 
z
" style="fill:none;stroke:#000000;stroke-linejoin:miter;stroke-width:0.2;"/>
   </g>
   <g id="patch_68">
    <path clip-path="url(#p0861dadaae)" d="M 135.500817 88.920687 
C 138.679564 88.920687 141.728545 87.657757 143.976259 85.410044 
C 146.223972 83.16233 147.486902 80.113349 147.486902 76.934602 
C 147.486902 73.755855 146.223972 70.706874 143.976259 68.45916 
C 141.728545 66.211447 138.679564 64.948517 135.500817 64.948517 
C 132.32207 64.948517 129.273089 66.211447 127.025375 68.45916 
C 124.777662 70.706874 123.514732 73.755855 123.514732 76.934602 
C 123.514732 80.113349 124.777662 83.16233 127.025375 85.410044 
C 129.273089 87.657757 132.32207 88.920687 135.500817 88.920687 
z
" style="fill:none;stroke:#000000;stroke-linejoin:miter;stroke-width:0.2;"/>
   </g>
   <g id="patch_69">
    <path clip-path="url(#p0861dadaae)" d="M 118.803135 130.206534 
C 119.2603 130.206534 119.698803 130.0249 120.022068 129.701635 
C 120.345333 129.37837 120.526967 128.939867 120.526967 128.482702 
C 120.526967 128.025536 120.345333 127.587033 120.022068 127.263768 
C 119.698803 126.940503 119.2603 126.758869 118.803135 126.758869 
C 118.345969 126.758869 117.907466 126.940503 117.584201 127.263768 
C 117.260936 127.587033 117.079302 128.025536 117.079302 128.482702 
C 117.079302 128.939867 117.260936 129.37837 117.584201 129.701635 
C 117.907466 130.0249 118.345969 130.206534 118.803135 130.206534 
z
" style="fill:none;stroke:#000000;stroke-linejoin:miter;stroke-width:0.2;"/>
   </g>
   <g id="patch_70">
    <path clip-path="url(#p0861dadaae)" d="M 169.021759 201.59482 
C 178.575052 201.59482 187.738352 197.799257 194.49355 191.044059 
C 201.248748 184.288861 205.044311 175.125561 205.044311 165.572269 
C 205.044311 156.018976 201.248748 146.855676 194.49355 140.100478 
C 187.738352 133.345281 178.575052 129.549717 169.021759 129.549717 
C 159.468467 129.549717 150.305167 133.345281 143.549969 140.100478 
C 136.794771 146.855676 132.999208 156.018976 132.999208 165.572269 
C 132.999208 175.125561 136.794771 184.288861 143.549969 191.044059 
C 150.305167 197.799257 159.468467 201.59482 169.021759 201.59482 
z
" style="fill:none;stroke:#000000;stroke-linejoin:miter;stroke-width:0.2;"/>
   </g>
   <g id="patch_71">
    <path clip-path="url(#p0861dadaae)" d="M 47.327255 189.279513 
C 53.826798 189.279513 60.061011 186.697217 64.656882 182.101346 
C 69.252753 177.505476 71.835048 171.271262 71.835048 164.77172 
C 71.835048 158.272177 69.252753 152.037963 64.656882 147.442093 
C 60.061011 142.846222 53.826798 140.263926 47.327255 140.263926 
C 40.827712 140.263926 34.593499 142.846222 29.997628 147.442093 
C 25.401758 152.037963 22.819462 158.272177 22.819462 164.77172 
C 22.819462 171.271262 25.401758 177.505476 29.997628 182.101346 
C 34.593499 186.697217 40.827712 189.279513 47.327255 189.279513 
z
" style="fill:none;stroke:#000000;stroke-linejoin:miter;stroke-width:0.2;"/>
   </g>
   <g id="patch_72">
    <path clip-path="url(#p0861dadaae)" d="M 153.550659 69.688061 
C 160.115428 69.688061 166.412206 67.07985 171.054199 62.437857 
C 175.696193 57.795864 178.304403 51.499086 178.304403 44.934316 
C 178.304403 38.369546 175.696193 32.072769 171.054199 27.430775 
C 166.412206 22.788782 160.115428 20.180571 153.550659 20.180571 
C 146.985889 20.180571 140.689111 22.788782 136.047118 27.430775 
C 131.405124 32.072769 128.796914 38.369546 128.796914 44.934316 
C 128.796914 51.499086 131.405124 57.795864 136.047118 62.437857 
C 140.689111 67.07985 146.985889 69.688061 153.550659 69.688061 
z
" style="fill:none;stroke:#000000;stroke-linejoin:miter;stroke-width:0.2;"/>
   </g>
   <g id="patch_73">
    <path clip-path="url(#p0861dadaae)" d="M 148.428391 135.037218 
C 149.850506 135.037218 151.214567 134.472206 152.220154 133.466618 
C 153.225742 132.461031 153.790754 131.09697 153.790754 129.674855 
C 153.790754 128.25274 153.225742 126.888679 152.220154 125.883092 
C 151.214567 124.877505 149.850506 124.312493 148.428391 124.312493 
C 147.006276 124.312493 145.642216 124.877505 144.636628 125.883092 
C 143.631041 126.888679 143.066029 128.25274 143.066029 129.674855 
C 143.066029 131.09697 143.631041 132.461031 144.636628 133.466618 
C 145.642216 134.472206 147.006276 135.037218 148.428391 135.037218 
z
" style="fill:none;stroke:#000000;stroke-linejoin:miter;stroke-width:0.2;"/>
   </g>
   <g id="patch_74">
    <path clip-path="url(#p0861dadaae)" d="M 115.92 224.64 
C 144.752881 224.64 172.408724 213.184575 192.796649 192.796649 
C 213.184575 172.408724 224.64 144.752881 224.64 115.92 
C 224.64 87.087119 213.184575 59.431276 192.796649 39.043351 
C 172.408724 18.655425 144.752881 7.2 115.92 7.2 
C 87.087119 7.2 59.431276 18.655425 39.043351 39.043351 
C 18.655425 59.431276 7.2 87.087119 7.2 115.92 
C 7.2 144.752881 18.655425 172.408724 39.043351 192.796649 
C 59.431276 213.184575 87.087119 224.64 115.92 224.64 
z
" style="fill:none;stroke:#000000;stroke-linejoin:miter;stroke-width:0.2;"/>
   </g>
  </g>
 </g>
 <defs>
  <clipPath id="p0861dadaae">
   <rect height="217.44" width="217.44" x="7.2" y="7.2"/>
  </clipPath>
 </defs>
</svg>
