<?xml version="1.0" encoding="utf-8" standalone="no"?>
<!DOCTYPE svg PUBLIC "-//W3C//DTD SVG 1.1//EN"
  "http://www.w3.org/Graphics/SVG/1.1/DTD/svg11.dtd">
<svg height="288pt" version="1.1" viewBox="0 0 432 288" width="432pt" xmlns="http://www.w3.org/2000/svg" xmlns:xlink="http://www.w3.org/1999/xlink">
 <metadata>
  <rdf:RDF xmlns:cc="http://creativecommons.org/ns#" xmlns:dc="http://purl.org/dc/elements/1.1/" xmlns:rdf="http://www.w3.org/1999/02/22-rdf-syntax-ns#">
   <cc:Work>
    <dc:type rdf:resource="http://purl.org/dc/dcmitype/StillImage"/>
    <dc:date>2022-05-13T15:40:58.601482</dc:date>
    <dc:format>image/svg+xml</dc:format>
    <dc:creator>
     <cc:Agent>
      <dc:title>Matplotlib v3.4.3, https://matplotlib.org/</dc:title>
     </cc:Agent>
    </dc:creator>
   </cc:Work>
  </rdf:RDF>
 </metadata>
 <defs>
  <style type="text/css">*{stroke-linecap:butt;stroke-linejoin:round;}</style>
 </defs>
 <g id="figure_1">
  <g id="patch_1">
   <path d="M 0 288 
L 432 288 
L 432 0 
L 0 0 
z
" style="fill:#ffffff;"/>
  </g>
  <g id="axes_1">
   <g id="patch_2">
    <path d="M 114.638233 252 
L 328.161767 252 
L 328.161767 34.56 
L 114.638233 34.56 
z
" style="fill:#ffffff;"/>
   </g>
   <g id="matplotlib.axis_1">
    <g id="xtick_1">
     <g id="line2d_1">
      <defs>
       <path d="M 0 0 
L 0 3.5 
" id="mb766fbb15d" style="stroke:#000000;stroke-width:0.8;"/>
      </defs>
      <g>
       <use style="stroke:#000000;stroke-width:0.8;" x="123.710314" xlink:href="#mb766fbb15d" y="252"/>
      </g>
     </g>
     <g id="text_1">
      <!-- −1.0 -->
      <g transform="translate(111.568908 266.598437)scale(0.1 -0.1)">
       <defs>
        <path d="M 678 2272 
L 4684 2272 
L 4684 1741 
L 678 1741 
L 678 2272 
z
" id="DejaVuSans-2212" transform="scale(0.015625)"/>
        <path d="M 794 531 
L 1825 531 
L 1825 4091 
L 703 3866 
L 703 4441 
L 1819 4666 
L 2450 4666 
L 2450 531 
L 3481 531 
L 3481 0 
L 794 0 
L 794 531 
z
" id="DejaVuSans-31" transform="scale(0.015625)"/>
        <path d="M 684 794 
L 1344 794 
L 1344 0 
L 684 0 
L 684 794 
z
" id="DejaVuSans-2e" transform="scale(0.015625)"/>
        <path d="M 2034 4250 
Q 1547 4250 1301 3770 
Q 1056 3291 1056 2328 
Q 1056 1369 1301 889 
Q 1547 409 2034 409 
Q 2525 409 2770 889 
Q 3016 1369 3016 2328 
Q 3016 3291 2770 3770 
Q 2525 4250 2034 4250 
z
M 2034 4750 
Q 2819 4750 3233 4129 
Q 3647 3509 3647 2328 
Q 3647 1150 3233 529 
Q 2819 -91 2034 -91 
Q 1250 -91 836 529 
Q 422 1150 422 2328 
Q 422 3509 836 4129 
Q 1250 4750 2034 4750 
z
" id="DejaVuSans-30" transform="scale(0.015625)"/>
       </defs>
       <use xlink:href="#DejaVuSans-2212"/>
       <use x="83.789062" xlink:href="#DejaVuSans-31"/>
       <use x="147.412109" xlink:href="#DejaVuSans-2e"/>
       <use x="179.199219" xlink:href="#DejaVuSans-30"/>
      </g>
     </g>
    </g>
    <g id="xtick_2">
     <g id="line2d_2">
      <g>
       <use style="stroke:#000000;stroke-width:0.8;" x="173.239807" xlink:href="#mb766fbb15d" y="252"/>
      </g>
     </g>
     <g id="text_2">
      <!-- −0.5 -->
      <g transform="translate(161.098401 266.598437)scale(0.1 -0.1)">
       <defs>
        <path d="M 691 4666 
L 3169 4666 
L 3169 4134 
L 1269 4134 
L 1269 2991 
Q 1406 3038 1543 3061 
Q 1681 3084 1819 3084 
Q 2600 3084 3056 2656 
Q 3513 2228 3513 1497 
Q 3513 744 3044 326 
Q 2575 -91 1722 -91 
Q 1428 -91 1123 -41 
Q 819 9 494 109 
L 494 744 
Q 775 591 1075 516 
Q 1375 441 1709 441 
Q 2250 441 2565 725 
Q 2881 1009 2881 1497 
Q 2881 1984 2565 2268 
Q 2250 2553 1709 2553 
Q 1456 2553 1204 2497 
Q 953 2441 691 2322 
L 691 4666 
z
" id="DejaVuSans-35" transform="scale(0.015625)"/>
       </defs>
       <use xlink:href="#DejaVuSans-2212"/>
       <use x="83.789062" xlink:href="#DejaVuSans-30"/>
       <use x="147.412109" xlink:href="#DejaVuSans-2e"/>
       <use x="179.199219" xlink:href="#DejaVuSans-35"/>
      </g>
     </g>
    </g>
    <g id="xtick_3">
     <g id="line2d_3">
      <g>
       <use style="stroke:#000000;stroke-width:0.8;" x="222.7693" xlink:href="#mb766fbb15d" y="252"/>
      </g>
     </g>
     <g id="text_3">
      <!-- 0.0 -->
      <g transform="translate(214.817738 266.598437)scale(0.1 -0.1)">
       <use xlink:href="#DejaVuSans-30"/>
       <use x="63.623047" xlink:href="#DejaVuSans-2e"/>
       <use x="95.410156" xlink:href="#DejaVuSans-30"/>
      </g>
     </g>
    </g>
    <g id="xtick_4">
     <g id="line2d_4">
      <g>
       <use style="stroke:#000000;stroke-width:0.8;" x="272.298793" xlink:href="#mb766fbb15d" y="252"/>
      </g>
     </g>
     <g id="text_4">
      <!-- 0.5 -->
      <g transform="translate(264.34723 266.598437)scale(0.1 -0.1)">
       <use xlink:href="#DejaVuSans-30"/>
       <use x="63.623047" xlink:href="#DejaVuSans-2e"/>
       <use x="95.410156" xlink:href="#DejaVuSans-35"/>
      </g>
     </g>
    </g>
    <g id="xtick_5">
     <g id="line2d_5">
      <g>
       <use style="stroke:#000000;stroke-width:0.8;" x="321.828286" xlink:href="#mb766fbb15d" y="252"/>
      </g>
     </g>
     <g id="text_5">
      <!-- 1.0 -->
      <g transform="translate(313.876723 266.598437)scale(0.1 -0.1)">
       <use xlink:href="#DejaVuSans-31"/>
       <use x="63.623047" xlink:href="#DejaVuSans-2e"/>
       <use x="95.410156" xlink:href="#DejaVuSans-30"/>
      </g>
     </g>
    </g>
   </g>
   <g id="matplotlib.axis_2">
    <g id="ytick_1">
     <g id="line2d_6">
      <defs>
       <path d="M 0 0 
L -3.5 0 
" id="mb5f4d7afc7" style="stroke:#000000;stroke-width:0.8;"/>
      </defs>
      <g>
       <use style="stroke:#000000;stroke-width:0.8;" x="114.638233" xlink:href="#mb5f4d7afc7" y="242.296113"/>
      </g>
     </g>
     <g id="text_6">
      <!-- −1.00 -->
      <g transform="translate(76.992921 246.095331)scale(0.1 -0.1)">
       <use xlink:href="#DejaVuSans-2212"/>
       <use x="83.789062" xlink:href="#DejaVuSans-31"/>
       <use x="147.412109" xlink:href="#DejaVuSans-2e"/>
       <use x="179.199219" xlink:href="#DejaVuSans-30"/>
       <use x="242.822266" xlink:href="#DejaVuSans-30"/>
      </g>
     </g>
    </g>
    <g id="ytick_2">
     <g id="line2d_7">
      <g>
       <use style="stroke:#000000;stroke-width:0.8;" x="114.638233" xlink:href="#mb5f4d7afc7" y="217.531366"/>
      </g>
     </g>
     <g id="text_7">
      <!-- −0.75 -->
      <g transform="translate(76.992921 221.330585)scale(0.1 -0.1)">
       <defs>
        <path d="M 525 4666 
L 3525 4666 
L 3525 4397 
L 1831 0 
L 1172 0 
L 2766 4134 
L 525 4134 
L 525 4666 
z
" id="DejaVuSans-37" transform="scale(0.015625)"/>
       </defs>
       <use xlink:href="#DejaVuSans-2212"/>
       <use x="83.789062" xlink:href="#DejaVuSans-30"/>
       <use x="147.412109" xlink:href="#DejaVuSans-2e"/>
       <use x="179.199219" xlink:href="#DejaVuSans-37"/>
       <use x="242.822266" xlink:href="#DejaVuSans-35"/>
      </g>
     </g>
    </g>
    <g id="ytick_3">
     <g id="line2d_8">
      <g>
       <use style="stroke:#000000;stroke-width:0.8;" x="114.638233" xlink:href="#mb5f4d7afc7" y="192.76662"/>
      </g>
     </g>
     <g id="text_8">
      <!-- −0.50 -->
      <g transform="translate(76.992921 196.565839)scale(0.1 -0.1)">
       <use xlink:href="#DejaVuSans-2212"/>
       <use x="83.789062" xlink:href="#DejaVuSans-30"/>
       <use x="147.412109" xlink:href="#DejaVuSans-2e"/>
       <use x="179.199219" xlink:href="#DejaVuSans-35"/>
       <use x="242.822266" xlink:href="#DejaVuSans-30"/>
      </g>
     </g>
    </g>
    <g id="ytick_4">
     <g id="line2d_9">
      <g>
       <use style="stroke:#000000;stroke-width:0.8;" x="114.638233" xlink:href="#mb5f4d7afc7" y="168.001873"/>
      </g>
     </g>
     <g id="text_9">
      <!-- −0.25 -->
      <g transform="translate(76.992921 171.801092)scale(0.1 -0.1)">
       <defs>
        <path d="M 1228 531 
L 3431 531 
L 3431 0 
L 469 0 
L 469 531 
Q 828 903 1448 1529 
Q 2069 2156 2228 2338 
Q 2531 2678 2651 2914 
Q 2772 3150 2772 3378 
Q 2772 3750 2511 3984 
Q 2250 4219 1831 4219 
Q 1534 4219 1204 4116 
Q 875 4013 500 3803 
L 500 4441 
Q 881 4594 1212 4672 
Q 1544 4750 1819 4750 
Q 2544 4750 2975 4387 
Q 3406 4025 3406 3419 
Q 3406 3131 3298 2873 
Q 3191 2616 2906 2266 
Q 2828 2175 2409 1742 
Q 1991 1309 1228 531 
z
" id="DejaVuSans-32" transform="scale(0.015625)"/>
       </defs>
       <use xlink:href="#DejaVuSans-2212"/>
       <use x="83.789062" xlink:href="#DejaVuSans-30"/>
       <use x="147.412109" xlink:href="#DejaVuSans-2e"/>
       <use x="179.199219" xlink:href="#DejaVuSans-32"/>
       <use x="242.822266" xlink:href="#DejaVuSans-35"/>
      </g>
     </g>
    </g>
    <g id="ytick_5">
     <g id="line2d_10">
      <g>
       <use style="stroke:#000000;stroke-width:0.8;" x="114.638233" xlink:href="#mb5f4d7afc7" y="143.237127"/>
      </g>
     </g>
     <g id="text_10">
      <!-- 0.00 -->
      <g transform="translate(85.372608 147.036346)scale(0.1 -0.1)">
       <use xlink:href="#DejaVuSans-30"/>
       <use x="63.623047" xlink:href="#DejaVuSans-2e"/>
       <use x="95.410156" xlink:href="#DejaVuSans-30"/>
       <use x="159.033203" xlink:href="#DejaVuSans-30"/>
      </g>
     </g>
    </g>
    <g id="ytick_6">
     <g id="line2d_11">
      <g>
       <use style="stroke:#000000;stroke-width:0.8;" x="114.638233" xlink:href="#mb5f4d7afc7" y="118.472381"/>
      </g>
     </g>
     <g id="text_11">
      <!-- 0.25 -->
      <g transform="translate(85.372608 122.271599)scale(0.1 -0.1)">
       <use xlink:href="#DejaVuSans-30"/>
       <use x="63.623047" xlink:href="#DejaVuSans-2e"/>
       <use x="95.410156" xlink:href="#DejaVuSans-32"/>
       <use x="159.033203" xlink:href="#DejaVuSans-35"/>
      </g>
     </g>
    </g>
    <g id="ytick_7">
     <g id="line2d_12">
      <g>
       <use style="stroke:#000000;stroke-width:0.8;" x="114.638233" xlink:href="#mb5f4d7afc7" y="93.707634"/>
      </g>
     </g>
     <g id="text_12">
      <!-- 0.50 -->
      <g transform="translate(85.372608 97.506853)scale(0.1 -0.1)">
       <use xlink:href="#DejaVuSans-30"/>
       <use x="63.623047" xlink:href="#DejaVuSans-2e"/>
       <use x="95.410156" xlink:href="#DejaVuSans-35"/>
       <use x="159.033203" xlink:href="#DejaVuSans-30"/>
      </g>
     </g>
    </g>
    <g id="ytick_8">
     <g id="line2d_13">
      <g>
       <use style="stroke:#000000;stroke-width:0.8;" x="114.638233" xlink:href="#mb5f4d7afc7" y="68.942888"/>
      </g>
     </g>
     <g id="text_13">
      <!-- 0.75 -->
      <g transform="translate(85.372608 72.742107)scale(0.1 -0.1)">
       <use xlink:href="#DejaVuSans-30"/>
       <use x="63.623047" xlink:href="#DejaVuSans-2e"/>
       <use x="95.410156" xlink:href="#DejaVuSans-37"/>
       <use x="159.033203" xlink:href="#DejaVuSans-35"/>
      </g>
     </g>
    </g>
    <g id="ytick_9">
     <g id="line2d_14">
      <g>
       <use style="stroke:#000000;stroke-width:0.8;" x="114.638233" xlink:href="#mb5f4d7afc7" y="44.178141"/>
      </g>
     </g>
     <g id="text_14">
      <!-- 1.00 -->
      <g transform="translate(85.372608 47.97736)scale(0.1 -0.1)">
       <use xlink:href="#DejaVuSans-31"/>
       <use x="63.623047" xlink:href="#DejaVuSans-2e"/>
       <use x="95.410156" xlink:href="#DejaVuSans-30"/>
       <use x="159.033203" xlink:href="#DejaVuSans-30"/>
      </g>
     </g>
    </g>
   </g>
   <g id="line2d_15">
    <path clip-path="url(#p8e395a151a)" d="M 318.452933 117.598775 
L 318.452933 168.862571 
L 318.452933 168.759387 
L 318.452933 168.553433 
L 318.452933 168.245539 
L 318.452933 167.836946 
L 318.452933 167.329297 
L 318.452933 166.724638 
L 318.452933 166.025403 
L 318.452933 165.234408 
L 318.452933 164.354837 
L 318.452933 163.390233 
L 318.452933 162.344479 
L 318.452933 161.221787 
L 318.452933 160.026677 
L 318.452933 158.763962 
L 318.452933 157.438725 
L 318.452933 156.056304 
L 318.452933 154.622264 
L 318.452933 153.14238 
L 318.452933 151.622611 
L 318.452933 150.069077 
L 318.452933 148.488033 
L 318.452933 146.885845 
L 318.452933 145.268966 
L 318.452933 143.643904 
L 318.452933 142.017205 
L 318.452933 140.395418 
L 318.452933 138.785074 
L 318.452933 137.192656 
L 318.452933 135.624577 
L 318.452933 134.087152 
L 318.452933 132.58657 
L 318.452933 131.128874 
L 318.452933 129.719934 
L 318.452933 128.365423 
L 318.452933 127.070795 
L 318.452933 125.841264 
L 318.452933 124.681779 
L 318.452933 123.59701 
L 318.452933 122.591325 
L 318.452933 121.668773 
L 318.452933 120.833069 
L 318.452933 120.087579 
L 318.452933 119.435303 
L 318.452933 118.878869 
L 318.452933 118.420517 
L 318.452933 118.062093 
L 318.452933 117.80504 
L 318.452933 117.650393 
L 318.452933 117.598775 
" style="fill:none;stroke:#000000;stroke-linecap:square;stroke-width:1.5;"/>
   </g>
   <g id="line2d_16">
    <path clip-path="url(#p8e395a151a)" d="M 292.814581 73.191847 
L 318.446479 117.587596 
L 318.394886 117.498236 
L 318.29191 117.319875 
L 318.137963 117.053231 
L 317.933666 116.699379 
L 317.679842 116.259742 
L 317.377512 115.736092 
L 317.027895 115.130537 
L 316.632397 114.445515 
L 316.192612 113.683784 
L 315.71031 112.848412 
L 315.187433 111.942763 
L 314.626087 110.970483 
L 314.028532 109.935488 
L 313.397174 108.841944 
L 312.734555 107.694255 
L 312.043345 106.497043 
L 311.326325 105.255128 
L 310.586383 103.973511 
L 309.826498 102.657353 
L 309.049731 101.311953 
L 308.259209 99.942728 
L 307.458116 98.555193 
L 306.649676 97.154934 
L 305.837145 95.74759 
L 305.023796 94.338827 
L 304.212902 92.934319 
L 303.40773 91.53972 
L 302.611521 90.160646 
L 301.827482 88.80265 
L 301.058769 87.4712 
L 300.308478 86.171658 
L 299.57963 84.909257 
L 298.87516 83.689079 
L 298.197905 82.516038 
L 297.550591 81.394857 
L 296.935825 80.330051 
L 296.356083 79.325908 
L 295.813698 78.38647 
L 295.310855 77.515521 
L 294.849579 76.716568 
L 294.431728 75.992827 
L 294.058982 75.347214 
L 293.732845 74.782327 
L 293.454628 74.300441 
L 293.225452 73.903496 
L 293.04624 73.593092 
L 292.917713 73.370478 
L 292.84039 73.236549 
L 292.814581 73.191847 
" style="fill:none;stroke:#000000;stroke-linecap:square;stroke-width:1.5;"/>
   </g>
   <g id="line2d_17"/>
   <g id="line2d_18">
    <path clip-path="url(#p8e395a151a)" d="M 299.001279 96.256145 
L 299.792912 96.110332 
L 300.612182 96.089096 
L 301.453219 96.191501 
L 302.310029 96.4151 
L 303.176646 96.756063 
L 304.047274 97.209364 
L 304.916412 97.769004 
L 305.778953 98.428249 
L 306.630256 99.179873 
L 307.466193 100.016392 
L 308.283161 100.930267 
L 309.078082 101.914087 
L 309.848375 102.960711 
L 310.591917 104.063375 
L 311.306995 105.215772 
L 311.99225 106.412088 
L 312.646619 107.647028 
L 313.269274 108.915805 
L 313.859572 110.214119 
L 314.416995 111.538121 
L 314.941107 112.884364 
L 315.431507 114.249748 
L 315.887789 115.631458 
L 316.309511 117.026902 
L 316.696162 118.433639 
L 317.047141 119.849311 
L 317.361729 121.271572 
L 317.639083 122.698012 
L 317.878218 124.126088 
L 318.078003 125.553047 
L 318.237162 126.975854 
L 318.354282 128.39112 
L 318.427825 129.795034 
L 318.456152 131.183301 
L 318.437552 132.551088 
L 318.37029 133.892983 
L 318.252656 135.202971 
L 318.083033 136.474429 
L 317.859967 137.700154 
L 317.582259 138.872418 
L 317.249049 139.983063 
L 316.859916 141.023628 
L 316.414967 141.985525 
L 315.914921 142.860243 
L 315.36118 143.639585 
L 314.755876 144.315919 
L 314.101887 144.882439 
L 313.402828 145.333409 
L 312.662999 145.664374 
L 311.887301 145.872334 
L 311.081129 145.955842 
L 310.25023 145.915044 
L 309.400555 145.751645 
L 308.538103 145.468806 
L 307.668772 145.070979 
L 306.798223 144.563706 
L 305.931773 143.953385 
L 305.074301 143.247024 
L 304.230197 142.452008 
L 303.403327 141.575873 
L 302.59703 140.626112 
L 301.814131 139.610019 
L 301.056975 138.534557 
L 300.327475 137.406269 
L 299.627159 136.23122 
L 298.957231 135.014963 
L 298.318629 133.762539 
L 297.712081 132.478486 
L 297.138162 131.166874 
L 296.597343 129.831343 
L 296.090038 128.475162 
L 295.616644 127.101278 
L 295.177583 125.712386 
L 294.773327 124.310996 
L 294.40443 122.899498 
L 294.071549 121.480235 
L 293.775463 120.055576 
L 293.517087 118.627988 
L 293.297477 117.200111 
L 293.117836 115.774828 
L 292.979511 114.355344 
L 292.883981 112.94525 
L 292.832836 111.548591 
L 292.827757 110.169926 
L 292.870471 108.814372 
L 292.962709 107.487642 
L 293.106144 106.196055 
L 293.30232 104.946528 
L 293.552576 103.746538 
L 293.857952 102.60404 
L 294.219102 101.527364 
L 294.636193 100.525058 
L 295.108822 99.605698 
L 295.635935 98.777672 
L 296.215771 98.048925 
L 296.845824 97.426709 
L 297.522844 96.917323 
L 298.242867 96.525887 
L 299.001279 96.256145 
" style="fill:none;stroke:#000000;stroke-linecap:square;stroke-width:1.5;"/>
   </g>
   <g id="line2d_19"/>
   <g id="line2d_20"/>
   <g id="line2d_21">
    <path clip-path="url(#p8e395a151a)" d="M 318.446486 117.587605 
L 318.394932 117.498279 
L 318.29203 117.319988 
L 318.138193 117.053451 
L 317.934042 116.69974 
L 317.680397 116.260279 
L 317.378282 115.736839 
L 317.028911 115.131526 
L 316.633692 114.446779 
L 316.194216 113.685354 
L 315.712253 112.850318 
L 315.189743 111.945033 
L 314.628791 110.973144 
L 314.031655 109.938565 
L 313.40074 108.845461 
L 312.738586 107.698234 
L 312.047859 106.501504 
L 311.331342 105.260089 
L 310.591918 103.978989 
L 309.832565 102.66336 
L 309.056341 101.318503 
L 308.266372 99.94983 
L 307.465838 98.562854 
L 306.657964 97.16316 
L 305.846001 95.756383 
L 305.033219 94.348189 
L 304.222892 92.944246 
L 303.418282 91.55021 
L 302.622628 90.171692 
L 301.839136 88.814245 
L 301.070959 87.483333 
L 300.321192 86.184315 
L 299.592852 84.922424 
L 298.888872 83.702739 
L 298.212088 82.530172 
L 297.565225 81.409444 
L 296.950887 80.345069 
L 296.371547 79.341331 
L 295.82954 78.402274 
L 295.327046 77.531677 
L 294.86609 76.733047 
L 294.448528 76.0096 
L 294.076041 75.364248 
L 293.750128 74.79959 
L 293.472103 74.3179 
L 293.243085 73.921117 
L 293.063995 73.61084 
L 292.935556 73.388316 
L 292.858284 73.254444 
" style="fill:none;stroke:#000000;stroke-linecap:square;stroke-width:1.5;"/>
   </g>
   <g id="line2d_22">
    <path clip-path="url(#p8e395a151a)" d="M 313.639337 146.076176 
L 314.316438 146.363732 
L 314.950547 146.767108 
L 315.537917 147.282883 
L 316.075395 147.906466 
L 316.560471 148.632249 
L 316.991285 149.453788 
L 317.366623 150.364002 
L 317.685874 151.35538 
L 317.948984 152.42018 
L 318.156386 153.550614 
L 318.308924 154.739008 
L 318.407773 155.977934 
L 318.454362 157.260316 
L 318.450299 158.579503 
L 318.397303 159.929311 
L 318.297144 161.304047 
L 318.151593 162.698508 
L 317.962385 164.107957 
L 317.73118 165.528093 
L 317.459549 166.955009 
L 317.148955 168.385131 
L 316.800744 169.81517 
L 316.416149 171.242053 
L 315.996293 172.662862 
L 315.5422 174.074769 
L 315.054808 175.474971 
L 314.534993 176.860626 
L 313.983589 178.228792 
L 313.401418 179.576366 
L 312.789322 180.900026 
L 312.148197 182.196181 
L 311.479034 183.460926 
L 310.782958 184.690001 
L 310.061273 185.87876 
L 309.315506 187.022164 
L 308.547454 188.11477 
L 307.759226 189.150757 
L 306.953281 190.123963 
L 306.132459 191.027946 
L 305.300009 191.85608 
L 304.459591 192.601665 
L 303.615276 193.258076 
L 302.771518 193.818923 
L 301.933111 194.278234 
L 301.105126 194.630649 
L 300.292819 194.871611 
L 299.501537 194.997539 
L 298.736597 195.005989 
L 298.003168 194.895769 
L 297.306143 194.667011 
L 296.650034 194.321196 
L 296.038861 193.861117 
L 295.476083 193.290796 
L 294.964532 192.615355 
L 294.506395 191.840843 
L 294.103206 190.974049 
L 293.755872 190.022295 
L 293.464717 188.99323 
L 293.229543 187.894642 
L 293.049701 186.734282 
L 292.924172 185.519713 
L 292.851645 184.2582 
L 292.830591 182.956613 
L 292.85934 181.621374 
L 292.93614 180.258421 
L 293.059215 178.873203 
L 293.226807 177.470686 
L 293.437216 176.055382 
L 293.688823 174.63139 
L 293.980111 173.202444 
L 294.309675 171.771966 
L 294.676225 170.343132 
L 295.078584 168.918928 
L 295.515681 167.502218 
L 295.986537 166.095812 
L 296.490247 164.702522 
L 297.02596 163.325234 
L 297.592851 161.966964 
L 298.190092 160.630917 
L 298.816819 159.320542 
L 299.472094 158.039582 
L 300.154864 156.792117 
L 300.86392 155.582596 
L 301.597853 154.41586 
L 302.355005 153.297151 
L 303.133429 152.232105 
L 303.930846 151.226719 
L 304.74461 150.287306 
L 305.571677 149.420411 
L 306.408595 148.632714 
L 307.251496 147.930898 
L 308.096112 147.321491 
L 308.937813 146.810699 
L 309.771657 146.404211 
L 310.592469 146.107009 
L 311.394933 145.923185 
L 312.173702 145.855767 
L 312.923519 145.906585 
L 313.639337 146.076176 
" style="fill:none;stroke:#000000;stroke-linecap:square;stroke-width:1.5;"/>
   </g>
   <g id="line2d_23">
    <path clip-path="url(#p8e395a151a)" d="M 261.814305 61.125521 
L 262.34897 60.620844 
L 262.972483 60.201976 
L 263.68021 59.870977 
L 264.466687 59.628893 
L 265.325775 59.475774 
L 266.25083 59.41074 
L 267.234882 59.432067 
L 268.270812 59.537303 
L 269.35151 59.723396 
L 270.470018 59.986829 
L 271.619646 60.323754 
L 272.794065 60.73012 
L 273.987365 61.20178 
L 275.194099 61.734598 
L 276.40929 62.32452 
L 277.628434 62.967644 
L 278.847471 63.66026 
L 280.062756 64.398882 
L 281.271015 65.180262 
L 282.469292 66.001395 
L 283.654901 66.859509 
L 284.825365 67.752047 
L 285.978361 68.676648 
L 287.111664 69.631111 
L 288.22309 70.613363 
L 289.310447 71.621417 
L 290.371479 72.653331 
L 291.403825 73.707159 
L 292.404969 74.780898 
L 293.372205 75.872446 
L 294.302601 76.979538 
L 295.192977 78.099698 
L 296.039879 79.230185 
L 296.839576 80.367942 
L 297.588063 81.509543 
L 298.281078 82.651162 
L 298.914132 83.78853 
L 299.48257 84.916925 
L 299.981632 86.03116 
L 300.406551 87.125605 
L 300.752663 88.194221 
L 301.015532 89.230626 
L 301.191094 90.22818 
L 301.275805 91.1801 
L 301.266788 92.079599 
L 301.161978 92.920035 
L 300.960241 93.695083 
L 300.661469 94.398894 
L 300.266643 95.026263 
L 299.777843 95.572762 
L 299.198232 96.034856 
L 298.531978 96.409983 
L 297.784146 96.696593 
L 296.960561 96.894141 
L 296.067634 97.003052 
L 295.112196 97.024641 
L 294.101311 96.961012 
L 293.042114 96.814934 
L 291.941656 96.589707 
L 290.806772 96.289031 
L 289.643982 95.916871 
L 288.459412 95.477338 
L 287.258744 94.974585 
L 286.047189 94.412717 
L 284.829488 93.795718 
L 283.609917 93.127398 
L 282.392326 92.411358 
L 281.180166 91.650967 
L 279.976548 90.84935 
L 278.784283 90.009394 
L 277.605947 89.133762 
L 276.443934 88.224908 
L 275.30051 87.285109 
L 274.177873 86.316498 
L 273.078204 85.3211 
L 272.003721 84.300873 
L 270.956727 83.257756 
L 269.939657 82.193717 
L 268.955115 81.110802 
L 268.005918 80.011187 
L 267.095118 78.897237 
L 266.226031 77.771552 
L 265.402248 76.637027 
L 264.627639 75.496897 
L 263.906341 74.354782 
L 263.242734 73.214727 
L 262.641397 72.081226 
L 262.10705 70.959235 
L 261.644466 69.854164 
L 261.258378 68.771855 
L 260.953353 67.718527 
L 260.733658 66.700705 
L 260.603117 65.725116 
L 260.564958 64.798563 
L 260.621668 63.927781 
L 260.774863 63.119274 
L 261.025171 62.37915 
L 261.372162 61.712955 
L 261.814305 61.125521 
" style="fill:none;stroke:#000000;stroke-linecap:square;stroke-width:1.5;"/>
   </g>
   <g id="line2d_24">
    <path clip-path="url(#p8e395a151a)" d="M 303.495337 200.645186 
L 303.525513 200.58123 
L 303.585685 200.453547 
L 303.675609 200.262653 
L 303.794925 200.009314 
L 303.943151 199.694552 
L 304.119691 199.319634 
L 304.323833 198.886069 
L 304.554757 198.395604 
L 304.811531 197.850213 
L 305.093122 197.252092 
L 305.398397 196.60365 
L 305.726125 195.907498 
L 306.074988 195.166439 
L 306.44358 194.383457 
L 306.830417 193.561705 
L 307.233942 192.704491 
L 307.65253 191.815268 
L 308.084495 190.897615 
L 308.528098 189.955229 
L 308.981553 188.991904 
L 309.443034 188.011518 
L 309.910682 187.018019 
L 310.382615 186.015408 
L 310.856931 185.007722 
L 311.331723 183.999019 
L 311.805076 182.99336 
L 312.275086 181.994795 
L 312.73986 181.007344 
L 313.197527 180.034984 
L 313.646243 179.081629 
L 314.084202 178.15112 
L 314.50964 177.247202 
L 314.920844 176.373516 
L 315.316158 175.533579 
L 315.693991 174.730774 
L 316.052821 173.968333 
L 316.391204 173.249326 
L 316.707776 172.576649 
L 317.001263 171.95301 
L 317.270484 171.38092 
L 317.514354 170.862683 
L 317.73189 170.400385 
L 317.922219 169.995889 
L 318.084572 169.650822 
L 318.218296 169.366575 
L 318.322853 169.144292 
L 318.397821 168.984868 
L 318.4429 168.888945 
" style="fill:none;stroke:#000000;stroke-linecap:square;stroke-width:1.5;"/>
   </g>
   <g id="line2d_25"/>
   <g id="line2d_26">
    <path clip-path="url(#p8e395a151a)" d="M 292.807354 73.186824 
L 292.749373 73.146513 
L 292.633636 73.066066 
L 292.460609 72.945805 
L 292.230989 72.786214 
L 291.945701 72.587938 
L 291.605893 72.351773 
L 291.212934 72.078671 
L 290.768406 71.769732 
L 290.274098 71.426199 
L 289.732003 71.049457 
L 289.144301 70.641021 
L 288.51336 70.202536 
L 287.84172 69.735769 
L 287.132086 69.242598 
L 286.387315 68.72501 
L 285.610406 68.185088 
L 284.804488 67.625007 
L 283.972805 67.047022 
L 283.118706 66.45346 
L 282.245631 65.846711 
L 281.357096 65.229219 
L 280.456677 64.60347 
L 279.548001 63.971983 
L 278.634726 63.337302 
L 277.720531 62.701982 
L 276.809095 62.068581 
L 275.90409 61.439649 
L 275.009159 60.81772 
L 274.127906 60.205297 
L 273.263879 59.604847 
L 272.420558 59.018787 
L 271.601338 58.449477 
L 270.809518 57.899209 
L 270.048286 57.3702 
L 269.320708 56.864579 
L 268.629714 56.384383 
L 267.978084 55.931545 
L 267.368445 55.507887 
L 266.80325 55.115118 
L 266.284774 54.754817 
L 265.815107 54.428435 
L 265.396139 54.137288 
L 265.029557 53.882546 
L 264.716837 53.665237 
L 264.459239 53.486234 
L 264.257799 53.34626 
L 264.113329 53.245876 
L 264.026411 53.185489 
" style="fill:none;stroke:#000000;stroke-linecap:square;stroke-width:1.5;"/>
   </g>
   <g id="line2d_27"/>
   <g id="line2d_28">
    <path clip-path="url(#p8e395a151a)" d="M 282.979984 122.330815 
L 285.068296 122.636407 
L 287.08523 123.204443 
L 288.988429 124.006844 
L 290.746228 125.004713 
L 292.339247 126.154126 
L 293.759743 127.411468 
L 295.009487 128.737361 
L 296.097039 130.098866 
L 297.035111 131.470182 
L 297.838386 132.832316 
L 298.521945 134.172176 
L 299.100242 135.48146 
L 299.58652 136.755568 
L 299.992538 137.992643 
L 300.328506 139.192796 
L 300.603136 140.357502 
L 300.823752 141.489149 
L 300.996431 142.590713 
L 301.126144 143.665526 
L 301.216884 144.717121 
L 301.27178 145.749126 
L 301.293195 146.765199 
L 301.282799 147.768991 
L 301.241626 148.764119 
L 301.170113 149.754163 
L 301.068123 150.742656 
L 300.934942 151.733087 
L 300.769278 152.728893 
L 300.569223 153.73345 
L 300.332214 154.750049 
L 300.05497 155.781861 
L 299.733417 156.831865 
L 299.362598 157.902758 
L 298.936571 158.996802 
L 298.448307 160.115615 
L 297.88959 161.259882 
L 297.250956 162.428948 
L 296.521685 163.620291 
L 295.689912 164.828841 
L 294.742918 166.046148 
L 293.667705 167.259431 
L 292.451948 168.450591 
L 291.085438 169.595388 
L 289.562039 170.663076 
L 287.88208 171.616908 
L 286.054843 172.415964 
L 284.100578 173.018563 
L 282.051218 173.387171 
L 279.949107 173.493959 
L 277.843418 173.325711 
L 275.784914 172.886404 
L 273.820092 172.196911 
L 271.986354 171.291417 
L 270.309273 170.212076 
L 268.802209 169.00327 
L 267.467808 167.706921 
L 266.300542 166.359408 
L 265.28947 164.990137 
L 264.420668 163.621425 
L 263.679106 162.269171 
L 263.049923 160.943912 
L 262.519221 159.65195 
L 262.074474 158.396385 
L 261.704691 157.177989 
L 261.400417 155.995896 
L 261.153647 154.848121 
L 260.957697 153.731949 
L 260.80706 152.644203 
L 260.697272 151.58144 
L 260.624788 150.540073 
L 260.586875 149.516456 
L 260.581527 148.506936 
L 260.607399 147.507879 
L 260.663761 146.515689 
L 260.750464 145.526811 
L 260.867934 144.537735 
L 261.017169 143.544999 
L 261.199765 142.545197 
L 261.417946 141.534996 
L 261.674624 140.511161 
L 261.973461 139.470611 
L 262.318959 138.410498 
L 262.716552 137.328322 
L 263.172713 136.222114 
L 263.695056 135.090678 
L 264.292421 133.933936 
L 264.974914 132.75339 
L 265.753861 131.552725 
L 266.64161 130.338569 
L 267.651114 129.121393 
L 268.795176 127.916503 
L 270.085265 126.744981 
L 271.529821 125.634332 
L 273.132064 124.618476 
L 274.887498 123.736625 
L 276.781554 123.03064 
L 278.788118 122.540828 
L 280.869733 122.300562 
L 282.979984 122.330815 
" style="fill:none;stroke:#000000;stroke-linecap:square;stroke-width:1.5;"/>
   </g>
   <g id="line2d_29">
    <path clip-path="url(#p8e395a151a)" d="M 268.656892 91.466193 
L 269.67828 90.874142 
L 270.76404 90.415146 
L 271.893373 90.091779 
L 273.045231 89.900861 
L 274.199937 89.834402 
L 275.340404 89.880949 
L 276.452828 90.027048 
L 277.526895 90.258574 
L 278.555591 90.561773 
L 279.534782 90.923978 
L 280.46267 91.334019 
L 281.339249 91.782387 
L 282.165801 92.261231 
L 282.944475 92.764248 
L 283.677951 93.286518 
L 284.369184 93.824321 
L 285.021219 94.374951 
L 285.637058 94.936558 
L 286.219571 95.507997 
L 286.771436 96.088711 
L 287.295105 96.678629 
L 287.792777 97.278087 
L 288.266386 97.887762 
L 288.717593 98.508627 
L 289.147772 99.141907 
L 289.558 99.789052 
L 289.949047 100.45171 
L 290.321349 101.131706 
L 290.674985 101.831019 
L 291.009636 102.551756 
L 291.32454 103.296123 
L 291.618435 104.066374 
L 291.88948 104.864757 
L 292.135181 105.693425 
L 292.352286 106.554317 
L 292.536691 107.449 
L 292.683338 108.378454 
L 292.786124 109.342801 
L 292.837853 110.340966 
L 292.830251 111.370269 
L 292.754079 112.425971 
L 292.599407 113.500818 
L 292.356079 114.58463 
L 292.014425 115.664059 
L 291.566187 116.722627 
L 291.005639 117.741177 
L 290.330721 118.698822 
L 289.544011 119.574389 
L 288.653253 120.348203 
L 287.671274 121.003936 
L 286.615185 121.530163 
L 285.504982 121.921291 
L 284.361806 122.177707 
L 283.206203 122.305145 
L 282.056675 122.313511 
L 280.928722 122.215436 
L 279.834401 122.02486 
L 278.782334 121.755832 
L 277.778033 121.421634 
L 276.824393 121.034216 
L 275.922251 120.603929 
L 275.070909 120.139442 
L 274.268605 119.647815 
L 273.512888 119.134636 
L 272.800913 118.604202 
L 272.129659 118.059705 
L 271.496091 117.503403 
L 270.897263 116.936776 
L 270.330396 116.360663 
L 269.79292 115.775365 
L 269.282508 115.180742 
L 268.797092 114.576279 
L 268.334873 113.961147 
L 267.894333 113.334242 
L 267.474245 112.694223 
L 267.073683 112.039538 
L 266.692042 111.368449 
L 266.329059 110.67905 
L 265.984849 109.969295 
L 265.659946 109.237024 
L 265.355355 108.479998 
L 265.072616 107.695959 
L 264.813887 106.882692 
L 264.582027 106.038136 
L 264.380702 105.160515 
L 264.21448 104.248523 
L 264.088933 103.301572 
L 264.010707 102.320091 
L 263.987545 101.305905 
L 264.028225 100.262664 
L 264.142378 99.196307 
L 264.340119 98.11551 
L 264.631465 97.03202 
L 265.02551 95.960777 
L 265.52939 94.919686 
L 266.147137 93.928921 
L 266.87859 93.009717 
L 267.718621 92.182735 
L 268.656892 91.466193 
" style="fill:none;stroke:#000000;stroke-linecap:square;stroke-width:1.5;"/>
   </g>
   <g id="line2d_30">
    <path clip-path="url(#p8e395a151a)" d="M 278.990417 224.795207 
L 280.124063 223.994017 
L 281.278328 223.14749 
L 282.448783 222.259099 
L 283.631047 221.332364 
L 284.820795 220.37085 
L 286.013755 219.37815 
L 287.205712 218.357888 
L 288.3925 217.313715 
L 289.570001 216.24931 
L 290.734138 215.168383 
L 291.880866 214.074679 
L 293.006175 212.971984 
L 294.106078 211.86413 
L 295.176611 210.755 
L 296.213834 209.648533 
L 297.213832 208.548723 
L 298.172723 207.459626 
L 299.086664 206.385349 
" style="fill:none;stroke:#000000;stroke-linecap:square;stroke-width:1.5;"/>
   </g>
   <g id="line2d_31">
    <path clip-path="url(#p8e395a151a)" d="M 305.608825 193.406833 
L 305.768165 193.599899 
L 305.876606 193.84815 
L 305.933736 194.150352 
L 305.93944 194.504974 
L 305.893892 194.910202 
L 305.797545 195.363968 
L 305.651123 195.863969 
L 305.4556 196.407699 
L 305.212184 196.992478 
L 304.922293 197.615477 
L 304.587537 198.273752 
L 304.20969 198.964268 
L 303.790671 199.683926 
L 303.332523 200.429587 
L 302.837389 201.198089 
L 302.307497 201.986267 
L 301.745141 202.790965 
L 301.152669 203.60905 
L 300.532472 204.437417 
L 299.886973 205.272994 
L 299.218623 206.112746 
L 298.529895 206.953676 
L 297.823281 207.792821 
L 297.101296 208.627253 
L 296.366474 209.454072 
L 295.621375 210.270405 
L 294.868583 211.073402 
L 294.110716 211.860231 
L 293.350421 212.628078 
L 292.590386 213.374144 
L 291.833336 214.095649 
L 291.082034 214.789831 
L 290.339283 215.453955 
L 289.607922 216.085319 
L 288.89082 216.681266 
L 288.190868 217.239196 
L 287.510969 217.756585 
L 286.854025 218.231 
L 286.222919 218.660125 
L 285.620496 219.041781 
L 285.049544 219.373951 
L 284.512766 219.654809 
L 284.012758 219.88274 
L 283.551978 220.056371 
L 283.132727 220.174588 
L 282.757113 220.236562 
L 282.427035 220.241765 
L 282.144153 220.18998 
L 281.909873 220.081316 
L 281.725328 219.916208 
L 281.591367 219.695415 
L 281.508549 219.420015 
L 281.477136 219.091394 
L 281.497097 218.711226 
L 281.568119 218.281455 
L 281.68961 217.80427 
L 281.860719 217.28208 
L 282.080353 216.71748 
L 282.347196 216.11323 
L 282.659732 215.472219 
L 283.016265 214.797439 
L 283.414946 214.091962 
L 283.853791 213.358908 
L 284.330706 212.60143 
L 284.843502 211.822695 
L 285.389917 211.025864 
L 285.967628 210.214082 
L 286.574263 209.39047 
L 287.207415 208.558116 
L 287.864648 207.720075 
L 288.543497 206.879361 
L 289.241481 206.038956 
L 289.956096 205.201803 
L 290.684818 204.370817 
L 291.4251 203.548883 
L 292.17437 202.738863 
L 292.930029 201.943597 
L 293.689443 201.165909 
L 294.449946 200.408603 
L 295.208832 199.674472 
L 295.963356 198.966285 
L 296.710736 198.286792 
L 297.448148 197.638712 
L 298.17274 197.024728 
L 298.881629 196.447469 
L 299.571918 195.909499 
L 300.240701 195.413299 
L 300.885085 194.961248 
L 301.502202 194.555595 
L 302.089233 194.198441 
L 302.64343 193.891711 
L 303.16214 193.637129 
L 303.642832 193.436192 
L 304.083123 193.290147 
L 304.480807 193.199966 
L 304.833876 193.166331 
L 305.140548 193.189615 
L 305.399288 193.269873 
L 305.608825 193.406833 
" style="fill:none;stroke:#000000;stroke-linecap:square;stroke-width:1.5;"/>
   </g>
   <g id="line2d_32"/>
   <g id="line2d_33">
    <path clip-path="url(#p8e395a151a)" d="M 257.947054 50.635782 
L 256.643522 50.158506 
L 255.290947 49.689957 
L 253.894703 49.231807 
L 252.460179 48.785662 
L 250.992767 48.353057 
L 249.497857 47.935467 
L 247.98083 47.534303 
L 246.447061 47.15092 
L 244.901924 46.786619 
L 243.350794 46.44265 
L 241.799055 46.120211 
L 240.252108 45.820457 
L 238.715377 45.54449 
L 237.194315 45.293369 
L 235.694404 45.068098 
L 234.221161 44.869629 
L 232.78013 44.698856 
L 231.376876 44.556607 
L 230.016975 44.443636 
" style="fill:none;stroke:#000000;stroke-linecap:square;stroke-width:1.5;"/>
   </g>
   <g id="line2d_34">
    <path clip-path="url(#p8e395a151a)" d="M 235.782667 47.252777 
L 235.894868 47.032004 
L 236.077479 46.835649 
L 236.329545 46.664573 
L 236.64972 46.519484 
L 237.03629 46.40094 
L 237.487198 46.309346 
L 238.000067 46.244955 
L 238.572235 46.207873 
L 239.200788 46.198063 
L 239.882596 46.215354 
L 240.614344 46.25945 
L 241.392573 46.329939 
L 242.213702 46.426303 
L 243.074068 46.54793 
L 243.969943 46.694123 
L 244.897565 46.86411 
L 245.853151 47.057055 
L 246.832916 47.272063 
L 247.833084 47.50819 
L 248.849894 47.764449 
L 249.87961 48.039812 
L 250.918516 48.333217 
L 251.962924 48.643569 
L 253.009165 48.969742 
L 254.053589 49.310575 
L 255.092561 49.664879 
L 256.122454 50.03143 
L 257.13965 50.408969 
L 258.14053 50.796199 
L 259.121477 51.191784 
L 260.078876 51.594347 
L 261.009113 52.002466 
L 261.908585 52.414674 
L 262.773704 52.82946 
L 263.600913 53.245267 
L 264.3867 53.660495 
L 265.127615 54.073506 
L 265.820295 54.482624 
L 266.46149 54.886148 
L 267.04809 55.282355 
L 267.57716 55.669511 
L 268.045966 56.045885 
L 268.452014 56.40976 
L 268.793079 56.759447 
L 269.067242 57.093301 
L 269.272913 57.409735 
L 269.408858 57.707239 
L 269.474226 57.984391 
L 269.468557 58.239875 
L 269.391795 58.472492 
L 269.244294 58.681172 
L 269.026811 58.864986 
L 268.7405 59.023148 
L 268.38689 59.155024 
L 267.967873 59.260134 
L 267.485669 59.338149 
L 266.942801 59.38889 
L 266.342062 59.412323 
L 265.686478 59.408553 
L 264.979276 59.377815 
L 264.223847 59.320464 
L 263.423714 59.236966 
L 262.582504 59.127889 
L 261.703915 58.993887 
L 260.791695 58.835696 
L 259.849618 58.654121 
L 258.881469 58.45003 
L 257.891031 58.224342 
L 256.882074 57.978023 
L 255.858345 57.712081 
L 254.823571 57.427562 
L 253.781454 57.125544 
L 252.735673 56.807139 
L 251.689885 56.47349 
L 250.647733 56.12577 
L 249.612848 55.765187 
L 248.588851 55.392983 
L 247.579361 55.010434 
L 246.587995 54.618857 
L 245.61837 54.219608 
L 244.674101 53.814086 
L 243.758797 53.403737 
L 242.876055 52.990048 
L 242.029448 52.574554 
L 241.222515 52.158834 
L 240.458738 51.744507 
L 239.741527 51.333232 
L 239.074191 50.926696 
L 238.459914 50.526615 
L 237.901724 50.134717 
L 237.402459 49.752735 
L 236.964736 49.382397 
L 236.59092 49.025408 
L 236.283086 48.683435 
L 236.042992 48.358097 
L 235.872053 48.050944 
L 235.771314 47.763445 
L 235.741432 47.49697 
L 235.782667 47.252777 
" style="fill:none;stroke:#000000;stroke-linecap:square;stroke-width:1.5;"/>
   </g>
   <g id="line2d_35"/>
   <g id="line2d_36"/>
   <g id="line2d_37">
    <path clip-path="url(#p8e395a151a)" d="M 289.610803 177.585229 
L 290.550258 178.736707 
L 291.339523 179.999369 
L 291.972213 181.352783 
L 292.447333 182.774829 
L 292.768806 184.243213 
L 292.944587 185.736805 
L 292.985561 187.236653 
L 292.904404 188.726619 
L 292.714548 190.193644 
L 292.429336 191.627727 
L 292.061404 193.021674 
L 291.622274 194.370744 
L 291.122134 195.672226 
L 290.569751 196.92503 
L 289.972489 198.129301 
L 289.336386 199.286091 
L 288.66627 200.397077 
L 287.965879 201.464339 
L 287.237997 202.49018 
L 286.484569 203.476989 
L 285.706814 204.427131 
L 284.905321 205.342869 
L 284.080132 206.226292 
L 283.230814 207.079266 
L 282.356519 207.903386 
L 281.456043 208.699934 
L 280.527868 209.46983 
L 279.570215 210.21359 
L 278.581089 210.931269 
L 277.558338 211.622399 
L 276.499711 212.285917 
L 275.402943 212.920078 
L 274.265856 213.522362 
L 273.086487 214.089368 
L 271.863257 214.616698 
L 270.595181 215.098847 
L 269.282123 215.529096 
L 267.925112 215.89944 
L 266.526704 216.200565 
L 265.091373 216.421902 
L 263.625928 216.551811 
L 262.139878 216.577915 
L 260.645711 216.487635 
L 259.158983 216.268926 
L 257.698136 215.91122 
L 256.283974 215.406487 
L 254.93875 214.750312 
L 253.684908 213.942821 
L 252.543587 212.989271 
L 251.533085 211.900146 
L 250.667572 210.690688 
L 249.956134 209.37995 
L 249.402427 207.989405 
L 249.004897 206.541442 
L 248.757478 205.057922 
L 248.650606 203.558989 
L 248.672359 202.062246 
L 248.809563 200.582305 
L 249.048739 199.130677 
L 249.376832 197.715923 
L 249.781724 196.343959 
L 250.252541 195.01846 
L 250.779805 193.741274 
L 251.355456 192.51283 
L 251.972806 191.332487 
L 252.626441 190.198849 
L 253.312093 189.110011 
L 254.026517 188.063761 
L 254.767365 187.057738 
L 255.533068 186.089552 
L 256.322731 185.156881 
L 257.136051 184.257543 
L 257.973229 183.389555 
L 258.834914 182.55118 
L 259.722137 181.740978 
L 260.636264 180.957841 
L 261.578948 180.201045 
L 262.552082 179.470298 
L 263.557746 178.765798 
L 264.598151 178.088302 
L 265.675564 177.439202 
L 266.792221 176.820617 
L 267.950213 176.235493 
L 269.151335 175.687716 
L 270.396899 175.182221 
L 271.687504 174.725109 
L 273.022747 174.323733 
L 274.400883 173.986754 
L 275.81845 173.724127 
L 277.269855 173.546988 
L 278.746981 173.4674 
L 280.238852 173.497923 
L 281.731442 173.650974 
L 283.207708 173.937989 
L 284.647937 174.368404 
L 286.030461 174.948573 
L 287.332758 175.680737 
L 288.532843 176.562254 
L 289.610803 177.585229 
" style="fill:none;stroke:#000000;stroke-linecap:square;stroke-width:1.5;"/>
   </g>
   <g id="line2d_38">
    <path clip-path="url(#p8e395a151a)" d="M 219.031304 74.450443 
L 219.720543 72.777347 
L 220.611811 71.208355 
L 221.680361 69.767477 
L 222.895454 68.471135 
L 224.223699 67.327787 
L 225.632109 66.338621 
L 227.090489 65.498938 
L 228.57292 64.799838 
L 230.058412 64.229853 
L 231.530892 63.776343 
L 232.978763 63.426548 
L 234.394256 63.168303 
L 235.772702 62.990474 
L 237.111856 62.883179 
L 238.411293 62.837855 
L 239.67191 62.847231 
L 240.895531 62.905253 
L 242.084604 63.006977 
L 243.241972 63.148458 
L 244.370702 63.326642 
L 245.473967 63.539275 
L 246.554958 63.784815 
L 247.616822 64.06237 
L 248.662617 64.371646 
L 249.695275 64.712905 
L 250.717575 65.086945 
L 251.732111 65.495082 
L 252.741255 65.939152 
L 253.747116 66.421512 
L 254.751477 66.945052 
L 255.755721 67.513215 
L 256.760728 68.130002 
L 257.766734 68.799991 
L 258.773162 69.528322 
L 259.778395 70.320667 
L 260.779503 71.18316 
L 261.771903 72.122252 
L 262.748977 73.144496 
L 263.701644 74.256188 
L 264.617926 75.462874 
L 265.482584 76.768664 
L 266.276901 78.175349 
L 266.97877 79.68136 
L 267.563238 81.280641 
L 268.003667 82.961607 
L 268.273603 84.706439 
L 268.349284 86.491016 
L 268.212486 88.285725 
L 267.853244 90.057287 
L 267.271766 91.771447 
L 266.478933 93.395946 
L 265.495477 94.903448 
L 264.349563 96.273618 
L 263.07366 97.494043 
L 261.701309 98.560039 
L 260.26435 99.473566 
L 258.790975 100.241641 
L 257.304675 100.874642 
L 255.823954 101.384777 
L 254.362578 101.784858 
L 252.930144 102.087416 
L 251.532781 102.304139 
L 250.173858 102.44555 
L 248.854639 102.520874 
L 247.574826 102.538019 
L 246.33301 102.503637 
L 245.12702 102.423213 
L 243.954185 102.301178 
L 242.811532 102.141017 
L 241.695928 101.945375 
L 240.604184 101.716137 
L 239.533126 101.454514 
L 238.47965 101.161093 
L 237.440757 100.835885 
L 236.41359 100.47836 
L 235.395461 100.087458 
L 234.383884 99.661606 
L 233.376613 99.19871 
L 232.371695 98.696149 
L 231.367536 98.150761 
L 230.362992 97.558825 
L 229.357484 96.916053 
L 228.351158 96.217585 
L 227.345077 95.458006 
L 226.341476 94.631399 
L 225.344061 93.731445 
L 224.358376 92.751604 
L 223.392213 91.685399 
L 222.456047 90.526831 
L 221.563445 89.270978 
L 220.731376 87.914771 
L 219.980294 86.45796 
L 219.333835 84.904219 
L 218.817989 83.262254 
L 218.459582 81.546711 
L 218.284075 79.778603 
L 218.31282 77.984963 
L 218.560213 76.197518 
L 219.031304 74.450443 
" style="fill:none;stroke:#000000;stroke-linecap:square;stroke-width:1.5;"/>
   </g>
   <g id="line2d_39">
    <path clip-path="url(#p8e395a151a)" d="M 241.485022 105.721668 
L 243.698193 104.265664 
L 246.034487 103.247742 
L 248.328852 102.656982 
L 250.461007 102.421864 
L 252.368855 102.449106 
L 254.037322 102.652334 
L 255.479697 102.96426 
L 256.722152 103.337625 
L 257.794157 103.741435 
L 258.723643 104.156388 
L 259.535077 104.571051 
L 260.249048 104.979068 
L 260.882532 105.37729 
L 261.449397 105.764544 
L 261.960941 106.140862 
L 262.42638 106.506996 
L 262.853263 106.864117 
L 263.247808 107.21364 
L 263.615173 107.55712 
L 263.959668 107.89619 
L 264.284927 108.23254 
L 264.594037 108.567909 
L 264.889646 108.904095 
L 265.174045 109.24297 
L 265.449234 109.586509 
L 265.716969 109.936824 
L 265.978806 110.296204 
L 266.236123 110.667172 
L 266.490138 111.052541 
L 266.741916 111.455499 
L 266.992358 111.879693 
L 267.242176 112.329354 
L 267.491847 112.809433 
L 267.741526 113.32578 
L 267.990919 113.885359 
L 268.239077 114.49651 
L 268.484088 115.169263 
L 268.722598 115.915688 
L 268.9491 116.750261 
L 269.154856 117.690164 
L 269.32632 118.755345 
L 269.442899 119.967991 
L 269.47397 121.350765 
L 269.375437 122.92274 
L 269.086964 124.691573 
L 268.532821 126.640836 
L 267.63148 128.713961 
L 266.319128 130.802492 
L 264.58465 132.75333 
L 262.497382 134.405989 
L 260.200692 135.646833 
L 257.866779 136.445144 
L 255.642119 136.846844 
L 253.617643 136.938975 
L 251.829712 136.813919 
L 250.276967 136.54919 
L 248.938147 136.201768 
L 247.784589 135.810182 
L 246.787201 135.399017 
L 245.919641 134.983211 
L 245.159365 134.571365 
L 244.487632 134.168038 
L 243.889079 133.775273 
L 243.351188 133.393564 
L 242.863758 133.022475 
L 242.418458 132.661017 
L 242.008445 132.307879 
L 241.628063 131.961571 
L 241.272606 131.620493 
L 240.938122 131.282982 
L 240.621268 130.947324 
L 240.319189 130.611754 
L 240.029427 130.274438 
L 239.749843 129.933459 
L 239.478565 129.586778 
L 239.213942 129.2322 
L 238.954511 128.867327 
L 238.698974 128.489502 
L 238.44619 128.095735 
L 238.195174 127.682623 
L 237.945115 127.246247 
L 237.69541 126.782036 
L 237.44573 126.28462 
L 237.196127 125.747623 
L 236.947188 125.163432 
L 236.7003 124.522909 
L 236.458025 123.815048 
L 236.224684 123.026616 
L 236.007241 122.141802 
L 235.816602 121.142004 
L 235.669502 120.006006 
L 235.591118 118.711028 
L 235.618356 117.235492 
L 235.803207 115.564788 
L 236.214228 113.701454 
L 236.932074 111.679992 
L 238.033352 109.582255 
L 239.560111 107.541745 
L 241.485022 105.721668 
" style="fill:none;stroke:#000000;stroke-linecap:square;stroke-width:1.5;"/>
   </g>
   <g id="line2d_40">
    <path clip-path="url(#p8e395a151a)" d="M 282.468101 220.584728 
L 282.526396 220.865025 
L 282.48621 221.184676 
L 282.347825 221.542241 
L 282.112018 221.936091 
L 281.780053 222.364428 
L 281.353657 222.825293 
L 280.835004 223.316589 
L 280.226687 223.836097 
L 279.531689 224.381491 
L 278.753348 224.950359 
L 241.293562 240.547086 
L 240.304491 240.714318 
L 239.388885 240.839743 
L 238.550957 240.922622 
L 237.79462 240.962398 
L 237.123458 240.958715 
L 236.540687 240.911418 
L 236.049124 240.820564 
L 235.651157 240.686429 
L 235.34872 240.509506 
L 235.143275 240.29051 
L 235.035791 240.030371 
L 235.026741 239.730229 
L 235.116093 239.391429 
L 235.303316 239.015506 
L 235.58739 238.604178 
L 235.966815 238.159323 
L 236.439638 237.682972 
L 237.003472 237.177286 
L 237.655525 236.644538 
L 238.392634 236.087101 
L 239.211292 235.507422 
L 240.107687 234.90801 
L 241.077735 234.291421 
L 242.117111 233.660236 
L 243.221282 233.017057 
L 244.385539 232.364486 
L 245.605023 231.705119 
L 246.874748 231.041538 
L 248.189628 230.376299 
L 249.544489 229.711931 
L 250.934091 229.050928 
L 252.353139 228.395747 
L 253.796291 227.748806 
L 255.25817 227.112478 
L 256.733368 226.489094 
L 258.216454 225.880941 
L 259.701975 225.290257 
L 261.184461 224.719234 
L 262.658432 224.170011 
L 264.118399 223.644674 
L 265.558874 223.145253 
L 266.974377 222.673712 
L 268.359445 222.231948 
L 269.708647 221.821783 
L 271.016601 221.444953 
L 272.277989 221.103099 
L 273.487584 220.797759 
L 274.640274 220.530354 
L 275.731088 220.302174 
L 276.755231 220.11437 
L 277.708113 219.967938 
L 278.585389 219.863705 
L 279.382991 219.80232 
L 280.097166 219.784241 
L 280.72451 219.809726 
L 281.262003 219.878822 
L 281.707039 219.991365 
L 282.057454 220.146969 
L 282.311547 220.345031 
L 282.468101 220.584728 
" style="fill:none;stroke:#000000;stroke-linecap:square;stroke-width:1.5;"/>
   </g>
   <g id="line2d_41"/>
   <g id="line2d_42"/>
   <g id="line2d_43">
    <path clip-path="url(#p8e395a151a)" d="M 185.176519 53.09703 
L 185.192387 52.806833 
L 185.313668 52.504176 
L 185.539716 52.190401 
L 185.869348 51.8669 
L 186.300871 51.535108 
L 186.832092 51.196489 
L 187.460352 50.852525 
L 188.182556 50.504707 
L 188.995202 50.154525 
L 189.894421 49.803461 
L 190.876016 49.452975 
L 230.110228 44.453793 
L 231.109678 44.552072 
L 232.027394 44.67185 
L 232.859098 44.812738 
L 233.60084 44.974245 
L 234.249047 45.155774 
L 234.800551 45.356624 
L 235.252628 45.575992 
L 235.603023 45.812975 
L 235.849984 46.066574 
L 235.992273 46.335701 
L 236.029188 46.619183 
L 235.960566 46.915775 
L 235.786787 47.224162 
L 235.508767 47.542977 
L 235.127946 47.870804 
L 234.64627 48.206194 
L 234.066169 48.547672 
L 233.390523 48.89375 
L 232.622637 49.242936 
L 231.766199 49.593742 
L 230.825249 49.944699 
L 229.804134 50.294356 
L 228.707478 50.641294 
L 227.54014 50.984128 
L 226.307182 51.321514 
L 225.013834 51.652153 
L 223.665465 51.974792 
L 222.26756 52.288226 
L 220.825691 52.591304 
L 219.345501 52.882922 
L 217.83269 53.16203 
L 216.292995 53.427631 
L 214.732186 53.678774 
L 213.156054 53.914564 
L 211.570409 54.134153 
L 209.981069 54.336745 
L 208.393862 54.521595 
L 206.814618 54.688006 
L 205.249169 54.835337 
L 203.703338 54.962999 
L 202.18294 55.070458 
L 200.693764 55.157242 
L 199.241571 55.222936 
L 197.832072 55.267195 
L 196.470916 55.28974 
L 195.163666 55.29037 
L 193.915776 55.26896 
L 192.732562 55.225469 
L 191.619173 55.159945 
L 190.580555 55.072529 
L 189.621417 54.963459 
L 188.746192 54.83307 
L 187.958998 54.681805 
L 187.263601 54.510206 
L 186.663376 54.318923 
L 186.161274 54.108707 
L 185.759787 53.880412 
L 185.460922 53.63499 
L 185.266176 53.373486 
L 185.176519 53.09703 
" style="fill:none;stroke:#000000;stroke-linecap:square;stroke-width:1.5;"/>
   </g>
   <g id="line2d_44"/>
   <g id="line2d_45">
    <path clip-path="url(#p8e395a151a)" d="M 260.23664 154.845665 
L 262.37175 159.273194 
L 263.51231 163.720424 
L 263.779096 167.790685 
L 263.455741 171.26678 
L 262.805845 174.126954 
L 262.009414 176.447019 
L 261.171664 178.328399 
L 260.347257 179.86559 
L 259.561283 181.13598 
L 258.823888 182.199552 
L 258.134479 183.102144 
L 257.490378 183.878099 
L 256.887285 184.55352 
L 256.320352 185.148385 
L 255.784731 185.678134 
L 255.275825 186.154822 
L 254.78938 186.58797 
L 254.32149 186.985182 
L 253.868572 187.352602 
L 253.427314 187.695253 
L 252.994622 188.017286 
L 252.567555 188.322175 
L 252.143273 188.612858 
L 251.718969 188.89185 
L 251.291815 189.161328 
L 250.858883 189.4232 
L 250.417088 189.67915 
L 249.963095 189.930675 
L 249.49323 190.179114 
L 249.003359 190.425657 
L 248.488755 190.671341 
L 247.943919 190.917037 
L 247.362354 191.163401 
L 246.736288 191.410793 
L 246.056297 191.659148 
L 245.310822 191.907748 
L 244.485543 192.15487 
L 243.562553 192.397207 
L 242.519307 192.628938 
L 241.327315 192.840225 
L 239.950086 193.015449 
L 238.342136 193.127956 
L 236.449233 193.132978 
L 234.210323 192.958722 
L 231.569091 192.492065 
L 228.501821 191.565778 
L 225.071483 189.962173 
L 221.503432 187.469211 
L 218.178453 184.027329 
L 215.543308 179.823003 
L 213.879282 175.305174 
L 213.234691 171.006241 
L 213.320886 167.233605 
L 213.848525 164.081045 
L 214.564472 161.487499 
L 215.382621 159.402781 
L 216.217028 157.705103 
L 217.024416 156.308826 
L 217.786285 155.146407 
L 218.500718 154.167265 
L 219.173213 153.332877 
L 219.793576 152.614439 
L 220.377377 151.981214 
L 220.931275 151.41958 
L 221.453947 150.917102 
L 221.951383 150.463611 
L 222.427994 150.050152 
L 222.887938 149.669155 
L 223.335076 149.314228 
L 223.772004 148.982075 
L 224.20178 148.668847 
L 224.627316 148.37129 
L 225.051445 148.08665 
L 225.476989 147.812572 
L 225.906824 147.547013 
L 226.343951 147.288181 
L 226.791584 147.034485 
L 227.253244 146.78451 
L 227.73287 146.536993 
L 228.235372 146.290843 
L 228.764092 146.044997 
L 229.325618 145.798774 
L 229.927699 145.551581 
L 230.57971 145.303211 
L 231.293243 145.05154 
L 232.077593 144.803928 
L 232.947363 144.559243 
L 233.925141 144.317029 
L 235.039651 144.091539 
L 236.320774 143.896742 
L 237.808656 143.748988 
L 239.551906 143.683453 
L 241.606867 143.759295 
L 244.033747 144.077403 
L 246.895572 144.763108 
L 250.151505 145.969606 
L 253.696494 147.975045 
L 257.209226 150.965597 
L 260.23664 154.845665 
" style="fill:none;stroke:#000000;stroke-linecap:square;stroke-width:1.5;"/>
   </g>
   <g id="line2d_46">
    <path clip-path="url(#p8e395a151a)" d="M 186.906163 124.43842 
L 185.538662 120.008787 
L 185.069782 115.669016 
L 185.347735 111.75444 
L 186.109157 108.432248 
L 187.118104 105.70839 
L 188.215332 103.50678 
L 189.309416 101.729685 
L 190.354971 100.286178 
L 191.333658 99.101436 
L 192.241531 98.117158 
L 193.081678 97.288947 
L 193.860131 96.583209 
L 194.583985 95.974473 
L 195.260676 95.443359 
L 195.896886 94.974946 
L 196.498715 94.55763 
L 197.071665 94.182302 
L 197.62068 93.841739 
L 198.150224 93.530153 
L 198.664356 93.242868 
L 199.16682 92.976069 
L 199.661119 92.726623 
L 200.150591 92.491938 
L 200.638489 92.269864 
L 201.128045 92.058609 
L 201.622558 91.85669 
L 202.125456 91.662892 
L 202.640396 91.476244 
L 203.171358 91.296015 
L 203.722759 91.121717 
L 204.299594 90.953143 
L 204.9076 90.79041 
L 205.55347 90.634059 
L 206.245112 90.48518 
L 206.991982 90.345633 
L 207.805499 90.218355 
L 208.699571 90.107843 
L 209.6913 90.020816 
L 210.801915 89.967214 
L 212.057042 89.962579 
L 213.487959 90.030108 
L 215.13156 90.204951 
L 217.028769 90.540253 
L 219.21891 91.115289 
L 221.725929 92.044221 
L 224.531142 93.479469 
L 227.529214 95.595302 
L 230.482314 98.526238 
L 233.050488 102.25598 
L 234.887888 106.553616 
L 235.814682 111.004719 
L 235.864423 115.164691 
L 235.297897 118.78181 
L 234.375718 121.785695 
L 233.31705 124.253671 
L 232.223515 126.231328 
L 231.153232 127.830418 
L 230.140847 129.136373 
L 229.197755 130.21504 
L 228.323813 131.116741 
L 227.512964 131.879078 
L 226.7622 132.529595 
L 226.064617 133.096304 
L 225.408785 133.595265 
L 224.787443 134.037059 
L 224.2001 134.432547 
L 223.63937 134.789618 
L 223.100397 135.114867 
L 222.578816 135.41365 
L 222.0707 135.690258 
L 221.572457 135.948128 
L 221.080713 136.19005 
L 220.592209 136.418357 
L 220.103684 136.634904 
L 219.611869 136.841408 
L 219.113393 137.039219 
L 218.604632 137.229372 
L 218.08191 137.412845 
L 217.541077 137.59023 
L 216.977503 137.761885 
L 216.385825 137.92785 
L 215.759715 138.087779 
L 215.091691 138.240867 
L 214.372941 138.385743 
L 213.591982 138.521257 
L 212.740376 138.640309 
L 211.80497 138.739506 
L 210.755259 138.816521 
L 209.57505 138.848928 
L 208.235867 138.820844 
L 206.703561 138.704437 
L 204.939804 138.456401 
L 202.905205 138.009763 
L 200.562606 137.250599 
L 197.892673 136.095706 
L 194.971947 134.362509 
L 191.952174 131.873237 
L 189.139951 128.505199 
L 186.906163 124.43842 
" style="fill:none;stroke:#000000;stroke-linecap:square;stroke-width:1.5;"/>
   </g>
   <g id="line2d_47"/>
   <g id="line2d_48"/>
   <g id="line2d_49">
    <path clip-path="url(#p8e395a151a)" d="M 221.952905 54.950966 
L 222.043506 54.537551 
L 222.198472 54.136126 
L 222.416093 53.749434 
L 222.693885 53.379952 
L 223.028686 53.029837 
L 223.41679 52.7009 
L 223.854085 52.394584 
L 224.336202 52.11197 
L 224.85865 51.853795 
L 225.416946 51.620479 
L 226.006718 51.412166 
L 226.623792 51.228767 
L 227.264256 51.070003 
L 227.9245 50.935453 
L 228.601241 50.824593 
L 229.291525 50.736836 
L 229.992724 50.671563 
L 230.702515 50.628154 
L 231.418855 50.606007 
L 232.139949 50.60456 
L 232.864217 50.623303 
L 233.590254 50.661786 
L 234.316794 50.719631 
L 235.042667 50.796527 
L 235.766764 50.892238 
L 236.487997 51.006595 
L 237.205257 51.139495 
L 237.917379 51.290892 
L 238.623102 51.460788 
L 239.321031 51.649219 
L 240.009606 51.856243 
L 240.687059 52.081919 
L 241.35139 52.326288 
L 242.000335 52.589347 
L 242.631344 52.871021 
L 243.241569 53.171135 
L 243.827856 53.489379 
L 244.386758 53.825274 
L 244.914554 54.178136 
L 245.407298 54.547045 
L 245.860874 54.930815 
L 246.271086 55.327971 
L 246.633759 55.736733 
L 246.94486 56.155021 
L 247.200635 56.580461 
L 247.397749 57.010417 
L 247.533421 57.442039 
L 247.605554 57.872319 
L 247.612831 58.298165 
L 247.554789 58.716482 
L 247.431844 59.124259 
L 247.245287 59.518645 
L 246.997224 59.897023 
L 246.690496 60.25707 
L 246.328551 60.5968 
L 245.915318 60.914584 
L 245.455055 61.209162 
L 244.952208 61.479628 
L 244.41128 61.725408 
L 243.836711 61.946225 
L 243.232781 62.142057 
L 242.603542 62.313093 
L 241.952757 62.45969 
L 241.283874 62.582325 
L 240.600013 62.681557 
L 239.903963 62.757994 
L 239.198195 62.812258 
L 238.484891 62.844963 
L 237.765964 62.856693 
L 237.043097 62.847985 
L 236.317779 62.81932 
L 235.591339 62.771113 
L 234.864991 62.703708 
L 234.139869 62.61738 
L 233.417068 62.512329 
L 232.69768 62.388691 
L 231.982838 62.24654 
L 231.273751 62.085896 
L 230.571741 61.906739 
L 229.878282 61.709019 
L 229.195033 61.492676 
L 228.523875 61.257656 
L 227.866937 61.003938 
L 227.226623 60.731557 
L 226.605631 60.440633 
L 226.006962 60.131405 
L 225.433919 59.804264 
L 224.890089 59.459786 
L 224.379313 59.09877 
L 223.905632 58.722264 
L 223.473212 58.331598 
L 223.086253 57.928398 
L 222.748876 57.514594 
L 222.464992 57.092416 
L 222.238162 56.664374 
L 222.071461 56.233217 
L 221.967343 55.801883 
L 221.927526 55.373432 
L 221.952905 54.950966 
" style="fill:none;stroke:#000000;stroke-linecap:square;stroke-width:1.5;"/>
   </g>
   <g id="line2d_50"/>
   <g id="line2d_51">
    <path clip-path="url(#p8e395a151a)" d="M 249.41833 209.611905 
L 249.337939 211.2788 
L 249.050241 212.921386 
L 248.567403 214.514155 
L 247.908341 216.035315 
L 247.096549 217.467948 
L 246.157761 218.800445 
L 245.117816 220.026299 
L 244.000996 221.143453 
L 242.828914 222.153391 
L 241.619944 223.060186 
L 240.389074 223.869605 
L 239.148062 224.588367 
L 237.905759 225.223563 
L 236.668519 225.782233 
L 235.440621 226.271081 
L 234.224662 226.696297 
L 233.021909 227.06346 
L 231.832593 227.377488 
L 230.656152 227.642634 
L 229.491426 227.862494 
L 228.33681 228.040037 
L 227.190374 228.177625 
L 226.04996 228.277046 
L 224.91325 228.339534 
L 223.777834 228.365786 
L 222.641254 228.355969 
L 221.501059 228.309727 
L 220.354851 228.226169 
L 219.200337 228.103854 
L 218.035402 227.940774 
L 216.858184 227.734323 
L 215.667186 227.481266 
L 214.461407 227.177708 
L 213.240513 226.819073 
L 212.005062 226.40009 
L 210.756765 225.914812 
L 209.498815 225.356675 
L 208.236266 224.718621 
L 206.976446 223.993315 
L 205.729398 223.173484 
L 204.508262 222.252398 
L 203.329557 221.224531 
L 202.213222 220.086378 
L 201.182299 218.837407 
L 200.26214 217.48103 
L 199.479034 216.025451 
L 198.858302 214.484182 
L 198.422025 212.876016 
L 198.186704 211.224306 
L 198.161343 209.55554 
L 198.346399 207.897429 
L 198.733655 206.276748 
L 199.307312 204.717338 
L 200.045879 203.23865 
L 200.924455 201.854959 
L 201.917007 200.575264 
L 202.998297 199.403744 
L 204.145273 198.340566 
L 205.337898 197.382833 
L 206.559491 196.525521 
L 207.796708 195.762306 
L 209.039294 195.086222 
L 210.279702 194.490158 
L 211.512669 193.967215 
L 212.734808 193.510926 
L 213.944231 193.115398 
L 215.140224 192.77538 
L 216.32298 192.486285 
L 217.493384 192.244191 
L 218.652834 192.04582 
L 219.80311 191.888511 
L 220.946267 191.770192 
L 222.084548 191.689355 
L 223.220324 191.645038 
L 224.356032 191.636809 
L 225.494132 191.664762 
L 226.637054 191.729519 
L 227.787148 191.832243 
L 228.946627 191.974655 
L 230.11749 192.159057 
L 231.301431 192.388366 
L 232.499719 192.666142 
L 233.713045 192.996619 
L 234.94133 193.384721 
L 236.183479 193.836061 
L 237.437086 194.356909 
L 238.698084 194.954095 
L 239.960337 195.63485 
L 241.215214 196.40653 
L 242.451166 197.276205 
L 243.653384 198.250098 
L 244.803623 199.332834 
L 245.880323 200.526556 
L 246.859149 201.829943 
L 247.714072 203.237277 
L 248.419014 204.737735 
L 248.949983 206.315121 
L 249.287408 207.94823 
L 249.41833 209.611905 
" style="fill:none;stroke:#000000;stroke-linecap:square;stroke-width:1.5;"/>
   </g>
   <g id="line2d_52">
    <path clip-path="url(#p8e395a151a)" d="M 171.283086 86.314777 
L 170.825799 84.982722 
L 170.539256 83.599206 
L 170.422616 82.183092 
L 170.470111 80.753153 
L 170.671827 79.32703 
L 171.014761 77.920407 
L 171.483974 76.546484 
L 172.063691 75.215736 
L 172.738246 73.93593 
L 173.492793 72.712334 
L 174.313803 71.548042 
L 175.189338 70.444353 
L 176.109164 69.401163 
L 177.064741 68.417322 
L 178.049122 67.490951 
L 179.056815 66.619707 
L 180.083614 65.800994 
L 181.12643 65.032128 
L 182.183132 64.310469 
L 183.252395 63.633515 
L 184.333567 62.99897 
L 185.426558 62.404802 
L 186.531733 61.84928 
L 187.64983 61.331011 
L 188.781878 60.848961 
L 189.929128 60.402489 
L 191.092985 59.991372 
L 192.274941 59.615833 
L 193.476503 59.276576 
L 194.699117 58.974824 
L 195.944069 58.712358 
L 197.212385 58.491563 
L 198.504692 58.315472 
L 199.821064 58.187809 
L 201.160836 58.11302 
L 202.522377 58.096287 
L 203.90284 58.143522 
L 205.297886 58.261301 
L 206.701382 58.456756 
L 208.105128 58.737373 
L 209.498615 59.110695 
L 210.868882 59.583917 
L 212.20053 60.163358 
L 213.475949 60.853841 
L 214.67582 61.658013 
L 215.779916 62.575693 
L 216.768178 63.60332 
L 217.621988 64.73364 
L 218.325506 65.955699 
L 218.866862 67.255222 
L 219.23901 68.61533 
L 219.440177 70.017529 
L 219.473747 71.442857 
L 219.347681 72.872991 
L 219.073578 74.291183 
L 218.665555 75.682942 
L 218.139098 77.036419 
L 217.510034 78.342508 
L 216.793694 79.594725 
L 216.004316 80.788937 
L 215.154656 81.922993 
L 214.255805 82.996344 
L 213.317144 84.009659 
L 212.346399 84.96449 
L 211.349768 85.862977 
L 210.332079 86.707617 
L 209.296956 87.501067 
L 208.246989 88.246003 
L 207.18389 88.945007 
L 206.108629 89.600486 
L 205.021564 90.214608 
L 203.922547 90.78926 
L 202.811015 91.326008 
L 201.686079 91.826066 
L 200.546589 92.290275 
L 199.39121 92.719071 
L 198.218487 93.112458 
L 197.026909 93.469976 
L 195.814992 93.790667 
L 194.581358 94.073035 
L 193.324834 94.315002 
L 192.044579 94.513864 
L 190.740216 94.666249 
L 189.412017 94.768075 
L 188.061097 94.814529 
L 186.689661 94.800059 
L 185.301264 94.718412 
L 183.901105 94.562715 
L 182.496316 94.325628 
L 181.09623 93.999592 
L 179.712571 93.57718 
L 178.359534 93.051563 
L 177.05367 92.417086 
L 175.813523 91.669928 
L 174.658988 90.808778 
L 173.610358 89.835451 
L 172.687135 88.755332 
L 171.906714 87.577545 
L 171.283086 86.314777 
" style="fill:none;stroke:#000000;stroke-linecap:square;stroke-width:1.5;"/>
   </g>
   <g id="line2d_53"/>
   <g id="line2d_54"/>
   <g id="line2d_55">
    <path clip-path="url(#p8e395a151a)" d="M 144.651015 82.878896 
L 144.60782 82.736209 
L 144.647571 82.531158 
L 144.770081 82.264602 
L 144.974812 81.937666 
L 145.260874 81.551726 
L 184.256323 51.976558 
L 184.665566 51.835181 
L 184.995404 51.756703 
L 185.244441 51.741479 
L 185.411624 51.789593 
L 185.49625 51.900859 
L 185.497971 52.074819 
L 185.416795 52.310747 
L 185.253085 52.607649 
L 185.007556 52.964275 
L 184.681271 53.379121 
L 184.275634 53.85044 
L 183.79238 54.376249 
L 183.233564 54.954344 
L 182.601552 55.58231 
L 181.899004 56.257533 
L 181.128858 56.977215 
L 180.294319 57.738387 
L 179.398838 58.537927 
L 178.446096 59.372569 
L 177.43999 60.238921 
L 176.384607 61.133481 
L 175.284216 62.052648 
L 174.143244 62.99274 
L 172.966258 63.950005 
L 171.757953 64.920638 
L 170.523129 65.900792 
L 169.266676 66.886592 
L 167.993559 67.874148 
L 166.7088 68.859569 
L 165.417459 69.838975 
L 164.124623 70.808506 
L 162.835385 71.764341 
L 161.55483 72.702706 
L 160.288018 73.619887 
L 159.039964 74.512245 
L 157.815626 75.376225 
L 156.619885 76.208371 
L 155.457525 77.00534 
L 154.33322 77.763914 
L 153.251509 78.481013 
L 152.216783 79.153708 
L 151.233265 79.779236 
L 150.304986 80.355011 
L 149.435773 80.878639 
L 148.629228 81.347927 
L 147.888707 81.760899 
L 147.217306 82.115804 
L 146.617845 82.411128 
L 146.092848 82.645602 
L 145.644532 82.818211 
L 145.274796 82.928199 
L 144.985205 82.975078 
L 144.776986 82.958627 
L 144.651015 82.878896 
" style="fill:none;stroke:#000000;stroke-linecap:square;stroke-width:1.5;"/>
   </g>
   <g id="line2d_56"/>
   <g id="line2d_57">
    <path clip-path="url(#p8e395a151a)" d="M 208.537068 194.74867 
L 206.383178 196.663812 
L 204.022346 198.216141 
L 201.566184 199.382995 
L 199.118516 200.182446 
L 196.760023 200.66024 
L 194.543136 200.874475 
L 192.494688 200.883504 
L 190.622246 200.738915 
L 188.920817 200.482811 
L 187.378311 200.14775 
L 185.979368 199.757962 
L 184.707778 199.330958 
L 183.547853 198.879076 
L 182.485121 198.410782 
L 181.506599 197.931695 
L 180.600829 197.445354 
L 179.757797 196.953784 
L 178.968791 196.457901 
L 178.226241 195.957798 
L 177.523564 195.452944 
L 176.855026 194.942318 
L 176.215607 194.424497 
L 175.600905 193.897705 
L 175.007035 193.359839 
L 174.430562 192.808467 
L 173.868441 192.240815 
L 173.317973 191.65373 
L 172.77678 191.043633 
L 172.242793 190.406453 
L 171.714265 189.737542 
L 171.189799 189.03158 
L 170.668417 188.282451 
L 170.149661 187.483109 
L 169.633754 186.625422 
L 169.121835 185.700006 
L 168.616293 184.696061 
L 168.121245 183.60124 
L 167.643194 182.401591 
L 167.191924 181.081667 
L 166.781676 179.62495 
L 166.432611 178.014796 
L 166.172481 176.236232 
L 166.038217 174.278989 
L 166.076795 172.142121 
L 166.344236 169.840228 
L 166.90114 167.410431 
L 167.803266 164.917654 
L 169.087332 162.454306 
L 170.755715 160.130828 
L 172.766557 158.055983 
L 175.037387 156.316034 
L 177.459991 154.956127 
L 179.923924 153.977529 
L 182.335603 153.346218 
L 184.628453 153.008229 
L 186.763543 152.903978 
L 188.724486 152.977819 
L 190.510618 153.18276 
L 192.130919 153.481653 
L 193.599459 153.846392 
L 194.932312 154.256376 
L 196.145665 154.696891 
L 197.254761 155.157689 
L 198.273426 155.631834 
L 199.213914 156.114821 
L 200.086956 156.603919 
L 200.901885 157.097692 
L 201.666799 157.595661 
L 202.388729 158.098061 
L 203.073793 158.605681 
L 203.727331 159.119752 
L 204.354026 159.641879 
L 204.958 160.174005 
L 205.542897 160.718399 
L 206.111947 161.277659 
L 206.668018 161.854742 
L 207.213647 162.453002 
L 207.751058 163.076246 
L 208.282164 163.728808 
L 208.808542 164.415639 
L 209.331389 165.142419 
L 209.851437 165.915683 
L 210.368822 166.742976 
L 210.882891 167.633016 
L 211.391921 168.595874 
L 211.892721 169.643135 
L 212.380073 170.78801 
L 212.845966 172.045324 
L 213.278572 173.431253 
L 213.660943 174.962639 
L 213.969418 176.655595 
L 214.171925 178.523117 
L 214.226575 180.571331 
L 214.081503 182.794152 
L 213.677424 185.16657 
L 212.954444 187.638043 
L 211.864101 190.129345 
L 210.3851 192.537135 
L 208.537068 194.74867 
" style="fill:none;stroke:#000000;stroke-linecap:square;stroke-width:1.5;"/>
   </g>
   <g id="line2d_58">
    <path clip-path="url(#p8e395a151a)" d="M 153.74801 138.057235 
L 152.191435 137.170116 
L 150.761985 136.097553 
L 149.479881 134.866438 
L 148.357318 133.508556 
L 147.398508 132.057363 
L 146.60069 130.54512 
L 145.955734 129.00076 
L 145.451924 127.448625 
L 145.075613 125.908009 
L 144.812566 124.393302 
L 144.648935 122.91452 
L 144.571886 121.478009 
L 144.569946 120.087183 
L 144.633136 118.743215 
L 144.752984 117.445627 
L 144.922436 116.192775 
L 145.135741 114.982228 
L 145.388316 113.811058 
L 145.676606 112.676055 
L 145.997964 111.573879 
L 146.350544 110.501176 
L 146.733208 109.454651 
L 147.145454 108.431129 
L 147.58736 107.427591 
L 148.05954 106.441208 
L 148.563115 105.46937 
L 149.099699 104.509716 
L 149.671384 103.560171 
L 150.280745 102.618989 
L 150.930835 101.684819 
L 151.625195 100.756782 
L 152.367847 99.834574 
L 153.163284 98.918606 
L 154.016435 98.010173 
L 154.932606 97.111673 
L 155.917361 96.226863 
L 156.976344 95.36117 
L 158.115001 94.522039 
L 159.338185 93.719294 
L 160.649609 92.96549 
L 162.051131 92.276166 
L 163.541882 91.669928 
L 165.117276 91.16821 
L 166.768006 90.794585 
L 168.479217 90.573493 
L 170.230091 90.528345 
L 171.994121 90.679099 
L 173.740273 91.039638 
L 175.435073 91.61541 
L 177.045414 92.401935 
L 178.541452 93.384695 
L 179.899283 94.540282 
L 181.102638 95.838939 
L 182.143383 97.247663 
L 183.020968 98.733272 
L 183.741062 100.264952 
L 184.313814 101.815957 
L 184.752095 103.364453 
L 185.069995 104.893644 
L 185.281653 106.3914 
L 185.40047 107.849632 
L 185.438628 109.263553 
L 185.406857 110.630951 
L 185.314376 111.951552 
L 185.168936 113.226477 
L 184.97692 114.457807 
L 184.743479 115.648257 
L 184.472665 116.800919 
L 184.167565 117.919085 
L 183.830412 119.006113 
L 183.462687 120.065334 
L 183.065202 121.099987 
L 182.638163 122.113171 
L 182.18122 123.107814 
L 181.693503 124.086634 
L 181.173643 125.052122 
L 180.619788 126.006498 
L 180.029607 126.951678 
L 179.400287 127.889218 
L 178.728532 128.820245 
L 178.010563 129.745364 
L 177.242119 130.66454 
L 176.418484 131.576946 
L 175.534526 132.480767 
L 174.584792 133.372962 
L 173.563645 134.248985 
L 172.465496 135.102448 
L 171.285134 135.924766 
L 170.018197 136.704792 
L 168.6618 137.428502 
L 167.215334 138.078815 
L 165.681401 138.635654 
L 164.066829 139.076389 
L 162.383615 139.376814 
L 160.649583 139.512723 
L 158.888482 139.462101 
L 157.129289 139.207703 
L 155.404565 138.739613 
L 153.74801 138.057235 
" style="fill:none;stroke:#000000;stroke-linecap:square;stroke-width:1.5;"/>
   </g>
   <g id="line2d_59">
    <path clip-path="url(#p8e395a151a)" d="M 181.646516 233.352451 
L 182.764307 233.837045 
L 183.94779 234.323306 
L 185.191904 234.809308 
L 186.491459 235.293164 
L 187.84115 235.773024 
L 189.235589 236.247086 
L 190.669321 236.713592 
L 192.136837 237.170832 
L 193.63259 237.617149 
L 195.151003 238.050931 
L 196.686476 238.47062 
L 198.233389 238.874703 
L 199.786107 239.261721 
L 201.338983 239.630262 
L 202.886358 239.978965 
L 204.422565 240.306521 
L 205.941931 240.611674 
L 207.438783 240.893224 
L 208.907455 241.150032 
L 210.342297 241.381022 
L 211.73769 241.58519 
L 213.088058 241.761606 
L 214.387892 241.909426 
L 215.631773 242.027897 
L 216.814396 242.116364 
" style="fill:none;stroke:#000000;stroke-linecap:square;stroke-width:1.5;"/>
   </g>
   <g id="line2d_60"/>
   <g id="line2d_61"/>
   <g id="line2d_62">
    <path clip-path="url(#p8e395a151a)" d="M 199.299777 225.453643 
L 198.692252 226.246702 
L 197.971936 226.95529 
L 197.146384 227.574578 
L 196.224675 228.101414 
L 195.217012 228.534328 
L 194.134294 228.873437 
L 192.987686 229.120274 
L 191.788231 229.277568 
L 190.546518 229.348979 
L 189.272428 229.338845 
L 187.974955 229.251926 
L 186.662107 229.093179 
L 185.340858 228.867571 
L 184.017171 228.579923 
L 182.696045 228.234797 
L 181.381595 227.83641 
L 180.077157 227.388587 
L 178.785384 226.894728 
L 177.508366 226.357806 
L 176.247727 225.780367 
L 175.004737 225.164556 
L 173.780402 224.512133 
L 172.57556 223.824516 
L 171.390963 223.102811 
L 170.227359 222.347853 
L 169.085568 221.560252 
L 167.966553 220.740436 
L 166.871495 219.888704 
L 165.801858 219.005283 
L 164.759457 218.090383 
L 163.746527 217.144271 
L 162.765788 216.16734 
L 161.8205 215.160196 
L 160.914521 214.12375 
L 160.05235 213.059313 
L 159.239151 211.968709 
L 158.480757 210.85438 
L 157.783651 209.719498 
L 157.154894 208.568066 
L 156.602023 207.405002 
L 156.132883 206.236196 
L 155.755411 205.068532 
L 155.477362 203.909849 
L 155.305982 202.768844 
L 155.247657 201.654911 
L 155.307541 200.577897 
L 155.489212 199.54781 
L 155.794377 198.574465 
L 156.222665 197.667124 
L 156.771528 196.83413 
L 157.436284 196.082597 
L 158.210266 195.418158 
L 159.085112 194.844808 
L 160.051129 194.364852 
L 161.097709 193.978948 
L 162.21377 193.686247 
L 163.388161 193.484588 
L 164.610032 193.370742 
L 165.869118 193.340678 
L 167.155964 193.389818 
L 168.462062 193.513276 
L 169.779918 193.706068 
L 171.103068 193.963285 
L 172.426041 194.280221 
L 173.74429 194.652481 
L 175.054103 195.076037 
L 176.352501 195.547275 
L 177.637124 196.063009 
L 178.90613 196.620482 
L 180.158084 197.21735 
L 181.39186 197.851665 
L 182.606548 198.521842 
L 183.801361 199.226624 
L 184.97556 199.965046 
L 186.12837 200.736391 
L 187.258907 201.540145 
L 188.366108 202.375952 
L 189.44866 203.243555 
L 190.504931 204.142744 
L 191.532903 205.073289 
L 192.530109 206.03487 
L 193.493565 207.026999 
L 194.419718 208.048928 
L 195.304394 209.099561 
L 196.142766 210.177344 
L 196.929332 211.280158 
L 197.65793 212.405209 
L 198.321777 213.548922 
L 198.913558 214.706845 
L 199.425557 215.87358 
L 199.849852 217.042737 
L 200.17856 218.206949 
L 200.404136 219.357929 
L 200.519719 220.486608 
L 200.519493 221.583331 
L 200.399052 222.63813 
L 200.15572 223.641048 
L 199.788811 224.5825 
L 199.299777 225.453643 
" style="fill:none;stroke:#000000;stroke-linecap:square;stroke-width:1.5;"/>
   </g>
   <g id="line2d_63">
    <path clip-path="url(#p8e395a151a)" d="M 148.161461 95.94997 
L 147.804176 95.562957 
L 147.504886 95.118957 
L 147.265178 94.621678 
L 147.085808 94.075433 
L 146.966725 93.484998 
L 146.907131 92.855454 
L 146.905563 92.192032 
L 146.960006 91.499967 
L 147.068003 90.784366 
L 147.226783 90.050102 
L 147.433372 89.301733 
L 147.684702 88.543444 
L 147.977699 87.779017 
L 148.309361 87.011821 
L 148.676814 86.244819 
L 149.077358 85.480588 
L 149.508495 84.721352 
L 149.967942 83.969021 
L 150.453637 83.225233 
L 150.963736 82.491401 
L 151.496601 81.768758 
L 152.050785 81.058398 
L 152.625007 80.36133 
L 153.218131 79.678508 
L 153.829136 79.010881 
L 154.457088 78.359426 
L 155.101105 77.725186 
L 155.760324 77.109305 
L 156.433862 76.513057 
L 157.12078 75.937879 
L 157.820037 75.385395 
L 158.530454 74.857438 
L 159.250661 74.356069 
L 159.979059 73.883587 
L 160.713773 73.442534 
L 161.45261 73.035685 
L 162.193021 72.666032 
L 162.932075 72.33675 
L 163.666436 72.051146 
L 164.392361 71.812594 
L 165.105716 71.624449 
L 165.802008 71.489946 
L 166.476447 71.412085 
L 167.124032 71.393501 
L 167.739661 71.436339 
L 168.318259 71.542129 
L 168.854925 71.711678 
L 169.345082 71.944982 
L 169.784626 72.24118 
L 170.170059 72.598533 
L 170.498596 73.01446 
L 170.768242 73.485604 
L 170.977824 74.007937 
L 171.126996 74.576897 
L 171.216191 75.187534 
L 171.246551 75.834675 
L 171.219832 76.513068 
L 171.138282 77.217527 
L 171.004532 77.94305 
L 170.821467 78.684914 
L 170.592122 79.438742 
L 170.319577 80.200547 
L 170.006879 80.966753 
L 169.656973 81.734198 
L 169.272649 82.500114 
L 168.856509 83.262105 
L 168.410945 84.018109 
L 167.938131 84.766358 
L 167.440017 85.505332 
L 166.918342 86.233714 
L 166.374647 86.950346 
L 165.810294 87.654182 
L 165.226487 88.344245 
L 164.624301 89.019589 
L 164.00471 89.679256 
L 163.368617 90.322239 
L 162.716891 90.94745 
L 162.050399 91.553683 
L 161.370049 92.139586 
L 160.676823 92.703633 
L 159.971828 93.244097 
L 159.256332 93.759032 
L 158.531813 94.24626 
L 157.800004 94.70336 
L 157.062933 95.127672 
L 156.322967 95.516309 
L 155.582843 95.866183 
L 154.845693 96.174046 
L 154.115057 96.436547 
L 153.394877 96.65031 
L 152.689472 96.812026 
L 152.003492 96.918563 
L 151.341845 96.967088 
L 150.709599 96.955194 
L 150.111858 96.881028 
L 149.55363 96.74341 
L 149.039673 96.54193 
L 148.574344 96.277017 
L 148.161461 95.94997 
" style="fill:none;stroke:#000000;stroke-linecap:square;stroke-width:1.5;"/>
   </g>
   <g id="line2d_64"/>
   <g id="line2d_65">
    <path clip-path="url(#p8e395a151a)" d="M 145.119474 81.731103 
L 144.940923 81.989572 
L 144.722841 82.340782 
L 144.466114 82.783302 
L 144.171787 83.315331 
L 143.841055 83.934702 
L 143.475261 84.638897 
L 143.075889 85.425055 
L 142.644558 86.289985 
L 142.183014 87.23018 
L 141.693127 88.241832 
L 141.176875 89.320848 
L 140.636344 90.462867 
L 140.073714 91.663278 
L 139.491254 92.91724 
L 138.891309 94.219701 
L 138.276292 95.565418 
L 137.648676 96.948981 
L 137.010982 98.364828 
L 136.36577 99.807274 
L 135.71563 101.270531 
L 135.063169 102.748727 
L 134.411003 104.235934 
L 133.761747 105.72619 
L 133.118005 107.213519 
L 132.482358 108.691957 
L 131.857356 110.155574 
L 131.245507 111.598497 
L 130.649268 113.014935 
L 130.071034 114.399198 
L 129.513131 115.745722 
L 128.977804 117.04909 
L 128.467209 118.304055 
L 127.983405 119.505559 
L 127.528346 120.648754 
L 127.103871 121.729025 
L 126.711697 122.742003 
L 126.353413 123.68359 
L 126.030472 124.549971 
L 125.744186 125.337633 
L 125.495719 126.043379 
L 125.286081 126.664341 
L 125.116128 127.197995 
L 124.986553 127.642169 
L 124.897885 127.995056 
" style="fill:none;stroke:#000000;stroke-linecap:square;stroke-width:1.5;"/>
   </g>
   <g id="line2d_66">
    <path clip-path="url(#p8e395a151a)" d="M 236.568166 236.812484 
L 236.469875 237.275374 
L 236.270087 237.725537 
L 235.970222 238.160666 
L 235.572441 238.578595 
L 235.079595 238.977325 
L 234.495157 239.355047 
L 233.823147 239.710151 
L 233.068039 240.041236 
L 232.234676 240.347113 
L 231.328174 240.6268 
L 230.353838 240.879513 
L 229.317082 241.104653 
L 228.223352 241.301793 
L 227.078071 241.47066 
L 225.886583 241.611114 
L 224.654118 241.723133 
L 223.385764 241.806788 
L 222.08645 241.862235 
L 220.76094 241.88969 
L 219.413836 241.889421 
L 218.04959 241.861734 
L 216.672518 241.806963 
L 215.286824 241.725464 
L 213.896628 241.61761 
L 212.505993 241.483789 
L 211.118956 241.324405 
L 209.739561 241.139877 
L 208.371889 240.93065 
L 207.020087 240.697197 
L 205.688396 240.440029 
L 204.381173 240.159706 
L 203.10291 239.856851 
L 201.858243 239.532159 
L 200.65196 239.186416 
L 199.488991 238.820507 
L 198.3744 238.435438 
L 197.313355 238.032343 
L 196.311096 237.612498 
L 195.372886 237.177332 
L 194.503951 236.728431 
L 193.709415 236.267543 
L 192.994217 235.796575 
L 192.363031 235.317587 
L 191.820173 234.832781 
L 191.369516 234.344481 
L 191.014399 233.855117 
L 190.757548 233.367188 
L 190.60101 232.883241 
L 190.546098 232.405828 
L 190.59335 231.937477 
L 190.742519 231.480654 
L 190.992569 231.037728 
L 191.341707 230.610938 
L 191.787418 230.20237 
L 192.32653 229.81393 
L 192.955287 229.447329 
L 193.669431 229.104073 
L 194.464291 228.785456 
L 195.334877 228.492563 
L 196.275967 228.226278 
L 197.282194 227.987288 
L 198.348118 227.776104 
L 199.468297 227.593075 
L 200.637343 227.438405 
L 201.849965 227.312172 
L 203.101 227.21435 
L 204.38544 227.144823 
L 205.698437 227.103402 
L 207.035309 227.089845 
L 208.391532 227.103864 
L 209.762724 227.145136 
L 211.144626 227.213316 
L 212.533082 227.30804 
L 213.924003 227.428927 
L 215.313343 227.575581 
L 216.697066 227.747591 
L 218.071114 227.944525 
L 219.431375 228.165927 
L 220.773658 228.411304 
L 222.093668 228.680123 
L 223.386981 228.971794 
L 224.649034 229.28566 
L 225.875117 229.620981 
L 227.060368 229.976925 
L 228.199788 230.352547 
L 229.288258 230.74678 
L 230.320567 231.158419 
L 231.291459 231.586112 
L 232.19568 232.028354 
L 233.028046 232.483477 
L 233.783517 232.949654 
L 234.457273 233.424899 
L 235.044808 233.907079 
L 235.542018 234.39393 
L 235.945287 234.88307 
L 236.251571 235.372033 
L 236.458476 235.858291 
L 236.564317 236.339289 
L 236.568166 236.812484 
" style="fill:none;stroke:#000000;stroke-linecap:square;stroke-width:1.5;"/>
   </g>
   <g id="line2d_67">
    <path clip-path="url(#p8e395a151a)" d="M 158.888886 194.907451 
L 157.784776 195.243702 
L 156.637077 195.432661 
L 155.457876 195.475071 
L 154.259414 195.374753 
L 153.053572 195.138216 
L 151.851422 194.774129 
L 150.662884 194.292715 
L 149.496504 193.705123 
L 148.359348 193.02286 
L 147.257008 192.257294 
L 146.193682 191.419263 
L 145.172315 190.518803 
L 144.194771 189.564963 
L 143.262019 188.565722 
L 142.374317 187.527959 
L 141.531384 186.457491 
L 140.732554 185.359129 
L 139.976909 184.236771 
L 139.263394 183.093494 
L 138.590913 181.931658 
L 137.958408 180.753007 
L 137.364922 179.558761 
L 136.809658 178.349717 
L 136.29202 177.12633 
L 135.811655 175.888797 
L 135.368485 174.637142 
L 134.962741 173.371298 
L 134.594993 172.091181 
L 134.266174 170.796786 
L 133.977605 169.488272 
L 133.731021 168.166067 
L 133.528589 166.830976 
L 133.372917 165.484302 
L 133.267057 164.127981 
L 133.214496 162.764728 
L 133.219121 161.398184 
L 133.285165 160.033072 
L 133.417114 158.675342 
L 133.61958 157.332293 
L 133.897122 156.012657 
L 134.254029 154.72662 
L 134.694044 153.485757 
L 135.220063 152.302863 
L 135.833802 151.191647 
L 136.535481 150.166299 
L 137.323539 149.240934 
L 138.194438 148.428933 
L 139.142574 147.742246 
L 140.160336 147.190724 
L 141.238327 146.781545 
L 142.365715 146.518826 
L 143.530699 146.403433 
L 144.721052 146.433043 
L 145.92465 146.602434 
L 147.129966 146.903942 
L 148.326469 147.328045 
L 149.504907 147.86398 
L 150.657466 148.50035 
L 151.777824 149.225662 
L 152.861101 150.028773 
L 153.903744 150.899215 
L 154.903372 151.827431 
L 155.858591 152.804898 
L 156.76881 153.82419 
L 157.634063 154.878964 
L 158.45484 155.963918 
L 159.23195 157.074708 
L 159.966392 158.20786 
L 160.659253 159.360668 
L 161.311619 160.531095 
L 161.924504 161.717668 
L 162.498792 162.919391 
L 163.035184 164.135649 
L 163.53416 165.366125 
L 163.995938 166.610718 
L 164.420446 167.86946 
L 164.807285 169.142436 
L 165.15571 170.429701 
L 165.464595 171.73119 
L 165.732414 173.046623 
L 165.957219 174.375397 
L 166.136624 175.716476 
L 166.267798 177.068256 
L 166.34747 178.428432 
L 166.371947 179.793846 
L 166.337159 181.160335 
L 166.238735 182.52258 
L 166.072106 183.87397 
L 165.832662 185.206497 
L 165.515947 186.510699 
L 165.117909 187.77568 
L 164.635189 188.989227 
L 164.065438 190.13804 
L 163.407651 191.208108 
L 162.662467 192.185201 
L 161.832417 193.055485 
L 160.922069 193.806208 
L 159.938047 194.426388 
L 158.888886 194.907451 
" style="fill:none;stroke:#000000;stroke-linecap:square;stroke-width:1.5;"/>
   </g>
   <g id="line2d_68">
    <path clip-path="url(#p8e395a151a)" d="M 132.924428 125.862391 
L 132.507763 125.650402 
L 132.124372 125.363344 
L 131.776385 125.003448 
L 131.465532 124.573646 
L 131.193122 124.077478 
L 130.960043 123.518996 
L 130.766776 122.902646 
L 130.613419 122.233148 
L 130.499729 121.515385 
L 130.425159 120.754292 
L 130.388914 119.95476 
L 130.389997 119.12156 
L 130.427259 118.259273 
L 130.499446 117.372249 
L 130.605242 116.46457 
L 130.743303 115.540041 
L 130.912288 114.60218 
L 131.110886 113.654232 
L 131.337831 112.699182 
L 131.591917 111.739783 
L 131.872004 110.778584 
L 132.177021 109.817963 
L 132.505967 108.860168 
L 132.857901 107.907349 
L 133.231936 106.961602 
L 133.627228 106.025006 
L 134.042959 105.099661 
L 134.47832 104.187729 
L 134.932492 103.291464 
L 135.404627 102.413248 
L 135.893818 101.555623 
L 136.399081 100.721309 
L 136.919324 99.913232 
L 137.453325 99.134532 
L 137.999702 98.388566 
L 138.556892 97.678909 
L 139.123128 97.009331 
L 139.69642 96.38377 
L 140.274545 95.806287 
L 140.855038 95.281008 
L 141.435202 94.812052 
L 142.012116 94.40344 
L 142.582662 94.059001 
L 143.143562 93.782266 
L 143.691429 93.576353 
L 144.222818 93.443869 
L 144.734299 93.386801 
L 145.222527 93.406443 
L 145.684314 93.503325 
L 146.1167 93.67718 
L 146.517019 93.926936 
L 146.88295 94.250737 
L 147.21256 94.645993 
L 147.504328 95.109455 
L 147.757158 95.637314 
L 147.970367 96.225306 
L 148.143668 96.868833 
L 148.277141 97.563079 
L 148.371186 98.303124 
L 148.42648 99.084042 
L 148.443926 99.900994 
L 148.424603 100.749296 
L 148.369716 101.624479 
L 148.280558 102.522324 
L 148.158461 103.438885 
L 148.004772 104.370503 
L 147.820819 105.313796 
L 147.607893 106.265653 
L 147.367231 107.223208 
L 147.100006 108.183814 
L 146.807325 109.145012 
L 146.490222 110.104494 
L 146.149668 111.060066 
L 145.786576 112.009609 
L 145.401808 112.951041 
L 144.996196 113.882277 
L 144.570549 114.80119 
L 144.125678 115.705578 
L 143.662415 116.593125 
L 143.181635 117.461374 
L 142.684279 118.307696 
L 142.171382 119.12927 
L 141.644098 119.923065 
L 141.103725 120.685832 
L 140.551734 121.414103 
L 139.989786 122.104203 
L 139.419759 122.752274 
L 138.843758 123.354309 
L 138.264126 123.906207 
L 137.683446 124.403836 
L 137.104529 124.843113 
L 136.530399 125.220101 
L 135.964257 125.531106 
L 135.409445 125.77279 
L 134.869386 125.942278 
L 134.347526 126.037261 
L 133.847261 126.056088 
L 133.371868 125.997844 
L 132.924428 125.862391 
" style="fill:none;stroke:#000000;stroke-linecap:square;stroke-width:1.5;"/>
   </g>
   <g id="line2d_69"/>
   <g id="line2d_70">
    <path clip-path="url(#p8e395a151a)" d="M 137.319839 193.337059 
L 137.956932 194.375146 
L 138.646773 195.452466 
L 139.386328 196.564539 
L 140.172434 197.70684 
L 141.001813 198.874808 
L 141.87109 200.06387 
L 142.776807 201.26945 
L 143.715436 202.48698 
L 144.683386 203.711909 
L 145.677014 204.939708 
L 146.692627 206.165873 
L 147.72649 207.385933 
L 148.774824 208.595445 
L 149.833813 209.79 
L 150.899602 210.965224 
L 151.968301 212.116781 
L 153.035983 213.240375 
L 154.098692 214.33176 
L 155.152443 215.38674 
L 156.193228 216.401184 
L 157.217026 217.371037 
L 158.219808 218.292332 
L 159.197556 219.161211 
L 160.14627 219.973943 
L 161.061993 220.726945 
" style="fill:none;stroke:#000000;stroke-linecap:square;stroke-width:1.5;"/>
   </g>
   <g id="line2d_71">
    <path clip-path="url(#p8e395a151a)" d="M 192.50021 236.199297 
L 192.40949 236.317727 
L 192.267274 236.410033 
L 192.07423 236.47584 
L 191.831276 236.514905 
L 191.539571 236.527119 
L 191.200504 236.512503 
L 190.81568 236.471209 
L 190.3869 236.403512 
L 189.916155 236.309806 
L 189.405595 236.190601 
L 188.857522 236.046509 
L 188.274366 235.878245 
L 187.658667 235.686613 
L 187.013063 235.472499 
L 186.340267 235.236868 
L 185.643059 234.980751 
L 184.924268 234.705242 
L 184.186763 234.411487 
L 183.433441 234.100685 
L 182.667219 233.774077 
L 181.891025 233.432942 
L 181.107796 233.078598 
L 180.320468 232.712393 
L 179.531974 232.335706 
L 178.745242 231.949943 
L 177.963188 231.556536 
L 177.188716 231.15694 
L 176.424716 230.752635 
L 175.674054 230.345122 
L 174.939575 229.935919 
L 174.224094 229.526565 
L 173.530392 229.118613 
L 172.861204 228.71363 
L 172.219217 228.31319 
L 171.607055 227.918874 
L 171.027268 227.532262 
L 170.482321 227.154929 
L 169.974577 226.788435 
L 169.506285 226.434322 
L 169.079562 226.094102 
L 168.696374 225.76925 
L 168.358524 225.461194 
L 168.067632 225.171303 
L 167.825118 224.900879 
L 167.63219 224.651145 
L 167.489828 224.42324 
L 167.398774 224.2182 
L 167.35952 224.036958 
L 167.372305 223.880334 
L 167.437106 223.749024 
L 167.553642 223.643601 
L 167.721371 223.564506 
L 167.939501 223.512048 
L 168.206989 223.486403 
L 168.522562 223.487615 
L 168.884722 223.515596 
L 169.291761 223.570134 
L 169.741783 223.650892 
L 170.232714 223.757418 
L 170.762327 223.889149 
L 171.328252 224.045422 
L 171.928004 224.225476 
L 172.55899 224.428465 
L 173.218534 224.653462 
L 173.903887 224.899469 
L 174.612242 225.165423 
L 175.340751 225.450202 
L 176.086528 225.752632 
L 176.846666 226.071495 
L 177.61824 226.405529 
L 178.398319 226.753435 
L 179.183964 227.11388 
L 179.972242 227.4855 
L 180.76022 227.866902 
L 181.544977 228.256668 
L 182.323602 228.653353 
L 183.093198 229.05549 
L 183.850886 229.461588 
L 184.593811 229.870137 
L 185.31914 230.279609 
L 186.024077 230.688457 
L 186.705861 231.09512 
L 187.36178 231.498029 
L 187.989178 231.895605 
L 188.585467 232.286266 
L 189.148136 232.668435 
L 189.67477 233.040543 
L 190.163061 233.401038 
L 190.610824 233.748391 
L 191.016016 234.081108 
L 191.376749 234.397737 
L 191.691311 234.696878 
L 191.958179 234.977194 
L 192.176037 235.23742 
L 192.343789 235.476376 
L 192.460575 235.692972 
L 192.525774 235.886222 
L 192.539022 236.05525 
L 192.50021 236.199297 
" style="fill:none;stroke:#000000;stroke-linecap:square;stroke-width:1.5;"/>
   </g>
   <g id="line2d_72">
    <path clip-path="url(#p8e395a151a)" d="M 157.14484 213.320679 
L 156.89268 213.460123 
L 156.597299 213.53865 
L 156.260222 213.556026 
L 155.883223 213.512408 
L 155.468303 213.408334 
L 155.017664 213.2447 
L 154.533675 213.022742 
L 154.018845 212.744001 
L 153.475787 212.410299 
L 152.90719 212.023698 
L 152.315787 211.586465 
L 151.704335 211.101039 
L 151.075582 210.569995 
L 150.432256 209.996012 
L 149.777044 209.381848 
L 149.11258 208.73031 
L 148.44144 208.044235 
L 147.766132 207.326476 
L 147.089097 206.579888 
L 146.41271 205.807316 
L 145.739281 205.011596 
L 145.071062 204.195553 
L 144.410254 203.362001 
L 143.759013 202.513747 
L 143.119456 201.653603 
L 142.493674 200.784389 
L 141.883734 199.908945 
L 141.291689 199.030143 
L 140.719582 198.150892 
L 140.169447 197.274149 
L 139.643316 196.40293 
L 139.143211 195.540312 
L 138.671146 194.689436 
L 138.229116 193.85351 
L 137.819092 193.035804 
L 137.443002 192.239641 
L 137.102721 191.468386 
L 136.80005 190.725432 
L 136.536693 190.014174 
L 136.314236 189.337986 
L 136.134119 188.700189 
L 135.997613 188.104018 
L 135.905794 187.552584 
L 135.859514 187.048834 
L 135.859384 186.595514 
L 135.905748 186.195128 
L 135.998672 185.849898 
L 136.137931 185.561734 
L 136.323002 185.332205 
L 136.553064 185.162511 
L 136.827009 185.053472 
L 137.143444 185.005517 
L 137.500719 185.018681 
L 137.896942 185.092617 
L 138.330008 185.226605 
L 138.797627 185.419575 
L 139.297357 185.670136 
L 139.826634 185.976601 
L 140.382801 186.337024 
L 140.963145 186.749236 
L 141.564917 187.210879 
L 142.185362 187.719444 
L 142.82174 188.272297 
L 143.471342 188.866719 
L 144.131506 189.499924 
L 144.799625 190.169086 
L 145.473159 190.87136 
L 146.149631 191.60389 
L 146.826635 192.363825 
L 147.501828 193.148325 
L 148.17293 193.954558 
L 148.837715 194.779707 
L 149.494007 195.620961 
L 150.139669 196.475512 
L 150.772598 197.340545 
L 151.390717 198.21323 
L 151.991965 199.090714 
L 152.574296 199.970108 
L 153.135671 200.848478 
L 153.674057 201.722839 
L 154.187427 202.590146 
L 154.673763 203.44729 
L 155.131059 204.291096 
L 155.55733 205.118324 
L 155.950625 205.925678 
L 156.309041 206.709809 
L 156.630736 207.467338 
L 156.913956 208.194868 
L 157.157053 208.88901 
L 157.358511 209.546413 
L 157.516969 210.163795 
L 157.631253 210.737977 
L 157.700394 211.265926 
L 157.723659 211.744789 
L 157.700569 212.171939 
L 157.630915 212.545006 
L 157.514776 212.861921 
L 157.352528 213.120941 
L 157.14484 213.320679 
" style="fill:none;stroke:#000000;stroke-linecap:square;stroke-width:1.5;"/>
   </g>
   <g id="line2d_73"/>
   <g id="line2d_74">
    <path clip-path="url(#p8e395a151a)" d="M 135.319928 186.886891 
L 135.109373 186.901965 
L 134.878847 186.839389 
L 134.629375 186.699515 
L 134.362075 186.48308 
L 134.078143 186.191197 
L 133.778851 185.825342 
L 133.465533 185.387335 
L 133.139576 184.87932 
L 132.802408 184.303743 
L 132.455491 183.663326 
L 132.100309 182.961041 
L 131.73836 182.200084 
L 131.371147 181.38385 
L 131.000173 180.515907 
L 130.626929 179.599972 
L 124.902656 158.559941 
L 124.754716 157.560623 
L 124.628594 156.601928 
L 124.524905 155.687873 
L 124.444183 154.822361 
L 124.386877 154.009162 
L 124.353346 153.251882 
L 124.343848 152.553939 
L 124.358541 151.918541 
L 124.397473 151.348649 
L 124.460578 150.846959 
L 124.547677 150.415871 
L 124.658469 150.057467 
L 124.792538 149.773487 
L 124.949346 149.565316 
L 125.128242 149.433963 
L 125.328458 149.380055 
L 125.549121 149.403825 
L 125.789254 149.505118 
L 126.047785 149.683389 
L 126.323556 149.93771 
L 126.61533 150.266786 
L 126.921805 150.668965 
L 127.241619 151.142263 
L 127.573363 151.684382 
L 127.915589 152.292736 
L 128.266826 152.964473 
L 128.625579 153.696507 
L 128.990348 154.485538 
L 129.359629 155.328082 
L 129.731923 156.220494 
L 130.105746 157.158992 
L 130.479628 158.139678 
L 130.852122 159.158557 
L 131.221804 160.211554 
L 131.58728 161.29453 
L 131.947187 162.403295 
L 132.300191 163.533617 
L 132.644993 164.681229 
L 132.980328 165.841842 
L 133.304966 167.011145 
L 133.617712 168.184812 
L 133.917409 169.358506 
L 134.202936 170.527884 
L 134.473214 171.688599 
L 134.727202 172.836307 
L 134.963905 173.966673 
L 135.182374 175.075375 
L 135.38171 176.158119 
L 135.561069 177.210643 
L 135.719665 178.228736 
L 135.856778 179.208251 
L 135.971755 180.145122 
L 136.064022 181.035385 
L 136.133087 181.875202 
L 136.178544 182.660882 
L 136.200085 183.388908 
L 136.1975 184.055964 
L 136.170687 184.658964 
L 136.119653 185.195073 
L 136.044521 185.661743 
L 135.945531 186.056729 
L 135.823041 186.378117 
L 135.677528 186.624342 
L 135.509587 186.794206 
L 135.319928 186.886891 
" style="fill:none;stroke:#000000;stroke-linecap:square;stroke-width:1.5;"/>
   </g>
   <g id="patch_3">
    <path d="M 114.638233 252 
L 114.638233 34.56 
" style="fill:none;stroke:#000000;stroke-linecap:square;stroke-linejoin:miter;stroke-width:0.8;"/>
   </g>
   <g id="patch_4">
    <path d="M 328.161767 252 
L 328.161767 34.56 
" style="fill:none;stroke:#000000;stroke-linecap:square;stroke-linejoin:miter;stroke-width:0.8;"/>
   </g>
   <g id="patch_5">
    <path d="M 114.638233 252 
L 328.161767 252 
" style="fill:none;stroke:#000000;stroke-linecap:square;stroke-linejoin:miter;stroke-width:0.8;"/>
   </g>
   <g id="patch_6">
    <path d="M 114.638233 34.56 
L 328.161767 34.56 
" style="fill:none;stroke:#000000;stroke-linecap:square;stroke-linejoin:miter;stroke-width:0.8;"/>
   </g>
  </g>
 </g>
 <defs>
  <clipPath id="p8e395a151a">
   <rect height="217.44" width="213.523534" x="114.638233" y="34.56"/>
  </clipPath>
 </defs>
</svg>
